<svg width="261" height="261" viewBox="0 0 261 261" fill="none" xmlns="http://www.w3.org/2000/svg">
<path d="M199.252 67.0926V65.1174H198.326V67.0926L196.473 66.3934L196.159 67.2324L198.011 67.8966L196.875 69.4872L197.662 70.0291L198.798 68.3511L200.004 70.0291L200.721 69.4872L199.567 67.8966L201.472 67.2324L201.123 66.3934L199.252 67.0926Z" fill="#ED0000"/>
<path d="M153.326 83.1198C153.326 81.9692 153.473 80.9532 153.767 80.0719C154.085 79.1661 154.514 78.4072 155.052 77.7951C155.591 77.1831 156.215 76.718 156.925 76.3997C157.66 76.0814 158.431 75.9223 159.239 75.9223C160.047 75.9223 160.806 76.0814 161.515 76.3997C162.25 76.718 162.886 77.1831 163.425 77.7951C163.964 78.4072 164.38 79.1661 164.674 80.0719C164.992 80.9532 165.151 81.9692 165.151 83.1198C165.151 84.2704 164.992 85.2987 164.674 86.2045C164.38 87.0858 163.964 87.8325 163.425 88.4445C162.886 89.0321 162.25 89.485 161.515 89.8032C160.806 90.1215 160.047 90.2806 159.239 90.2806C158.431 90.2806 157.66 90.1215 156.925 89.8032C156.215 89.485 155.591 89.0321 155.052 88.4445C154.514 87.8325 154.085 87.0858 153.767 86.2045C153.473 85.2987 153.326 84.2704 153.326 83.1198ZM150.021 83.1198C150.021 84.5153 150.217 85.8128 150.609 87.0124C151.001 88.2119 151.588 89.2646 152.372 90.1705C153.155 91.0518 154.122 91.7495 155.273 92.2636C156.423 92.7532 157.745 92.998 159.239 92.998C160.757 92.998 162.079 92.7532 163.205 92.2636C164.355 91.7495 165.322 91.0518 166.106 90.1705C166.889 89.2646 167.477 88.2119 167.868 87.0124C168.26 85.8128 168.456 84.5153 168.456 83.1198C168.456 81.7244 168.26 80.4269 167.868 79.2273C167.477 78.0032 166.889 76.9505 166.106 76.0692C165.322 75.1634 164.355 74.4534 163.205 73.9393C162.079 73.4252 160.757 73.1682 159.239 73.1682C157.745 73.1682 156.423 73.4252 155.273 73.9393C154.122 74.4534 153.155 75.1634 152.372 76.0692C151.588 76.9505 151.001 78.0032 150.609 79.2273C150.217 80.4269 150.021 81.7244 150.021 83.1198Z" fill="#ED0000"/>
<path d="M183.74 76.363H176.543V92.5941H173.421V76.363H170.227V73.6088H173.421V70.7812C173.421 69.2389 173.862 68.076 174.743 67.2926C175.649 66.4848 176.959 66.0808 178.673 66.0808C178.966 66.0808 179.297 66.1053 179.664 66.1543C180.056 66.2032 180.399 66.2767 180.692 66.3746V69.092C180.423 68.9941 180.129 68.9329 179.811 68.9084C179.493 68.8594 179.199 68.835 178.93 68.835C178.171 68.835 177.583 68.9819 177.167 69.2756C176.751 69.5694 176.543 70.1325 176.543 70.9648V73.6088H183.74V70.7812C183.74 69.2389 184.181 68.076 185.062 67.2926C185.968 66.4848 187.278 66.0808 188.992 66.0808C189.285 66.0808 189.616 66.1053 189.983 66.1543C190.375 66.2032 190.718 66.2767 191.011 66.3746V69.092C190.742 68.9941 190.448 68.9329 190.13 68.9084C189.812 68.8594 189.518 68.835 189.249 68.835C188.49 68.835 187.902 68.9819 187.486 69.2756C187.07 69.5694 186.862 70.1325 186.862 70.9648V73.6088H190.534V76.363H186.862V92.5941H183.74V76.363Z" fill="#ED0000"/>
<path d="M165.816 63.3393C165.816 63.0563 165.825 62.7401 165.841 62.3905C165.874 62.0409 165.949 61.7163 166.066 61.4166C166.182 61.117 166.349 60.8673 166.565 60.6675C166.798 60.4678 167.115 60.3679 167.514 60.3679C167.88 60.3679 168.163 60.4844 168.363 60.7175C168.58 60.9339 168.738 61.2002 168.838 61.5165C168.937 61.8162 168.996 62.1408 169.012 62.4904C169.046 62.8233 169.062 63.1146 169.062 63.3643C169.062 63.6307 169.046 63.9386 169.012 64.2882C168.996 64.6211 168.929 64.9458 168.813 65.262C168.713 65.5617 168.546 65.8197 168.313 66.0361C168.097 66.2525 167.797 66.3607 167.414 66.3607C167.015 66.3607 166.707 66.2525 166.49 66.0361C166.274 65.8197 166.116 65.5617 166.016 65.262C165.916 64.9458 165.858 64.6128 165.841 64.2632C165.825 63.9137 165.816 63.6057 165.816 63.3393ZM163.269 63.3144C163.269 63.9969 163.336 64.6378 163.469 65.2371C163.619 65.8364 163.852 66.3607 164.168 66.8102C164.501 67.243 164.926 67.5843 165.442 67.834C165.974 68.0837 166.624 68.2085 167.389 68.2085C168.122 68.2085 168.754 68.092 169.287 67.8589C169.82 67.6092 170.253 67.268 170.585 66.8352C170.935 66.4023 171.193 65.8946 171.36 65.312C171.526 64.7293 171.609 64.0968 171.609 63.4143C171.609 62.7317 171.543 62.0908 171.409 61.4916C171.276 60.8923 171.043 60.3762 170.71 59.9434C170.394 59.4939 169.978 59.1444 169.462 58.8947C168.946 58.6283 168.297 58.4951 167.514 58.4951C166.782 58.4951 166.149 58.62 165.616 58.8697C165.084 59.1194 164.643 59.4606 164.293 59.8935C163.943 60.3263 163.685 60.834 163.519 61.4166C163.352 61.9993 163.269 62.6319 163.269 63.3144ZM165.192 49.8555L154.854 68.4083H157.027L167.314 49.8555H165.192ZM152.932 55.0493C152.932 54.7663 152.94 54.4417 152.957 54.0754C152.99 53.7092 153.065 53.3679 153.181 53.0516C153.298 52.7354 153.464 52.469 153.681 52.2526C153.914 52.0362 154.23 51.928 154.63 51.928C154.996 51.928 155.279 52.0445 155.479 52.2776C155.695 52.5106 155.853 52.7936 155.953 53.1266C156.053 53.4595 156.111 53.8091 156.128 54.1753C156.161 54.5249 156.178 54.8245 156.178 55.0742C156.178 55.3406 156.161 55.6402 156.128 55.9732C156.111 56.2894 156.045 56.5974 155.928 56.897C155.828 57.18 155.662 57.4214 155.429 57.6212C155.212 57.8209 154.913 57.9208 154.53 57.9208C154.13 57.9208 153.822 57.8209 153.606 57.6212C153.389 57.4214 153.231 57.18 153.131 56.897C153.031 56.5974 152.973 56.2811 152.957 55.9482C152.94 55.6152 152.932 55.3156 152.932 55.0493ZM150.385 54.9993C150.385 55.6818 150.451 56.3227 150.584 56.922C150.734 57.5047 150.967 58.0124 151.284 58.4452C151.617 58.8614 152.041 59.1943 152.557 59.444C153.09 59.6771 153.739 59.7936 154.505 59.7936C155.237 59.7936 155.87 59.6771 156.402 59.444C156.935 59.2109 157.368 58.8863 157.701 58.4702C158.05 58.054 158.308 57.5629 158.475 56.9969C158.641 56.4143 158.725 55.7817 158.725 55.0992C158.725 54.4167 158.658 53.7675 158.525 53.1515C158.392 52.5356 158.159 52.0029 157.826 51.5534C157.509 51.0873 157.093 50.7211 156.577 50.4548C156.061 50.1884 155.412 50.0552 154.63 50.0552C153.897 50.0552 153.265 50.1884 152.732 50.4548C152.199 50.7045 151.758 51.054 151.408 51.5035C151.059 51.953 150.801 52.4773 150.634 53.0766C150.468 53.6759 150.385 54.3168 150.385 54.9993Z" fill="#ED0000"/>
<path d="M101.481 92.6969V45.2045H93.8143C93.5429 47.0137 92.9775 48.5289 92.1182 49.7502C91.2588 50.9714 90.1959 51.9665 88.9294 52.7354C87.7082 53.4591 86.306 53.9793 84.7229 54.2959C83.1851 54.5673 81.5794 54.6803 79.9058 54.6351V61.8947H91.8468V92.6969H101.481Z" fill="#ED0000"/>
<path d="M143.754 53.1425V45.2045H117.226L112.545 71.461H121.229C122.179 70.1493 123.197 69.1995 124.282 68.6115C125.368 67.9782 126.77 67.6616 128.489 67.6616C129.8 67.6616 130.954 67.8878 131.949 68.3401C132.944 68.7924 133.803 69.4256 134.527 70.2398C135.251 71.0539 135.793 72.0038 136.155 73.0893C136.517 74.1749 136.698 75.3282 136.698 76.5495C136.698 77.7255 136.494 78.8789 136.087 80.0096C135.726 81.0952 135.183 82.0676 134.459 82.927C133.781 83.7412 132.921 84.4197 131.881 84.9624C130.886 85.46 129.755 85.7087 128.489 85.7087C126.317 85.7087 124.531 85.0755 123.129 83.809C121.727 82.4973 120.912 80.756 120.686 78.5849H111.052C111.097 81.0726 111.595 83.2663 112.545 85.166C113.54 87.0204 114.851 88.5809 116.48 89.8474C118.108 91.1138 119.963 92.0637 122.043 92.6969C124.169 93.2849 126.385 93.5789 128.692 93.5789C131.089 93.6241 133.351 93.2397 135.477 92.4255C137.603 91.5661 139.457 90.3675 141.04 88.8297C142.668 87.2918 143.958 85.4826 144.907 83.402C145.857 81.2761 146.332 78.9919 146.332 76.5495C146.332 74.3332 145.993 72.2525 145.314 70.3076C144.681 68.3175 143.731 66.5987 142.465 65.1513C141.244 63.7039 139.728 62.5505 137.919 61.6911C136.11 60.8317 134.029 60.402 131.677 60.402C129.778 60.402 128.081 60.696 126.589 61.284C125.096 61.8268 123.694 62.7541 122.382 64.0658L122.247 63.9301L124.146 53.1425H143.754Z" fill="#ED0000"/>
<path d="M89.9163 31.4387H81.7365C81.7732 30.8879 81.8926 30.3737 82.0945 29.8964C82.2965 29.4006 82.5719 28.9691 82.9208 28.6019C83.2696 28.2347 83.6828 27.9501 84.1601 27.7481C84.6559 27.5278 85.2067 27.4176 85.8126 27.4176C86.4002 27.4176 86.9327 27.5278 87.41 27.7481C87.9058 27.9501 88.3281 28.2347 88.6769 28.6019C89.0442 28.9508 89.3288 29.3731 89.5307 29.8688C89.7511 30.3646 89.8796 30.8879 89.9163 31.4387ZM92.1747 35.4047H89.8612C89.6593 36.3411 89.237 37.0388 88.5943 37.4978C87.97 37.9568 87.1622 38.1864 86.1707 38.1864C85.3995 38.1864 84.7293 38.0578 84.1601 37.8008C83.5909 37.5437 83.1227 37.204 82.7555 36.7817C82.3883 36.3411 82.1221 35.8453 81.9568 35.2945C81.7916 34.7253 81.7181 34.1286 81.7365 33.5043H92.3951C92.4318 32.6413 92.3491 31.7325 92.1472 30.7777C91.9636 29.8229 91.6147 28.9416 91.1006 28.1337C90.6049 27.3258 89.9347 26.6648 89.0901 26.1507C88.2638 25.6182 87.2172 25.352 85.9503 25.352C84.9772 25.352 84.0775 25.5356 83.2513 25.9028C82.4434 26.2701 81.7365 26.7842 81.1306 27.4452C80.543 28.1062 80.084 28.8865 79.7535 29.7862C79.423 30.6859 79.2578 31.6774 79.2578 32.7607C79.2945 33.844 79.4505 34.8447 79.726 35.7627C80.0197 36.6808 80.4512 37.4703 81.0204 38.1313C81.5896 38.7923 82.2873 39.3064 83.1136 39.6736C83.9582 40.0408 84.9497 40.2244 86.088 40.2244C87.7038 40.2244 89.0442 39.8205 90.1091 39.0126C91.174 38.2047 91.8626 37.0021 92.1747 35.4047Z" fill="#ED0000"/>
<path d="M98.65 32.4302L93.3069 39.9215H96.1437L100.11 34.0276L104.076 39.9215H107.078L101.569 32.2374L106.472 25.6825H103.663L100.11 30.6675L96.6945 25.6825H93.6925L98.65 32.4302Z" fill="#ED0000"/>
<path d="M112.326 25.6825V21.4136H109.985V25.6825H107.562V27.7481H109.985V36.8093C109.985 37.4703 110.05 38.0027 110.178 38.4067C110.307 38.8106 110.5 39.1228 110.757 39.3431C111.032 39.5634 111.381 39.7195 111.803 39.8113C112.244 39.8847 112.767 39.9215 113.373 39.9215H115.163V37.8559H114.089C113.722 37.8559 113.419 37.8467 113.18 37.8283C112.96 37.7916 112.786 37.7273 112.657 37.6355C112.528 37.5437 112.437 37.4152 112.382 37.2499C112.345 37.0847 112.326 36.8644 112.326 36.5889V27.7481H115.163V25.6825H112.326Z" fill="#ED0000"/>
<path d="M117.681 25.6825V39.9215H120.022V33.5869C120.022 32.6689 120.114 31.861 120.298 31.1633C120.481 30.4472 120.775 29.8413 121.179 29.3455C121.583 28.8498 122.116 28.4734 122.777 28.2163C123.438 27.9593 124.236 27.8307 125.173 27.8307V25.352C123.906 25.3153 122.859 25.5723 122.033 26.1232C121.207 26.674 120.509 27.5278 119.94 28.6845H119.885V25.6825H117.681Z" fill="#ED0000"/>
<path d="M139.55 39.8664C139.146 40.1051 138.586 40.2244 137.87 40.2244C137.264 40.2244 136.777 40.0592 136.41 39.7287C136.061 39.3798 135.887 38.8198 135.887 38.0486C135.244 38.8198 134.491 39.3798 133.628 39.7287C132.784 40.0592 131.865 40.2244 130.874 40.2244C130.231 40.2244 129.616 40.151 129.029 40.0041C128.46 39.8572 127.964 39.6277 127.541 39.3156C127.119 39.0034 126.779 38.5995 126.522 38.1037C126.284 37.5896 126.164 36.9745 126.164 36.2584C126.164 35.4506 126.302 34.7896 126.578 34.2755C126.853 33.7614 127.211 33.3482 127.652 33.0361C128.111 32.7056 128.625 32.4577 129.194 32.2925C129.781 32.1272 130.378 31.9895 130.984 31.8793C131.627 31.7508 132.233 31.659 132.802 31.6039C133.389 31.5305 133.904 31.4387 134.344 31.3285C134.785 31.2 135.134 31.0256 135.391 30.8052C135.648 30.5665 135.776 30.2269 135.776 29.7862C135.776 29.2721 135.675 28.859 135.473 28.5468C135.29 28.2347 135.042 27.996 134.73 27.8307C134.436 27.6655 134.096 27.5553 133.711 27.5002C133.344 27.4452 132.976 27.4176 132.609 27.4176C131.618 27.4176 130.791 27.6104 130.13 27.996C129.469 28.3632 129.111 29.0701 129.056 30.1167H126.715C126.752 29.2354 126.936 28.4917 127.266 27.8858C127.597 27.2799 128.037 26.7933 128.588 26.4261C129.139 26.0405 129.763 25.7651 130.461 25.5999C131.177 25.4346 131.939 25.352 132.747 25.352C133.389 25.352 134.023 25.3979 134.647 25.4897C135.29 25.5815 135.868 25.7743 136.382 26.0681C136.896 26.3435 137.31 26.7383 137.622 27.2524C137.934 27.7665 138.09 28.4367 138.09 29.2629V36.5889C138.09 37.1398 138.117 37.5437 138.172 37.8008C138.246 38.0578 138.466 38.1864 138.833 38.1864C139.035 38.1864 139.274 38.1405 139.55 38.0486V39.8664ZM135.749 32.5679C135.455 32.7882 135.069 32.9535 134.592 33.0636C134.115 33.1554 133.61 33.2381 133.077 33.3115C132.563 33.3666 132.04 33.44 131.507 33.5318C130.975 33.6053 130.498 33.7338 130.075 33.9174C129.653 34.101 129.304 34.3673 129.029 34.7161C128.772 35.0466 128.643 35.5056 128.643 36.0932C128.643 36.4788 128.717 36.8093 128.863 37.0847C129.029 37.3417 129.231 37.5529 129.469 37.7181C129.726 37.8834 130.02 38.0027 130.351 38.0762C130.681 38.1496 131.03 38.1864 131.397 38.1864C132.168 38.1864 132.829 38.0854 133.38 37.8834C133.931 37.6631 134.381 37.3968 134.73 37.0847C135.079 36.7542 135.336 36.4053 135.501 36.0381C135.666 35.6525 135.749 35.2945 135.749 34.964V32.5679Z" fill="#ED0000"/>
</svg>
