<svg width="451" height="103" viewBox="0 0 451 103" fill="none" xmlns="http://www.w3.org/2000/svg">
<g clip-path="url(#clip0_34_70)">
<path d="M159.98 60.6752C158.257 60.6752 156.842 59.2808 156.842 57.5377V52.9648H161.948V48.6585H156.842V42.7527H146.712V48.6585H143.657V52.9648H146.712V59.1372V59.3423C146.712 62.4182 150.116 64.8995 154.32 64.8995C157.95 64.8995 160.554 63.9357 161.928 63.259V59.978C161.395 60.4291 160.697 60.6752 159.98 60.6752Z" fill="black"/>
<path d="M140.417 48.6585H130.41V63.9767H140.417V48.6585Z" fill="black"/>
<path d="M135.413 46.4233C138.161 46.4233 140.396 44.7828 140.396 42.7321C140.396 40.6815 138.161 39.0615 135.413 39.0615C132.665 39.0615 130.43 40.702 130.43 42.7321C130.43 44.7623 132.665 46.4233 135.413 46.4233Z" fill="black"/>
<path d="M227.446 57.5992H241.533C241.533 57.5992 241.923 53.9081 240.098 51.5704C238.129 49.0686 234.172 47.6127 229.824 47.6127C225.477 47.6127 217.336 48.679 217.336 56.3689C217.336 64.0587 224.903 64.92 229.804 64.92C239.134 64.92 241.267 62.7463 241.267 62.7463V59.6089C238.314 60.5932 235.217 61.0853 232.1 61.0853C226.933 61.0853 227.446 58.1734 227.446 57.5992ZM227.446 54.0106V53.498C227.446 52.1446 228.553 51.0372 229.906 51.0372C231.26 51.0372 232.367 52.1446 232.367 53.498V54.0311V54.0721H227.446V54.0106Z" fill="black"/>
<path d="M205.627 48.1868C203.33 48.1868 201.177 49.2532 199.865 50.1965V40.4765H189.858V63.9767H199.844V56.5329C199.844 55.1795 200.951 54.0722 202.305 54.0722C203.658 54.0722 204.766 55.1795 204.766 56.5329C204.766 56.5329 204.766 56.5329 204.766 56.5534V63.9767H213.911V55.077C213.911 53.457 212.025 48.1868 205.627 48.1868Z" fill="black"/>
<path d="M261.076 48.1868C258.779 48.1868 256.626 49.2532 255.314 50.1964V48.6585H245.307V63.9767H255.293V56.5329C255.293 55.1795 256.401 54.0721 257.754 54.0721C259.107 54.0721 260.215 55.1795 260.215 56.5329C260.215 56.5329 260.215 56.5329 260.215 56.5534V63.9767H269.381V55.077C269.381 53.457 267.474 48.1868 261.076 48.1868Z" fill="black"/>
<path d="M315.971 48.6585H305.964V63.9767H315.971V48.6585Z" fill="black"/>
<path d="M310.968 46.4233C313.716 46.4233 315.951 44.7828 315.951 42.7321C315.951 40.6815 313.716 39.0615 310.968 39.0615C308.22 39.0615 305.985 40.702 305.985 42.7321C305.985 44.7623 308.22 46.4233 310.968 46.4233Z" fill="black"/>
<path d="M291.179 63.9767H303.155L292.389 39H280.413L281.685 41.9324L272.19 63.9767H278.178L280.065 59.5679H289.272L291.179 63.9767ZM282.444 54.0722L284.679 48.8841L286.914 54.0722H282.444Z" fill="black"/>
<path d="M122.392 51.96C121.694 50.2785 120.238 49.0481 118.454 48.6585L125.222 39H116.24L110.19 47.6742C109.719 48.2894 109.001 48.6585 108.222 48.6585C107.955 48.6585 107.771 48.679 107.689 48.6585V39H96V63.9767H107.689V55.2615C108.181 55.0154 108.714 54.8924 109.268 54.8924C110.765 54.8924 112.097 55.7947 112.672 57.1686L115.604 63.9767H127.58L122.392 51.96Z" fill="black"/>
<path d="M180.466 59.4653C177.164 59.4653 174.478 58.44 174.478 56.2458C174.478 54.0516 177.164 53.0468 180.466 53.0468C182.434 53.0468 184.177 53.4159 185.264 54.1747V49.7453C183.049 48.3099 180.014 47.6127 176.631 47.6127C169.925 47.6127 164.491 50.381 164.491 56.2663C164.491 62.1516 169.946 64.92 176.651 64.92C180.014 64.92 183.07 64.2228 185.285 62.7873V58.3375C184.177 59.0962 182.434 59.4653 180.466 59.4653Z" fill="black"/>
<path d="M334.837 40.4354V49.0686C333.258 48.2278 331.515 47.5716 329.239 47.5716C323.456 47.5716 319.252 50.217 319.252 55.7947C319.252 61.3724 323.456 64.0177 329.239 64.0177C331.515 64.0177 333.258 63.3615 334.837 62.5208V63.9357H344.844V40.4354H334.837ZM332.11 58.7271C330.346 58.7271 329.239 57.4147 329.239 55.7947C329.239 54.1747 330.346 52.8623 332.11 52.8623C333.135 52.8828 334.119 53.2929 334.837 54.0106V57.5992C334.119 58.317 333.135 58.7271 332.11 58.7271Z" fill="black"/>
<path d="M352.514 41.6248C352.514 40.8456 351.939 40.4149 351.037 40.4149H349.663V44.4342H350.545V42.8962H350.832L351.898 44.4752L352.821 44.3111L351.734 42.7321C352.227 42.5681 352.534 42.117 352.514 41.6248ZM350.935 42.2605H350.525V41.1121H350.935C351.365 41.1121 351.591 41.3172 351.591 41.6658C351.611 42.0759 351.365 42.2605 350.935 42.2605Z" fill="black"/>
<path d="M350.996 39.0615C349.028 39.0615 347.613 40.4764 347.613 42.5271C347.613 44.5777 349.007 45.9721 350.996 45.9721C352.965 45.9721 354.38 44.5777 354.38 42.5271C354.38 40.4764 352.985 39.0615 350.996 39.0615ZM350.996 45.398C349.479 45.398 348.289 44.3726 348.289 42.5271C348.289 40.6815 349.499 39.6562 350.996 39.6562C352.493 39.6562 353.724 40.6815 353.724 42.5271C353.724 44.3726 352.534 45.398 350.996 45.398Z" fill="black"/>
</g>
<defs>
<clipPath id="clip0_34_70">
<rect width="258.38" height="25.92" fill="white" transform="translate(96 39)"/>
</clipPath>
</defs>
</svg>
