<svg width="451" height="103" viewBox="0 0 451 103" fill="none" xmlns="http://www.w3.org/2000/svg">
<g clip-path="url(#clip0_34_21)">
<path d="M182.563 35.6401C174.197 35.6401 167.831 41.6421 167.831 50.1903C167.831 58.7386 174.197 64.7405 182.563 64.7405C186.565 64.7405 189.656 62.9218 190.93 61.4667V64.3768H197.477V36.0039H190.93V38.9139C189.656 37.4589 186.383 35.6401 182.563 35.6401M182.745 58.7386C177.834 58.7386 174.197 54.9192 174.197 50.1903C174.197 45.4615 178.016 41.6421 182.745 41.6421C187.474 41.6421 191.111 45.4615 191.111 50.1903C191.111 54.9192 187.474 58.7386 182.745 58.7386ZM238.945 35.6401C235.126 35.6401 232.216 37.0952 230.397 38.9139V36.0039H224.031V79.2907L230.397 78.5632V61.2849C232.216 63.2855 235.308 64.5587 238.945 64.5587C247.675 64.5587 253.495 58.9205 253.495 50.0085C253.495 41.2783 247.675 35.6401 238.945 35.6401ZM238.763 58.7386C233.671 58.7386 230.397 55.101 230.397 50.1903C230.397 45.2796 233.671 41.6421 238.763 41.6421C243.856 41.6421 247.312 45.2796 247.312 50.1903C247.13 55.101 243.856 58.7386 238.763 58.7386M302.602 35.6401C298.601 35.6401 296.418 37.0952 295.145 38.9139V36.0039H288.78V64.3768H295.145V48.7353C295.145 44.5521 298.055 41.6421 302.057 41.6421H302.602V35.6401ZM270.592 35.6401C262.226 35.6401 255.678 42.1877 255.678 50.1903C255.678 58.1929 262.226 64.7405 270.592 64.7405C277.503 64.7405 283.141 60.9211 284.96 55.8285H277.321C276.412 57.6473 274.048 58.9205 270.592 58.9205C266.409 58.9205 263.135 56.0104 262.407 52.3729H285.142C285.324 51.6454 285.324 50.9178 285.324 50.1903C285.324 42.1877 278.776 35.6401 270.592 35.6401ZM262.771 46.7347C263.681 43.8246 266.772 41.4602 270.592 41.4602C274.229 41.4602 277.503 43.8246 278.413 46.7347H262.771ZM211.118 41.2783C209.845 41.2783 208.39 41.824 208.39 43.4609C208.39 45.2796 210.209 45.8253 213.664 47.0984C218.393 48.9172 220.757 51.0997 220.757 55.4648C220.757 60.0117 216.938 64.7405 210.39 64.7405C203.843 64.7405 200.387 59.8298 200.205 55.8285H206.389C206.753 57.6473 208.208 59.1023 210.39 59.1023C212.755 59.1023 214.21 57.4654 214.21 55.6467C214.21 54.3735 213.664 52.9185 209.663 51.8272C205.298 50.736 202.206 48.3716 202.206 43.6428C202.206 39.2777 206.025 35.822 210.936 35.822C215.301 35.822 218.029 38.9139 219.302 40.9146L214.028 43.279C213.301 41.824 212.209 41.2783 211.118 41.2783" fill="black"/>
<path d="M148.552 24C136.912 24 128 33.0939 128 44.3703C128 55.6467 136.912 64.7405 148.552 64.7405C156.009 64.7405 162.92 60.7392 166.012 55.101L160.01 51.8272C157.646 56.0104 153.645 58.3748 148.552 58.3748C144.915 58.3748 141.277 56.9198 138.913 54.3735C136.366 51.6454 134.911 48.1897 134.911 44.5521C134.911 40.9146 136.366 37.4589 138.913 34.7308C141.277 32.1845 144.733 30.7295 148.552 30.7295C152.553 30.7295 154.918 32.0026 156.555 33.2757C158.374 34.5489 160.192 35.822 163.284 35.822C168.922 35.822 171.469 31.2751 172.014 28.9107L165.649 27.6375C165.649 27.8194 165.103 29.6382 163.284 29.6382C162.375 29.6382 161.829 29.2744 160.556 28.3651C158.192 26.1825 155.1 24 148.552 24" fill="black"/>
</g>
<defs>
<clipPath id="clip0_34_21">
<rect width="174.602" height="55.2907" fill="white" transform="translate(128 24)"/>
</clipPath>
</defs>
</svg>
