<svg width="451" height="103" viewBox="0 0 451 103" fill="none" xmlns="http://www.w3.org/2000/svg">
<g clip-path="url(#clip0_34_13)">
<path d="M181.252 43.0625C181.472 33.2656 173.805 30 165.044 30C156.94 30 148.178 34.1365 148.178 43.2802C148.178 50.0292 152.997 52.6417 157.816 54.1656C163.511 56.125 167.453 56.3427 167.453 59.3906C167.453 62.0031 164.387 63.3094 161.977 63.3094C160.006 63.3094 158.473 63.0917 157.378 62.2208C156.283 61.1323 155.844 59.826 155.844 57.649H144.017C143.578 67.8813 151.902 72.0177 161.101 72.0177C169.863 72.0177 179.281 67.4458 179.281 57.8667C179.281 53.0771 176.872 49.1583 169.863 46.7635C166.139 45.2396 160.006 45.2396 160.006 42.1917C160.006 39.5792 162.635 38.926 164.825 38.926C166.139 38.926 167.453 39.1438 168.548 39.7969C169.425 40.45 170.082 41.5385 169.863 43.0625H181.252Z" fill="black"/>
<path d="M178.624 71.1469H189.795L193.08 55.6896C193.737 52.6417 195.052 50.0292 198.556 50.0292C200.308 50.0292 201.623 50.9 201.623 52.8594C201.623 53.9479 200.966 55.9073 200.747 57.649L197.899 70.9292H209.07L212.574 54.3833C213.012 52.2062 213.451 50.0292 213.451 48.7229C213.451 43.0625 209.07 40.8854 203.813 40.8854C200.747 40.8854 197.242 42.4094 195.052 45.2396H194.833L197.899 30.6531H186.728L178.624 71.1469Z" fill="black"/>
<path d="M224.402 62.6562C224.402 60.4792 226.155 59.6083 228.126 59.3906C230.097 59.1729 232.288 58.9552 234.04 58.0844C233.383 62.4385 231.85 65.2688 228.126 65.2688C226.155 65.2688 224.402 64.8333 224.402 62.6562ZM227.688 50.6823C228.345 48.5052 229.878 47.6344 232.069 47.6344C233.821 47.6344 235.573 48.0698 235.573 50.2469C235.573 53.9479 230.535 53.2948 227.469 53.5125C219.146 54.1656 213.232 56.125 213.232 63.9625C213.232 69.6229 217.612 71.8 222.65 71.8C225.936 71.8 229.659 70.7115 231.63 68.3167H231.85C231.85 69.1875 232.069 70.276 232.288 71.1469H243.239C243.02 70.4937 242.801 69.6229 242.801 68.5344C242.801 66.575 246.306 53.5125 246.306 48.9406C246.306 41.7563 237.325 41.1031 232.069 41.1031C224.84 41.1031 218.926 42.8448 217.174 50.6823H227.688Z" fill="black"/>
<path d="M246.087 71.1469H257.258L259.886 58.9552C261.2 52.8594 263.61 50.9 268.209 50.9C269.524 50.9 271.057 51.1177 272.59 51.5531L274.78 41.7562C273.685 41.3208 272.59 41.3208 270.838 41.3208C267.99 41.3208 264.267 43.4979 262.295 46.5458H262.076L262.952 41.974H252.001L246.087 71.1469Z" fill="black"/>
<path d="M269.962 71.1469H281.351L283.104 62.874L285.513 60.4792L289.456 71.1469H301.722L294.274 53.7302L307.417 41.974H294.055L285.732 50.4646H285.513L289.675 30.8708H278.504L269.962 71.1469Z" fill="black"/>
<path d="M304.788 67.4458C305.883 67.4458 306.759 68.3167 306.759 69.4052C306.759 70.4938 305.883 71.3646 304.788 71.3646C303.693 71.3646 302.817 70.4938 302.817 69.4052C302.598 68.3167 303.693 67.4458 304.788 67.4458ZM304.788 71.1469C305.664 71.1469 306.321 70.4938 306.321 69.6229C306.321 68.7521 305.664 68.099 304.788 68.099C303.912 68.099 303.255 68.7521 303.255 69.6229C303.036 70.4938 303.912 71.1469 304.788 71.1469ZM303.912 68.5344H304.788C305.445 68.5344 305.664 68.7521 305.664 69.1875C305.664 69.6229 305.445 69.8406 305.007 69.8406L305.664 70.7115H305.226L304.569 69.8406H304.35V70.7115H303.912V68.5344ZM304.35 69.4052H304.788C305.007 69.4052 305.226 69.4052 305.226 69.1875C305.226 68.9698 305.007 68.9698 304.788 68.9698H304.35V69.4052Z" fill="black"/>
</g>
<defs>
<clipPath id="clip0_34_13">
<rect width="163.417" height="42.0177" fill="white" transform="translate(144 30)"/>
</clipPath>
</defs>
</svg>
