<svg width="451" height="103" viewBox="0 0 451 103" fill="none" xmlns="http://www.w3.org/2000/svg">
<g clip-path="url(#clip0_34_26)">
<path d="M164.779 42.6791V72.4369L155.59 74.1187L156.861 75.3254L166.203 73.6308V44.7845L164.779 42.6791Z" fill="black"/>
<path d="M155 19V72.9055L163.701 71.3585V40.2207L183.836 68.0336L189.483 67.4366V24.4303L181.359 23.3391V49.3804L161.891 20.3672L155 19Z" fill="black"/>
<path d="M204.517 65.5238V26.2212L197.721 25.3932V66.3518L204.517 65.5238Z" fill="black"/>
<path d="M217.773 27.5307L212.377 27.0557V64.9269L219.57 64.0924V41.9474L235.207 63.0269L240.911 62.6674V29.3151L233.705 28.7181V48.8862L217.773 27.5307Z" fill="black"/>
<path d="M281.246 49.5473H272.359L276.85 38.0768L281.246 49.5473ZM272.616 30.6245L259.712 61.8266L268.239 61.4735L270.293 55.8249H283.331L285.256 60.7931H293.341L281.214 30.8299L272.616 30.6245Z" fill="black"/>
<path d="M252.172 74.9659C254.336 68.3048 255.42 61.3398 255.381 54.3358V29.912L247.758 29.5526V54.3037C247.758 71.0504 241.707 82.001 241.707 82.001L252.172 74.9659Z" fill="black"/>
<path d="M256.523 54.7594C256.577 61.86 255.48 68.9224 253.276 75.672L253.199 75.8774L241.938 83.4131L243.901 83.8496L254.38 76.7889L254.617 76.147C254.752 75.7811 257.954 67.0772 257.954 54.7337V31.3178L256.529 29.7965L256.523 54.7594Z" fill="black"/>
<path d="M190.657 68.5407L184.356 69.2275L185.267 70.5369L192.081 69.8309V25.9452L190.657 24.9503V68.5407Z" fill="black"/>
<path d="M205.691 66.6279L197.978 67.5586L199.088 68.8359L207.122 67.8924V27.4279L205.691 26.1249V66.6279Z" fill="black"/>
<path d="M243.516 30.8171L242.085 29.1675V63.8036L235.355 64.1951L236.452 65.5623L243.516 65.1451V30.8171Z" fill="black"/>
<path d="M220.654 65.2029L212.274 66.0887L213.397 67.3532L222.079 66.4738V46.5946L220.654 44.2903V65.2029Z" fill="black"/>
<path d="M273.751 49.3162H275.304L277.858 42.5058L277.312 40.195L273.751 49.3162Z" fill="black"/>
<path d="M269.099 62.6353L259.616 63.0012L260.097 64.4454L270.113 64.0218L272.667 56.9867H271.153L269.099 62.6353Z" fill="black"/>
<path d="M282.17 30.6117L294.881 61.9678L285.725 62.0063L286.52 63.412L296.998 63.3992L284.191 31.7992L282.17 30.6117Z" fill="black"/>
<path d="M288.105 33.6157H288.381L288.824 34.2576H289.138L288.683 33.6157C288.803 33.6028 288.914 33.5444 288.992 33.4526C289.071 33.3607 289.112 33.2423 289.106 33.1215C289.09 32.9834 289.02 32.8572 288.913 32.7697C288.805 32.6821 288.667 32.6402 288.529 32.6529H287.823V34.1998H288.086L288.105 33.6157ZM288.105 32.8776H288.541C288.58 32.8716 288.619 32.874 288.656 32.8846C288.694 32.8952 288.729 32.9139 288.758 32.9392C288.788 32.9645 288.811 32.9959 288.828 33.0312C288.844 33.0666 288.852 33.105 288.852 33.1439C288.852 33.1828 288.844 33.2213 288.828 33.2566C288.811 33.292 288.788 33.3234 288.758 33.3487C288.729 33.374 288.694 33.3926 288.656 33.4033C288.619 33.4139 288.58 33.4163 288.541 33.4103H288.105V32.8776Z" fill="black"/>
<path d="M288.426 34.7968C288.803 34.816 289.172 34.6849 289.452 34.4322C289.732 34.1794 289.901 33.8258 289.921 33.4488C289.879 33.0806 289.703 32.7406 289.427 32.4938C289.151 32.247 288.793 32.1106 288.423 32.1106C288.052 32.1106 287.695 32.247 287.418 32.4938C287.142 32.7406 286.966 33.0806 286.924 33.4488C286.946 33.8263 287.116 34.18 287.397 34.4326C287.679 34.6851 288.048 34.8161 288.426 34.7968ZM288.426 32.3191C288.645 32.3402 288.853 32.4244 289.024 32.5613C289.196 32.6983 289.325 32.8822 289.394 33.0908C289.464 33.2993 289.471 33.5236 289.416 33.7363C289.36 33.949 289.245 34.1411 289.082 34.2893C288.92 34.4375 288.718 34.5353 288.501 34.571C288.284 34.6068 288.062 34.5788 287.861 34.4905C287.659 34.4022 287.488 34.2574 287.367 34.0736C287.247 33.8899 287.182 33.6751 287.181 33.4552C287.188 33.2992 287.227 33.1462 287.293 33.005C287.36 32.8637 287.454 32.737 287.569 32.6321C287.685 32.5271 287.82 32.446 287.967 32.3934C288.114 32.3408 288.27 32.3178 288.426 32.3255V32.3191Z" fill="black"/>
</g>
<defs>
<clipPath id="clip0_34_26">
<rect width="141.998" height="64.8496" fill="white" transform="translate(155 19)"/>
</clipPath>
</defs>
</svg>
