<svg width="451" height="103" viewBox="0 0 451 103" fill="none" xmlns="http://www.w3.org/2000/svg">
<g clip-path="url(#clip0_34_10)">
<path d="M169.09 36.6469H190.66V42.9218H176.94V48.3346H189.608V54.6716H176.94V60.6099H190.658V66.8848H169.09V36.6469ZM217.541 57.0717C217.541 59.4719 216.213 60.7947 212.351 60.7947C208.488 60.7947 207.222 59.4415 207.222 57.0717V36.6469H199.403V57.9338C199.403 62.7011 202.339 67.4696 212.382 67.4696C222.487 67.4696 225.421 62.7011 225.421 57.9338V36.6469H217.604V57.0717H217.541ZM270.751 66.8848H278.569V36.6469H270.751V66.8848ZM305.328 51.9348V60.425C303.787 60.6937 302.226 60.8275 300.663 60.8251C296.644 60.8251 295.873 59.4415 295.873 56.8565V46.4283C295.873 43.6294 297.232 42.7053 300.539 42.7053C303.752 42.7053 307.276 43.0446 310.982 43.5674L311.693 37.0456C307.832 36.2772 304.215 36 300.693 36C291.763 36 288.025 39.0153 288.025 45.413V57.9946C288.025 64.0543 291.424 67.4076 300.477 67.4076C304.495 67.4076 308.82 66.8848 312.527 65.8392V51.8741H305.328V51.9348V51.9348ZM137.761 47.0131C137.133 47.014 136.512 47.1381 135.933 47.3784C135.354 47.6187 134.828 47.9705 134.386 48.4135C133.944 48.8565 133.594 49.3821 133.356 49.9601C133.118 50.538 132.997 51.1571 133 51.7817C133 54.3957 135.132 56.5489 137.761 56.5489C138.388 56.5475 139.008 56.4231 139.587 56.1826C140.165 55.9422 140.691 55.5904 141.133 55.1476C141.574 54.7048 141.924 54.1796 142.162 53.602C142.399 53.0244 142.52 52.4058 142.518 51.7817C142.521 51.1573 142.4 50.5385 142.162 49.9607C141.924 49.3828 141.575 48.8574 141.133 48.4144C140.691 47.9714 140.165 47.6196 139.586 47.3792C139.007 47.1387 138.387 47.0143 137.759 47.0131M137.759 36.062C137.132 36.0631 136.512 36.1873 135.933 36.4275C135.354 36.6677 134.829 37.0192 134.387 37.462C133.944 37.9047 133.594 38.4299 133.356 39.0075C133.119 39.5851 132.997 40.2037 133 40.828C133 43.4433 135.131 45.5965 137.758 45.5965C138.385 45.5953 139.006 45.4709 139.585 45.2305C140.164 44.99 140.689 44.6382 141.131 44.1952C141.573 43.7523 141.923 43.2268 142.161 42.649C142.398 42.0712 142.519 41.4524 142.516 40.828C142.519 40.2038 142.398 39.5853 142.16 39.0078C141.922 38.4303 141.572 37.9051 141.13 37.4624C140.688 37.0197 140.163 36.6682 139.584 36.4279C139.006 36.1876 138.385 36.0633 137.758 36.062M137.758 57.9642C137.131 57.9654 136.51 58.0898 135.931 58.3303C135.353 58.5707 134.827 58.9225 134.385 59.3655C133.943 59.8085 133.593 60.3339 133.356 60.9117C133.118 61.4895 132.997 62.1084 133 62.7328C133 65.3468 135.131 67.5 137.758 67.5C138.385 67.4988 139.006 67.3744 139.585 67.1341C140.163 66.8937 140.689 66.542 141.131 66.0992C141.573 65.6563 141.923 65.131 142.16 64.5534C142.398 63.9757 142.519 63.357 142.516 62.7328C142.519 62.1084 142.398 61.4895 142.161 60.9117C141.923 60.3339 141.573 59.8085 141.131 59.3655C140.689 58.9225 140.164 58.5707 139.585 58.3303C139.006 58.0898 138.385 57.9654 137.758 57.9642M161.675 36.6469H152.869L143.937 51.7817L152.867 66.9165H161.643L152.434 51.7817L161.675 36.6469ZM256.475 56.7628L262.624 66.8835H253.849L248.966 58.3325H242.972V66.8835H235.155V36.6469H249.523C257.711 36.6469 260.338 39.8457 260.338 45.3827V49.6284C260.307 53.0425 259.381 55.0413 256.475 56.7641V56.7628ZM252.737 45.7193C252.737 43.7509 251.808 42.9205 249.461 42.9205H242.972V52.1804H249.275C251.779 52.1804 252.737 51.2562 252.737 49.2271V45.7206V45.7193ZM316.39 36.2139C315.278 36.2139 314.381 37.1063 314.381 38.2443C314.381 39.352 315.278 40.2748 316.39 40.2748C317.503 40.2748 318.399 39.352 318.399 38.2443C318.406 37.9785 318.358 37.7142 318.26 37.467C318.161 37.2198 318.014 36.9949 317.826 36.8056C317.639 36.6163 317.415 36.4664 317.168 36.365C316.921 36.2636 316.656 36.2126 316.389 36.2152M316.389 39.9989C316.155 39.998 315.924 39.9511 315.709 39.8608C315.494 39.7705 315.299 39.6386 315.135 39.4727C314.971 39.3069 314.842 39.1104 314.755 38.8945C314.668 38.6787 314.625 38.4478 314.628 38.2153C314.628 37.2304 315.432 36.4621 316.389 36.4621C317.346 36.4621 318.15 37.2621 318.15 38.2153C318.15 39.2002 317.378 39.9989 316.389 39.9989ZM316.512 38.4925H316.048V39.1381H315.771V37.2304H316.514C316.914 37.2304 317.1 37.4153 317.1 37.7229V38.0001C317.1 38.2153 317.038 38.3381 316.821 38.4305L317.346 39.1078H317.007L316.512 38.4925V38.4925ZM316.512 37.476H316.048V38.2457H316.512C316.729 38.2457 316.821 38.1532 316.821 38.0001V37.7229C316.821 37.538 316.729 37.4773 316.512 37.4773" fill="black"/>
</g>
<defs>
<clipPath id="clip0_34_10">
<rect width="185.4" height="31.5" fill="white" transform="translate(133 36)"/>
</clipPath>
</defs>
</svg>
