<svg width="451" height="103" viewBox="0 0 451 103" fill="none" xmlns="http://www.w3.org/2000/svg">
<g clip-path="url(#clip0_34_51)">
<path fill-rule="evenodd" clip-rule="evenodd" d="M123.281 35.4769C122.9 35.6666 120.614 36.6197 119.853 36.6197C119.473 36.6197 118.711 36.2388 117.759 36.049C116.806 35.6666 115.664 35.4769 114.33 35.4769C106.142 35.4769 101 42.7178 101 50.9117C101 56.8171 105.189 64.8227 113.188 64.8227C118.709 64.8227 123.089 61.9649 125.185 56.8185L122.71 55.2948C121.567 57.7731 119.283 60.2485 116.616 60.2485C110.522 60.2485 109.95 51.1029 109.95 46.911C109.95 42.9089 110.331 38.5273 114.139 38.5273C118.138 38.5273 120.614 42.1485 122.136 45.5784L124.802 44.8165L123.281 35.4769ZM144.798 53.7695C144.798 46.1477 138.133 44.2416 132.801 44.2416C130.136 44.2416 127.28 44.8137 127.28 48.0525C127.28 49.9586 128.804 50.9117 130.517 50.9117C132.803 50.9117 134.136 48.8158 134.516 46.9096C136.611 47.0994 137.373 49.1967 137.373 51.1015C132.803 51.8634 125.947 53.3872 125.947 59.4852C125.947 62.724 128.804 64.8213 132.041 64.8213C134.327 64.8213 136.23 64.2492 138.135 62.7254C138.493 63.3684 139.018 63.9026 139.655 64.2715C140.292 64.6405 141.017 64.8304 141.753 64.8213C143.658 64.8213 145.561 64.2492 147.085 63.1063L146.133 60.8192C145.944 61.0104 145.752 61.0104 145.371 61.0104C145.182 61.0104 144.801 60.8192 144.801 60.4383V53.7695H144.798ZM137.371 59.2968C137.371 60.2485 136.42 60.8206 135.467 60.8206C134.134 60.8206 133.753 58.9145 133.753 57.773C133.753 55.6771 134.896 54.1519 137.371 53.5798V59.2968ZM160.223 64.2506V61.584L158.318 61.2016V33.5721L148.987 35.4783V37.7654C149.939 37.9552 150.892 38.1464 150.892 38.9083V61.203L148.987 61.5854V64.252H160.223V64.2506ZM172.6 68.2527L170.695 68.0615V64.0594C171.647 64.4418 172.409 64.8227 173.361 64.8227C179.454 64.8227 181.93 59.2968 181.93 53.5798C181.93 49.1981 180.025 44.243 174.884 44.243C173.171 44.243 171.457 45.0063 170.314 46.5301C170.123 45.577 169.933 44.8151 169.363 44.243L161.555 46.7213V49.007C162.507 49.007 163.459 49.3879 163.459 50.1512V68.0629L161.555 68.2541V70.9208H172.6V68.2527ZM170.697 48.4348C171.078 48.2436 171.267 48.2436 171.459 48.2436C174.315 48.2436 174.696 52.2457 174.696 56.0567C174.696 58.7233 174.125 62.1533 172.221 62.1533C170.697 62.1533 170.697 60.8206 170.697 57.7716V48.4348ZM182.693 35.4769V37.764C183.645 37.9538 184.596 38.1449 184.596 38.9068V61.2016L182.693 61.584V64.2506H193.167V61.584L192.024 61.2016V49.9586C192.024 49.0055 192.976 48.2436 193.928 48.2436C195.832 48.2436 196.404 49.1967 196.404 50.9117V61.2016L195.072 61.584V64.2506H205.546V61.584L203.641 61.2016V50.1498C203.641 46.9096 200.974 44.243 197.547 44.243C195.072 44.243 193.548 45.1961 192.026 46.1491V33.5721L182.693 35.4769ZM225.541 53.7695C225.541 46.1477 218.875 44.2416 213.543 44.2416C210.876 44.2416 207.83 44.8137 207.83 48.0525C207.83 49.9586 209.544 50.9117 211.257 50.9117C213.543 50.9117 214.876 48.8158 215.257 46.9096C217.351 47.0994 217.923 49.1967 218.113 51.1015C213.543 51.8634 206.687 53.3872 206.687 59.4852C206.687 62.724 209.544 64.8213 212.781 64.8213C215.065 64.8213 216.97 64.2492 218.875 62.7254C219.446 64.058 220.969 64.8213 222.493 64.8213C224.396 64.8213 226.301 64.2492 227.825 63.1063L226.873 60.8192C226.682 61.0104 226.491 61.0104 226.111 61.0104C225.729 61.0104 225.541 60.8192 225.541 60.4383V53.7695ZM218.113 59.2968C218.113 60.2485 216.97 60.8206 216.21 60.8206C214.877 60.8206 214.495 58.9145 214.495 57.773C214.495 55.6771 215.637 54.1519 218.113 53.5798V59.2968ZM240.394 64.2506V61.584L238.49 61.2016V33.5721L229.349 35.4783V37.7654C230.3 37.9552 231.255 38.1464 231.255 38.9083V61.203L229.349 61.5854V64.252H240.394V64.2506ZM251.25 44.243C245.344 44.243 241.157 48.2451 241.157 54.5343C241.157 60.8206 245.344 64.8241 251.25 64.8241C256.961 64.8241 261.152 60.8221 261.152 54.5343C261.152 48.2436 256.961 44.243 251.25 44.243ZM251.25 46.9096C253.534 46.9096 253.534 51.4824 253.534 54.5329C253.534 58.7233 253.534 62.1533 251.25 62.1533C248.963 62.1533 248.963 58.7233 248.963 54.5329C248.961 51.4838 248.961 46.9096 251.25 46.9096ZM263.055 46.3389V48.626C264.007 48.8158 264.958 49.007 264.958 49.7689V61.203L263.055 61.5854V64.252H273.529V61.5854L272.196 61.203V49.96C272.196 49.007 273.339 48.2451 274.291 48.2451C276.006 48.2451 276.575 49.1981 276.575 50.9131V61.203L275.432 61.5854V64.252H285.906V61.5854L284 61.203V50.341C284 46.1491 281.334 44.243 277.715 44.243C275.431 44.243 273.528 45.3858 272.004 46.911L271.432 44.243L263.055 46.3389ZM316.755 49.3879C317.134 46.1491 318.467 43.2899 320.945 40.813C321.325 40.4321 321.706 40.2409 322.088 39.8599C322.657 40.2409 323.04 40.4321 323.421 40.813C325.893 43.2899 327.227 46.1491 327.608 49.3879H349.887C349.318 45.196 347.603 41.3851 344.557 38.3361C341.127 34.9062 336.367 33 331.416 33C327.989 33 324.942 33.9531 322.275 35.4783C319.42 33.9531 316.181 33 312.945 33C303.424 33 295.617 40.2409 294.474 49.3879H316.755ZM331.418 36.43C335.417 36.43 339.227 38.145 342.083 40.813C343.604 42.528 344.747 44.243 345.51 46.3389H330.657C329.703 43.2899 328.182 40.6218 325.895 38.3361L325.325 37.7654C327.227 37.0021 329.323 36.43 331.418 36.43ZM302.284 40.813C305.139 38.145 308.947 36.43 312.947 36.43C315.041 36.43 317.134 37.0021 319.04 37.764C316.565 40.0497 314.662 42.9089 313.707 46.3389H298.854C299.618 44.243 300.761 42.528 302.284 40.813ZM327.61 53.5784C327.04 57.3893 325.134 60.8192 322.089 63.1078C321.707 62.9166 321.326 62.5356 320.947 62.1533C318.468 59.6778 317.136 56.8171 316.756 53.5784H294.477C295.046 57.7716 296.761 61.5825 299.807 64.6315C303.237 68.0615 307.997 69.9677 312.948 69.9677C316.184 69.9677 319.423 69.016 322.089 67.4894C324.944 69.016 328.183 69.9677 331.419 69.9677C336.37 69.9677 341.13 68.0615 344.56 64.6315C347.605 61.584 349.32 57.7716 349.89 53.5784H327.61ZM312.947 66.5377C308.947 66.5377 305.138 65.0139 302.284 62.1533C300.761 60.6295 299.618 58.7233 298.854 56.6302H313.707C314.662 59.6778 316.183 62.3444 318.467 64.6315L319.039 65.2037C317.134 65.9656 315.041 66.5377 312.947 66.5377ZM331.418 66.5377C329.323 66.5377 327.227 65.9656 325.324 65.2051L325.893 64.633C328.18 62.3459 329.701 59.6792 330.656 56.6316H345.509C343.414 62.3444 337.893 66.5377 331.418 66.5377ZM283.431 42.147C283.431 40.0511 284.952 38.3361 287.049 38.3361C289.144 38.3361 290.668 40.0511 290.668 42.147C290.668 44.243 289.144 45.9579 287.049 45.9579C284.952 45.9579 283.431 44.243 283.431 42.147ZM287.049 46.7199C289.525 46.7199 291.619 44.8137 291.619 42.147C291.619 39.4804 289.525 37.5742 287.049 37.5742C284.574 37.5742 282.476 39.4804 282.476 42.147C282.476 44.8137 284.574 46.7199 287.049 46.7199ZM286.095 42.528H287.049L288.382 44.8151H289.334L287.81 42.528C288.57 42.3368 289.142 41.9559 289.142 41.0028C289.142 40.0497 288.57 39.479 287.236 39.479H285.333V44.8151H286.093V42.528H286.095ZM286.095 41.7647V40.2409H287.238C287.81 40.2409 288.383 40.2409 288.383 41.0028C288.383 41.7647 287.811 41.7647 287.051 41.7647H286.095Z" fill="black"/>
</g>
<defs>
<clipPath id="clip0_34_51">
<rect width="248.89" height="37.9208" fill="white" transform="translate(101 33)"/>
</clipPath>
</defs>
</svg>
