<svg width="451" height="103" viewBox="0 0 451 103" fill="none" xmlns="http://www.w3.org/2000/svg">
<g clip-path="url(#clip0_34_3)">
<path d="M301.447 51.5265C301.447 47.4439 298.045 44.0418 293.962 44.0418C289.88 44.0418 286.478 47.4439 286.478 51.5265C286.478 53.5678 286.478 66.7227 286.478 66.7227H278.086C278.086 66.7227 278.086 55.8359 278.086 51.5265C278.086 42.6809 285.117 35.6499 293.962 35.6499C302.808 35.6499 309.839 42.6809 309.839 51.5265C309.839 56.0627 309.839 66.7227 309.839 66.7227H301.674C301.447 66.7227 301.447 53.5678 301.447 51.5265Z" fill="black"/>
<path d="M242.703 51.5265C242.703 42.6809 249.734 35.6499 258.58 35.6499C267.426 35.6499 274.457 42.6809 274.457 51.5265C274.457 60.3721 267.426 67.4032 258.58 67.4032C249.961 67.4032 242.703 60.3721 242.703 51.5265ZM258.58 59.0112C262.889 59.0112 266.292 55.6091 266.292 51.2997C266.292 46.9903 262.889 43.5882 258.58 43.5882C254.271 43.5882 250.869 46.9903 250.869 51.2997C251.095 55.6091 254.497 59.238 258.58 59.0112C258.58 59.238 258.58 59.238 258.58 59.0112Z" fill="black"/>
<path d="M223.198 45.8563C222.064 44.949 222.291 43.5882 224.332 43.1346C227.961 42.4541 231.817 43.1346 234.992 44.7222L239.074 39.2788C235.899 37.0107 232.043 35.6499 228.188 35.6499C228.188 35.6499 219.115 34.5158 215.259 41.5469C213.445 45.4027 214.806 49.9389 218.435 52.2069C222.291 54.7019 229.322 55.6091 231.363 56.7431C233.404 57.8772 232.497 59.6917 230.002 60.1453C225.693 60.5989 221.383 59.4649 217.981 57.1968L213.899 62.6402C217.301 65.1351 221.383 66.9496 225.466 67.4032C225.466 67.4032 234.085 68.9908 238.848 62.867C241.569 59.238 241.116 54.0214 237.487 51.2997C237.033 50.8461 236.353 50.6193 235.899 50.3925C231.59 48.1244 225.239 47.2171 223.198 45.8563Z" fill="black"/>
<path d="M183.96 73.0734C186.455 74.6611 189.176 75.7951 191.898 76.0219C200.97 76.2487 201.651 66.7227 201.651 64.4546C199.61 66.2691 196.888 67.4032 194.166 67.4032C185.547 67.4032 178.516 60.5989 178.29 51.9801V51.7533C178.29 47.4439 178.29 36.1035 178.29 36.1035H186.681C186.681 36.1035 186.681 49.712 186.681 51.7533C186.681 55.8359 190.084 59.238 194.166 59.238C198.249 59.238 201.651 55.8359 201.651 51.7533C201.651 49.9388 201.651 36.1035 201.651 36.1035H210.043V51.7533C210.043 65.5887 210.723 79.6509 197.341 83.053C191.218 84.4139 184.64 82.8262 179.65 78.7436L183.96 73.0734Z" fill="black"/>
<path d="M173.98 20H165.588V35.423H157.877C149.031 35.423 142 42.4541 142 51.2997C142 60.1453 149.031 67.1764 157.877 67.1764C166.722 67.1764 173.753 60.1453 173.753 51.2997C173.753 46.9903 173.753 35.423 173.753 35.423L173.98 20ZM165.588 51.5265C165.588 55.6091 162.186 59.0112 157.877 59.0112C153.794 59.0112 150.392 55.6091 150.392 51.2997C150.392 47.2171 153.794 43.815 157.877 43.815H165.361L165.588 51.5265Z" fill="black"/>
</g>
<defs>
<clipPath id="clip0_34_3">
<rect width="167.839" height="63.5298" fill="white" transform="translate(142 20)"/>
</clipPath>
</defs>
</svg>
