<svg width="451" height="103" viewBox="0 0 451 103" fill="none" xmlns="http://www.w3.org/2000/svg">
<g clip-path="url(#clip0_34_54)">
<path fill-rule="evenodd" clip-rule="evenodd" d="M215.629 77.6113V52.6175H228.176C230.238 52.6175 231.807 52.6828 232.879 52.8223C233.955 52.9443 234.866 53.1579 235.616 53.4629C236.779 53.9031 237.69 54.6266 238.335 55.6333C238.997 56.6269 239.329 57.7862 239.329 59.1067C239.329 60.5536 238.893 61.7172 238.021 62.5976C237.158 63.4692 235.79 64.1142 233.92 64.5282C235.982 64.6546 237.555 65.2386 238.64 66.2758C239.738 67.3044 240.287 68.7338 240.287 70.5642C240.287 71.693 240.074 72.6997 239.647 73.5757C239.224 74.4604 238.592 75.2056 237.751 75.8158C236.858 76.4608 235.725 76.9227 234.356 77.206C232.992 77.4762 230.926 77.6113 228.176 77.6113H215.629ZM222.467 57.4114V62.6804H226.734C228.725 62.6804 230.085 62.4799 230.813 62.0702C231.541 61.6649 231.907 60.9589 231.907 59.9522C231.907 59.0065 231.571 58.344 230.9 57.9692C230.225 57.5988 228.834 57.4114 226.734 57.4114H222.467ZM222.467 67.0864V72.7477H227.252C229.536 72.7477 231.07 72.5385 231.854 72.1201C232.639 71.693 233.027 70.939 233.031 69.8669C233.031 68.8384 232.661 68.1237 231.924 67.714C231.192 67.2956 229.641 67.0864 227.252 67.0864H222.467Z" fill="black"/>
<path fill-rule="evenodd" clip-rule="evenodd" d="M248.071 66.0362H257.136C257.101 64.8551 256.683 63.9312 255.89 63.2644C255.096 62.5932 254.02 62.262 252.669 62.262C251.309 62.262 250.22 62.5889 249.413 63.247C248.62 63.9007 248.167 64.8333 248.071 66.0362ZM263.773 71.6407C263.608 73.7457 262.584 75.3451 260.701 76.439C258.831 77.5329 256.164 78.082 252.704 78.082C248.93 78.082 246.023 77.2583 243.988 75.6197C241.948 73.9636 240.928 71.6059 240.928 68.5377C240.928 65.304 241.983 62.7937 244.097 61.02C246.219 59.2288 249.222 58.3354 253.105 58.3354C256.77 58.3354 259.524 59.2506 261.368 61.0766C263.224 62.8852 264.157 65.6004 264.157 69.2132V69.8539H248.041C248.097 71.1918 248.564 72.2509 249.431 73.0266C250.316 73.8067 251.475 74.1946 252.922 74.1946C254.042 74.1946 254.948 73.9723 255.637 73.5191C256.325 73.0571 256.713 72.4295 256.814 71.6407H263.773Z" fill="black"/>
<path fill-rule="evenodd" clip-rule="evenodd" d="M280.195 74.8526C279.419 75.8986 278.29 76.7005 276.813 77.2627C275.331 77.8074 273.566 78.082 271.527 78.082C269.173 78.082 267.351 77.5895 266.066 76.6046C264.785 75.6066 264.148 74.2033 264.148 72.3903C264.148 71.2572 264.392 70.2417 264.889 69.3396C265.382 68.4418 266.101 67.7053 267.042 67.1344C267.792 66.6593 268.833 66.3238 270.171 66.1277C271.522 65.9228 273.653 65.8182 276.556 65.8182H280.012C280.012 65.7441 280.016 65.6526 280.029 65.5437C280.042 65.426 280.047 65.3388 280.047 65.2909C280.047 64.2667 279.746 63.491 279.14 62.9549C278.552 62.4189 277.689 62.153 276.556 62.1487C275.266 62.1487 274.307 62.3317 273.679 62.6978C273.056 63.0508 272.677 63.6304 272.559 64.4323H265.342C265.573 62.3753 266.598 60.863 268.432 59.8868C270.28 58.9019 273.021 58.4094 276.665 58.4094C280.173 58.4094 282.757 58.9934 284.409 60.1614C286.07 61.3294 286.902 63.1423 286.902 65.6003V75.1621C286.902 75.6894 286.928 76.1426 286.976 76.5305C287.037 76.9227 287.133 77.2845 287.268 77.6244H280.644C280.487 77.2845 280.369 76.9184 280.299 76.5131C280.23 76.1121 280.195 75.672 280.195 75.1969V74.8526ZM280.012 69.2481H279.45C276.512 69.2481 274.455 69.4529 273.305 69.8539C272.145 70.2548 271.566 70.9434 271.566 71.9109C271.566 72.6082 271.858 73.1312 272.446 73.4842C273.043 73.8241 273.928 73.9941 275.109 73.9941C276.691 73.9941 277.903 73.6236 278.744 72.8828C279.589 72.1419 280.012 71.0698 280.012 69.6708V69.2481Z" fill="black"/>
<path d="M303.955 65.474C303.803 64.4498 303.384 63.6828 302.709 63.1729C302.033 62.663 301.088 62.4058 299.872 62.4058C298.399 62.4058 297.257 62.9375 296.451 63.9966C295.644 65.0425 295.239 66.5199 295.239 68.4288C295.239 70.159 295.631 71.4838 296.416 72.4077C297.213 73.3186 298.351 73.7762 299.833 73.7762C301.184 73.7762 302.212 73.4842 302.909 72.9002C303.611 72.3032 303.968 71.4402 303.995 70.3071H311.321C311.186 72.9264 310.174 74.8701 308.279 76.1514C306.4 77.4152 303.559 78.0472 299.763 78.0472C295.915 78.0472 292.973 77.2322 290.933 75.6023C288.894 73.9592 287.878 71.6059 287.878 68.5377C287.878 65.304 288.933 62.7981 291.042 61.02C293.165 59.2288 296.167 58.3354 300.05 58.3354C303.402 58.3354 306.012 58.9455 307.882 60.1614C309.765 61.3817 310.828 63.1511 311.068 65.474H303.955Z" fill="black"/>
<path d="M318.995 77.6244H311.887L311.865 52.6H319.03L318.995 61.8611C320.033 60.7062 321.218 59.8389 322.543 59.268C323.863 58.6971 325.354 58.4094 327.01 58.4094C329.49 58.4094 331.455 59.0849 332.906 60.436C334.353 61.7739 335.077 63.5912 335.077 65.8923V77.6244H327.929V66.1843C327.929 65.0294 327.576 64.1534 326.862 63.5564C326.151 62.9462 325.114 62.6455 323.75 62.6455C322.194 62.6455 321.009 63.1075 320.207 64.0314C319.396 64.9553 318.995 66.3107 318.995 68.1019V77.6244Z" fill="black"/>
<path d="M115 25.353H122.03L122.025 34.9453H134.437L134.433 25.353H141.463L141.458 50.2815H134.437V40.1794H122.025V50.2815H115.004L115 25.353Z" fill="black"/>
<path fill-rule="evenodd" clip-rule="evenodd" d="M158.259 47.5185C157.487 48.5644 156.359 49.3707 154.877 49.9285C153.391 50.4776 151.63 50.7478 149.595 50.7478C147.241 50.7478 145.42 50.2597 144.13 49.2704C142.853 48.2724 142.212 46.8691 142.212 45.0561C142.212 43.923 142.461 42.9076 142.953 42.0054C143.45 41.1077 144.165 40.3711 145.106 39.8002C145.856 39.3252 146.897 38.9896 148.239 38.7979C149.586 38.5887 151.717 38.4841 154.624 38.4841H158.076C158.076 38.4143 158.084 38.3228 158.098 38.2139C158.106 38.0918 158.111 38.0047 158.115 37.9567C158.115 36.9326 157.81 36.1568 157.208 35.6208C156.62 35.0847 155.757 34.8189 154.624 34.8189C153.334 34.8189 152.371 35.0019 151.748 35.3636C151.12 35.7167 150.745 36.2963 150.623 37.0982H143.406C143.637 35.0411 144.666 33.5289 146.501 32.5527C148.344 31.5677 151.09 31.0752 154.729 31.0752C158.241 31.0752 160.821 31.6592 162.473 32.8272C164.138 33.9952 164.97 35.8082 164.97 38.2662V47.8279C164.97 48.3552 164.992 48.8085 165.044 49.2007C165.101 49.5842 165.197 49.9503 165.332 50.2946H158.712C158.555 49.9503 158.442 49.5842 158.368 49.1789C158.294 48.778 158.259 48.3422 158.259 47.8671V47.5185ZM158.076 41.9183H157.518C154.576 41.9183 152.523 42.1187 151.369 42.5197C150.209 42.9206 149.63 43.6092 149.63 44.5811C149.63 45.274 149.926 45.8014 150.519 46.15C151.107 46.4899 151.992 46.6599 153.177 46.6599C154.755 46.6599 155.966 46.2938 156.812 45.5486C157.657 44.8034 158.076 43.7356 158.076 42.3367V41.9183Z" fill="black"/>
<path d="M166.748 50.299V35.9564C166.748 34.9976 166.731 34.1739 166.692 33.494C166.657 32.7967 166.6 32.1474 166.53 31.5372H173.53C173.604 32.0384 173.665 32.5439 173.713 33.0538C173.774 33.555 173.826 34.0519 173.874 34.553C174.898 33.4069 176.057 32.5439 177.347 31.96C178.637 31.376 180.045 31.084 181.562 31.084C183.274 31.084 184.691 31.4108 185.811 32.0689C186.948 32.727 187.755 33.6945 188.238 34.9714C189.119 33.6945 190.195 32.727 191.476 32.0689C192.753 31.4108 194.205 31.084 195.835 31.084C198.462 31.084 200.476 31.7726 201.879 33.1454C203.274 34.5095 203.975 36.4793 203.975 39.0593V50.299H196.902V38.8589C196.902 37.7258 196.588 36.8541 195.961 36.2484C195.333 35.6295 194.453 35.3157 193.32 35.3157C191.799 35.3157 190.679 35.7602 189.955 36.6493C189.232 37.5384 188.87 38.9155 188.87 40.7764V50.299H181.871V38.8589C181.871 37.7519 181.549 36.889 180.912 36.2658C180.285 35.6339 179.413 35.3157 178.306 35.3157C176.763 35.3157 175.617 35.7602 174.872 36.6493C174.122 37.5384 173.748 38.9155 173.748 40.7764V50.299H166.748Z" fill="black"/>
<path d="M206.011 31.5372V50.2989H213.123V31.5372H206.011Z" fill="black"/>
<path d="M205.71 25.353V29.3015H213.385V25.353H205.71Z" fill="black"/>
<path d="M215.289 50.2989L215.294 25.353H222.38V50.2989H215.289Z" fill="black"/>
<path d="M232.9 25V31.5895H238.74V36.0391H232.9V43.3608C232.9 44.3327 233.105 45.0082 233.532 45.383C233.964 45.749 234.722 45.9321 235.812 45.9321C236.134 45.9321 236.513 45.919 236.949 45.8972C237.385 45.8711 237.978 45.8231 238.74 45.749V50.312C237.995 50.4689 237.232 50.5909 236.461 50.6781C235.703 50.7609 234.927 50.8045 234.147 50.8045C231.336 50.8045 229.266 50.3207 227.941 49.3663C226.629 48.4031 225.971 46.8996 225.971 44.8556V36.0391H221.7V31.5895H225.971V27.5931L229.75 26.3859C230.22 26.2421 230.713 26.0547 231.231 25.8193C231.763 25.5883 232.316 25.3181 232.9 25Z" fill="black"/>
<path fill-rule="evenodd" clip-rule="evenodd" d="M251.667 46.6643C253.249 46.6643 254.495 46.1456 255.41 45.1128C256.33 44.0668 256.787 42.6417 256.787 40.8418C256.787 39.0157 256.325 37.5732 255.393 36.5185C254.478 35.4595 253.227 34.9322 251.632 34.9322C249.993 34.9322 248.72 35.4421 247.814 36.4619C246.921 37.486 246.476 38.9329 246.476 40.8069C246.476 42.7027 246.916 44.1583 247.797 45.1694C248.69 46.1674 249.98 46.6643 251.667 46.6643ZM251.305 50.8611C247.313 50.8611 244.262 50.0157 242.153 48.3247C240.057 46.6338 239.006 44.1888 239.006 40.9856C239.006 37.8129 240.083 35.3811 242.244 33.6901C244.402 31.9992 247.522 31.1537 251.597 31.1537C255.693 31.1537 258.827 32.0035 260.984 33.7075C263.142 35.4116 264.222 37.8608 264.222 41.0597C264.222 44.3109 263.137 46.7558 260.967 48.3944C258.805 50.0418 255.585 50.8611 251.305 50.8611Z" fill="black"/>
<path d="M265.303 50.299V35.9564C265.303 34.9976 265.281 34.1739 265.247 33.494C265.212 32.7967 265.155 32.1474 265.085 31.5372H272.233C272.289 32.0253 272.333 32.5222 272.359 33.019C272.394 33.5158 272.411 34.0213 272.411 34.5312C273.531 33.3415 274.739 32.4699 276.029 31.9251C277.319 31.3629 278.787 31.084 280.422 31.084C282.958 31.084 284.937 31.7726 286.357 33.1454C287.782 34.5095 288.493 36.4009 288.493 38.8196V50.299H281.35V39.1683C281.35 37.9044 281.014 36.95 280.352 36.305C279.689 35.6469 278.709 35.3157 277.423 35.3157C275.737 35.3157 274.473 35.769 273.645 36.6667C272.821 37.5558 272.411 38.9242 272.411 40.7764V50.299H265.303Z" fill="black"/>
</g>
<defs>
<clipPath id="clip0_34_54">
<rect width="220.077" height="53.082" fill="white" transform="translate(115 25)"/>
</clipPath>
</defs>
</svg>
