<svg width="451" height="103" viewBox="0 0 451 103" fill="none" xmlns="http://www.w3.org/2000/svg">
<g clip-path="url(#clip0_34_47)">
<path d="M217.946 42.9876H227.05V68.0829H217.829V42.9876H217.946ZM182.112 42.9876H191.333V68.0829H182.112V42.9876ZM238.139 46.0224H238.256C240.123 43.5712 243.041 42.1706 246.076 42.2873C254.363 42.2873 257.165 46.606 257.165 52.909V68.1997H248.06V53.3759C248.06 50.4579 246.193 49.0572 243.508 49.0572C240.707 49.0572 238.956 50.4579 238.956 53.3759V68.0829H229.852V42.9876H238.256V46.0224H238.139ZM150.947 43.9214C148.729 42.5207 146.162 41.7037 143.594 41.4702C136.707 41.4702 131.921 45.5555 131.921 51.1582C131.921 56.8776 136.474 61.0796 143.594 61.0796C146.278 60.9629 148.846 60.0291 151.181 58.6284L149.897 67.4993C147.679 68.3164 145.228 68.6666 142.893 68.7833C130.637 68.9 122 61.8967 122 51.5084C122 41.587 130.637 34 142.893 34C145.111 34 147.445 34.3502 149.546 35.0505L150.947 43.9214ZM170.673 42.9876H179.894V68.0829H171.49V64.698H171.374C169.623 68.0829 166.004 68.9 163.553 68.9C155.266 68.9 152.465 64.5813 152.465 58.2783V43.1043H161.686V57.6946C161.686 60.6127 163.553 62.0134 166.238 62.0134C169.039 62.0134 170.79 60.6127 170.79 57.6946L170.673 42.9876ZM196.936 60.2625C198.803 61.7799 201.138 62.597 203.589 62.4803C205.106 62.4803 207.791 62.2468 207.791 60.496C207.791 57.111 193.668 60.496 193.668 50.3411C193.668 44.7385 199.154 42.1706 205.106 42.1706C208.725 42.2873 212.226 43.4545 215.144 45.6722L210.125 49.8742C208.725 49.0572 206.974 48.4736 205.34 48.4736C204.289 48.4736 202.188 48.707 202.188 49.991C202.188 54.193 216.312 49.991 216.312 60.3793C216.312 65.8652 210.359 68.7833 204.406 68.7833C199.27 68.7833 196.352 67.9662 192.384 65.3983L196.936 60.2625ZM264.051 43.3378C266.736 42.6375 269.537 42.2873 272.338 42.2873C279.809 42.2873 285.061 44.8552 285.061 51.0415V68.0829H277.007V65.9819H276.891C275.14 68.1997 272.455 68.7833 269.42 68.7833C262.534 68.7833 258.915 65.0482 258.915 59.7957C258.915 54.6599 263.934 51.6251 269.771 51.6251C272.222 51.6251 274.556 52.3254 276.657 53.4926C276.774 53.2592 276.774 52.909 276.774 52.6756C276.774 49.2906 274.79 48.4736 270.938 48.4736C268.253 48.4736 265.569 49.0572 263.001 49.991L264.051 43.3378ZM271.988 63.0639C274.439 63.0639 276.54 61.7799 276.54 59.7957C276.54 57.8114 274.556 56.5274 271.988 56.5274C269.42 56.5274 267.436 57.8114 267.436 59.7957C267.319 61.8967 269.42 63.0639 271.988 63.0639ZM287.396 42.9876H295.566V47.3064H295.683C297.434 42.9876 300.702 42.6375 305.721 42.6375V49.7575C301.169 49.6408 296.617 51.2749 296.617 55.01V68.0829H287.396V42.9876ZM326.965 61.6632L325.681 68.9H324.513C316.343 68.9 312.141 65.7485 312.141 58.9786V49.7575H306.772V42.8709H312.024V38.4355L321.245 35.5174V42.8709H326.498V49.7575H321.245V58.5117C321.245 60.9629 323.113 61.6632 325.564 61.6632H326.965ZM182.229 35.8676H191.216V41.0033H182.229V35.8676ZM217.829 35.8676H226.817V41.0033H217.829V35.8676Z" fill="black"/>
<path d="M323.93 55.1267C323.93 53.7261 325.214 52.5588 326.614 52.5588C328.015 52.5588 329.182 53.8428 329.182 55.2435C329.182 56.6441 328.015 57.8114 326.614 57.8114C325.214 57.8114 324.047 56.6441 324.047 55.2435C323.93 55.2435 323.93 55.2435 323.93 55.1267M326.614 58.395C328.365 58.395 329.883 56.8776 329.883 55.1267C329.883 53.3759 328.365 51.8585 326.614 51.8585C324.864 51.8585 323.346 53.3759 323.346 55.1267C323.346 56.9943 324.747 58.395 326.614 58.395ZM325.914 55.4769H326.614L327.548 57.111H328.249L327.198 55.4769C327.665 55.4769 328.132 55.1267 328.132 54.5431V54.4264C328.132 53.7261 327.665 53.3759 326.848 53.3759H325.447V57.111H326.031L325.914 55.4769ZM325.914 54.8933V53.7261H326.731C327.081 53.7261 327.548 53.8428 327.548 54.3097C327.548 54.8933 327.081 54.8933 326.731 54.8933H325.914Z" fill="black"/>
</g>
<defs>
<clipPath id="clip0_34_47">
<rect width="207.883" height="34.9" fill="white" transform="translate(122 34)"/>
</clipPath>
</defs>
</svg>
