<svg width="1400" height="550" viewBox="0 0 1400 550" fill="none" xmlns="http://www.w3.org/2000/svg">
<rect x="72" y="320" width="166.909" height="48" rx="4" fill="#E80000"/>
<path d="M117.516 340.911H119.331C119.305 340.118 119.15 339.439 118.867 338.874C118.599 338.296 118.222 337.818 117.738 337.442C117.267 337.065 116.716 336.79 116.084 336.615C115.452 336.44 114.766 336.353 114.026 336.353C113.368 336.353 112.722 336.44 112.09 336.615C111.471 336.776 110.913 337.032 110.416 337.381C109.932 337.718 109.542 338.155 109.246 338.693C108.95 339.217 108.802 339.842 108.802 340.568C108.802 341.227 108.93 341.779 109.185 342.222C109.454 342.653 109.804 343.009 110.234 343.291C110.678 343.56 111.176 343.782 111.727 343.957C112.278 344.118 112.836 344.266 113.401 344.401C113.979 344.522 114.544 344.643 115.096 344.764C115.647 344.885 116.138 345.046 116.568 345.248C117.012 345.436 117.361 345.685 117.617 345.994C117.886 346.304 118.02 346.707 118.02 347.205C118.02 347.729 117.913 348.159 117.698 348.496C117.482 348.832 117.2 349.101 116.85 349.302C116.501 349.491 116.104 349.625 115.66 349.706C115.23 349.787 114.8 349.827 114.369 349.827C113.831 349.827 113.307 349.76 112.796 349.625C112.285 349.491 111.835 349.282 111.445 349C111.068 348.717 110.759 348.361 110.517 347.931C110.288 347.487 110.174 346.963 110.174 346.357H108.358C108.358 347.232 108.513 347.991 108.822 348.637C109.145 349.269 109.575 349.793 110.113 350.21C110.665 350.614 111.297 350.916 112.009 351.118C112.736 351.32 113.502 351.42 114.309 351.42C114.968 351.42 115.627 351.34 116.286 351.178C116.958 351.03 117.563 350.788 118.101 350.452C118.639 350.103 119.076 349.659 119.412 349.121C119.762 348.57 119.937 347.911 119.937 347.144C119.937 346.431 119.802 345.84 119.533 345.369C119.278 344.898 118.928 344.508 118.484 344.199C118.054 343.89 117.563 343.648 117.012 343.473C116.46 343.285 115.896 343.123 115.317 342.989C114.753 342.854 114.195 342.733 113.643 342.626C113.092 342.505 112.594 342.357 112.151 342.182C111.72 342.007 111.371 341.785 111.102 341.516C110.846 341.234 110.718 340.871 110.718 340.427C110.718 339.957 110.806 339.567 110.981 339.257C111.169 338.935 111.411 338.679 111.707 338.491C112.016 338.303 112.366 338.168 112.756 338.087C113.146 338.007 113.542 337.966 113.946 337.966C114.941 337.966 115.754 338.202 116.386 338.672C117.032 339.13 117.408 339.876 117.516 340.911ZM121.983 336.696V351.098H123.697V345.208C123.697 344.737 123.758 344.307 123.879 343.917C124.013 343.513 124.208 343.164 124.464 342.868C124.719 342.572 125.035 342.343 125.412 342.182C125.802 342.021 126.259 341.94 126.783 341.94C127.442 341.94 127.96 342.128 128.337 342.505C128.713 342.881 128.901 343.392 128.901 344.038V351.098H130.616V344.24C130.616 343.675 130.555 343.164 130.434 342.707C130.327 342.236 130.132 341.832 129.849 341.496C129.567 341.16 129.197 340.898 128.74 340.71C128.283 340.521 127.711 340.427 127.025 340.427C126.716 340.427 126.393 340.461 126.057 340.528C125.734 340.595 125.418 340.703 125.109 340.851C124.813 340.985 124.544 341.167 124.302 341.395C124.06 341.611 123.872 341.88 123.738 342.202H123.697V336.696H121.983ZM134.442 345.894C134.442 345.262 134.522 344.703 134.684 344.219C134.858 343.722 135.094 343.305 135.39 342.969C135.685 342.633 136.028 342.377 136.418 342.202C136.822 342.027 137.245 341.94 137.689 341.94C138.133 341.94 138.55 342.027 138.94 342.202C139.343 342.377 139.693 342.633 139.989 342.969C140.284 343.305 140.513 343.722 140.674 344.219C140.849 344.703 140.937 345.262 140.937 345.894C140.937 346.526 140.849 347.09 140.674 347.588C140.513 348.072 140.284 348.482 139.989 348.818C139.693 349.141 139.343 349.39 138.94 349.565C138.55 349.739 138.133 349.827 137.689 349.827C137.245 349.827 136.822 349.739 136.418 349.565C136.028 349.39 135.685 349.141 135.39 348.818C135.094 348.482 134.858 348.072 134.684 347.588C134.522 347.09 134.442 346.526 134.442 345.894ZM132.626 345.894C132.626 346.66 132.734 347.373 132.949 348.032C133.164 348.691 133.487 349.269 133.917 349.766C134.347 350.25 134.879 350.634 135.511 350.916C136.143 351.185 136.869 351.32 137.689 351.32C138.523 351.32 139.249 351.185 139.868 350.916C140.5 350.634 141.031 350.25 141.461 349.766C141.891 349.269 142.214 348.691 142.429 348.032C142.644 347.373 142.752 346.66 142.752 345.894C142.752 345.127 142.644 344.414 142.429 343.755C142.214 343.083 141.891 342.505 141.461 342.021C141.031 341.523 140.5 341.133 139.868 340.851C139.249 340.568 138.523 340.427 137.689 340.427C136.869 340.427 136.143 340.568 135.511 340.851C134.879 341.133 134.347 341.523 133.917 342.021C133.487 342.505 133.164 343.083 132.949 343.755C132.734 344.414 132.626 345.127 132.626 345.894ZM144.834 340.669V355.071H146.549V349.706H146.589C146.777 350.015 147.006 350.277 147.275 350.493C147.557 350.694 147.853 350.856 148.162 350.977C148.472 351.098 148.781 351.185 149.09 351.239C149.413 351.293 149.702 351.32 149.957 351.32C150.751 351.32 151.443 351.178 152.035 350.896C152.64 350.614 153.138 350.23 153.528 349.746C153.931 349.249 154.227 348.67 154.415 348.011C154.617 347.353 154.718 346.653 154.718 345.914C154.718 345.174 154.617 344.475 154.415 343.816C154.214 343.157 153.911 342.579 153.508 342.081C153.118 341.57 152.62 341.167 152.015 340.871C151.423 340.575 150.724 340.427 149.917 340.427C149.191 340.427 148.525 340.562 147.92 340.831C147.315 341.086 146.871 341.503 146.589 342.081H146.549V340.669H144.834ZM152.902 345.793C152.902 346.304 152.849 346.801 152.741 347.285C152.633 347.769 152.459 348.2 152.217 348.576C151.975 348.953 151.652 349.255 151.248 349.484C150.858 349.713 150.368 349.827 149.776 349.827C149.184 349.827 148.68 349.719 148.263 349.504C147.846 349.276 147.503 348.98 147.234 348.617C146.979 348.254 146.791 347.837 146.67 347.366C146.549 346.882 146.488 346.384 146.488 345.873C146.488 345.389 146.542 344.912 146.649 344.441C146.77 343.971 146.959 343.554 147.214 343.191C147.47 342.814 147.799 342.512 148.203 342.283C148.606 342.054 149.097 341.94 149.675 341.94C150.226 341.94 150.704 342.048 151.107 342.263C151.524 342.478 151.86 342.767 152.116 343.13C152.385 343.493 152.58 343.91 152.701 344.381C152.835 344.838 152.902 345.309 152.902 345.793ZM162.607 336.696V351.098H164.422V339.54H164.462L171.986 351.098H174.084V336.696H172.268V348.375H172.228L164.644 336.696H162.607ZM178.152 345.894C178.152 345.262 178.233 344.703 178.394 344.219C178.569 343.722 178.804 343.305 179.1 342.969C179.396 342.633 179.739 342.377 180.129 342.202C180.532 342.027 180.956 341.94 181.399 341.94C181.843 341.94 182.26 342.027 182.65 342.202C183.053 342.377 183.403 342.633 183.699 342.969C183.995 343.305 184.223 343.722 184.385 344.219C184.56 344.703 184.647 345.262 184.647 345.894C184.647 346.526 184.56 347.09 184.385 347.588C184.223 348.072 183.995 348.482 183.699 348.818C183.403 349.141 183.053 349.39 182.65 349.565C182.26 349.739 181.843 349.827 181.399 349.827C180.956 349.827 180.532 349.739 180.129 349.565C179.739 349.39 179.396 349.141 179.1 348.818C178.804 348.482 178.569 348.072 178.394 347.588C178.233 347.09 178.152 346.526 178.152 345.894ZM176.337 345.894C176.337 346.66 176.444 347.373 176.659 348.032C176.874 348.691 177.197 349.269 177.627 349.766C178.058 350.25 178.589 350.634 179.221 350.916C179.853 351.185 180.579 351.32 181.399 351.32C182.233 351.32 182.959 351.185 183.578 350.916C184.21 350.634 184.741 350.25 185.171 349.766C185.602 349.269 185.924 348.691 186.14 348.032C186.355 347.373 186.462 346.66 186.462 345.894C186.462 345.127 186.355 344.414 186.14 343.755C185.924 343.083 185.602 342.505 185.171 342.021C184.741 341.523 184.21 341.133 183.578 340.851C182.959 340.568 182.233 340.427 181.399 340.427C180.579 340.427 179.853 340.568 179.221 340.851C178.589 341.133 178.058 341.523 177.627 342.021C177.197 342.505 176.874 343.083 176.659 343.755C176.444 344.414 176.337 345.127 176.337 345.894ZM198.811 351.098L202.14 340.669H200.365L198.025 349.202H197.984L195.806 340.669H193.93L191.832 349.202H191.792L189.432 340.669H187.536L190.884 351.098H192.74L194.838 342.807H194.878L196.996 351.098H198.811Z" fill="white"/>
<path d="M117.693 152.046V107.425H111.762V115.803H111.574C111.009 114.485 110.193 113.23 109.126 112.037C108.122 110.845 106.961 109.809 105.643 108.931C104.325 107.989 102.85 107.268 101.218 106.766C99.6495 106.263 97.955 106.012 96.135 106.012C92.6205 106.012 89.4825 106.671 86.7211 107.989C84.0225 109.245 81.7318 111.002 79.849 113.261C78.029 115.458 76.6169 118.062 75.6128 121.075C74.6714 124.024 74.2007 127.162 74.2007 130.488C74.2007 133.94 74.6086 137.204 75.4245 140.279C76.2404 143.291 77.5269 145.927 79.2842 148.187C81.1042 150.446 83.3949 152.234 86.1563 153.552C88.9177 154.808 92.2439 155.435 96.135 155.435C99.7122 155.435 102.819 154.525 105.455 152.705C108.153 150.885 110.193 148.469 111.574 145.456H111.762V152.046C111.762 157.946 110.538 162.464 108.091 165.602C105.643 168.74 101.658 170.309 96.135 170.309C94.5033 170.309 92.9029 170.121 91.3339 169.744C89.7649 169.43 88.3215 168.897 87.0035 168.144C85.7484 167.391 84.6501 166.387 83.7087 165.131C82.8301 163.939 82.2339 162.433 81.9201 160.613H75.9893C76.1776 163.186 76.868 165.382 78.0604 167.202C79.3156 169.085 80.8532 170.623 82.6732 171.815C84.5559 173.008 86.6584 173.886 88.9805 174.451C91.3025 175.016 93.6874 175.298 96.135 175.298C100.089 175.298 103.415 174.765 106.114 173.698C108.875 172.631 111.103 171.094 112.798 169.085C114.492 167.077 115.716 164.629 116.469 161.742C117.285 158.856 117.693 155.623 117.693 152.046ZM96.135 150.446C93.3736 150.446 90.9887 149.912 88.9805 148.845C86.9722 147.716 85.3091 146.272 83.9911 144.515C82.6732 142.695 81.7004 140.624 81.0728 138.302C80.4452 135.98 80.1314 133.595 80.1314 131.147C80.1314 128.637 80.4139 126.189 80.9787 123.805C81.6063 121.357 82.579 119.192 83.897 117.309C85.2149 115.426 86.878 113.92 88.8863 112.79C90.8946 111.598 93.3108 111.002 96.135 111.002C98.9591 111.002 101.344 111.598 103.29 112.79C105.298 113.983 106.93 115.552 108.185 117.497C109.44 119.443 110.35 121.608 110.915 123.993C111.48 126.378 111.762 128.763 111.762 131.147C111.762 133.595 111.417 135.98 110.726 138.302C110.099 140.624 109.126 142.695 107.808 144.515C106.49 146.272 104.858 147.716 102.913 148.845C100.967 149.912 98.7081 150.446 96.135 150.446ZM126.134 107.425V156H132.064V130.112C132.064 127.539 132.504 125.185 133.382 123.052C134.261 120.855 135.485 118.972 137.054 117.403C138.685 115.834 140.6 114.642 142.796 113.826C144.993 112.947 147.44 112.571 150.139 112.696V106.766C145.746 106.577 141.949 107.55 138.748 109.684C135.61 111.818 133.288 114.861 131.782 118.815H131.594V107.425H126.134ZM186.274 128.323H154.832C155.083 126.127 155.585 123.993 156.338 121.922C157.154 119.788 158.221 117.937 159.539 116.368C160.857 114.736 162.457 113.449 164.34 112.508C166.223 111.504 168.388 111.002 170.835 111.002C173.22 111.002 175.354 111.504 177.237 112.508C179.12 113.449 180.72 114.736 182.038 116.368C183.356 117.937 184.36 119.757 185.05 121.828C185.803 123.899 186.211 126.064 186.274 128.323ZM154.832 133.313H192.205C192.33 129.924 192.017 126.597 191.263 123.334C190.51 120.008 189.255 117.089 187.498 114.579C185.803 112.006 183.575 109.935 180.814 108.366C178.053 106.797 174.726 106.012 170.835 106.012C167.007 106.012 163.681 106.766 160.857 108.272C158.095 109.715 155.836 111.661 154.079 114.108C152.321 116.493 151.004 119.223 150.125 122.298C149.309 125.374 148.901 128.512 148.901 131.712C148.901 135.164 149.309 138.459 150.125 141.597C151.004 144.672 152.321 147.402 154.079 149.787C155.836 152.109 158.095 153.96 160.857 155.341C163.681 156.659 167.007 157.318 170.835 157.318C176.986 157.318 181.724 155.812 185.05 152.799C188.439 149.787 190.761 145.519 192.017 139.996H186.086C185.144 143.762 183.45 146.774 181.002 149.034C178.555 151.293 175.166 152.423 170.835 152.423C168.011 152.423 165.595 151.827 163.587 150.634C161.578 149.442 159.915 147.935 158.597 146.115C157.279 144.295 156.307 142.256 155.679 139.996C155.114 137.674 154.832 135.446 154.832 133.313ZM196.776 122.298H202.706C202.832 118.345 204.087 115.489 206.472 113.732C208.857 111.912 211.932 111.002 215.698 111.002C217.455 111.002 219.087 111.159 220.593 111.472C222.162 111.724 223.511 112.226 224.641 112.979C225.833 113.732 226.743 114.767 227.371 116.085C228.061 117.34 228.406 118.972 228.406 120.98C228.406 122.298 228.218 123.365 227.841 124.181C227.528 124.997 227.057 125.656 226.429 126.158C225.802 126.597 225.017 126.911 224.076 127.099C223.134 127.288 222.036 127.445 220.781 127.57C217.58 127.947 214.411 128.355 211.273 128.794C208.198 129.171 205.405 129.861 202.895 130.865C200.447 131.869 198.47 133.344 196.964 135.29C195.458 137.172 194.705 139.808 194.705 143.197C194.705 145.645 195.113 147.779 195.928 149.599C196.807 151.356 197.968 152.831 199.412 154.023C200.918 155.153 202.644 155.969 204.589 156.471C206.597 157.036 208.731 157.318 210.991 157.318C213.375 157.318 215.415 157.098 217.11 156.659C218.867 156.22 220.404 155.592 221.722 154.776C223.103 153.96 224.327 152.956 225.394 151.764C226.523 150.509 227.622 149.097 228.689 147.528H228.877C228.877 148.783 228.94 149.944 229.065 151.011C229.253 152.015 229.599 152.893 230.101 153.647C230.603 154.4 231.293 154.996 232.172 155.435C233.113 155.812 234.337 156 235.843 156C236.659 156 237.318 155.969 237.82 155.906C238.385 155.843 239.012 155.749 239.703 155.623V150.634C239.138 150.885 238.51 151.011 237.82 151.011C235.498 151.011 234.337 149.818 234.337 147.433V121.639C234.337 118.376 233.803 115.74 232.737 113.732C231.67 111.661 230.289 110.06 228.595 108.931C226.9 107.801 224.986 107.048 222.852 106.671C220.718 106.232 218.584 106.012 216.451 106.012C213.626 106.012 211.053 106.326 208.731 106.954C206.409 107.581 204.37 108.554 202.612 109.872C200.918 111.19 199.568 112.885 198.564 114.956C197.56 117.027 196.964 119.474 196.776 122.298ZM228.406 129.453V137.172C228.406 139.557 227.936 141.691 226.994 143.574C226.116 145.456 224.892 147.057 223.323 148.375C221.817 149.693 220.028 150.697 217.957 151.387C215.886 152.078 213.721 152.423 211.461 152.423C210.081 152.423 208.731 152.203 207.413 151.764C206.095 151.324 204.934 150.697 203.93 149.881C202.926 149.002 202.11 147.998 201.483 146.869C200.918 145.676 200.635 144.327 200.635 142.821C200.635 140.436 201.326 138.616 202.706 137.361C204.15 136.043 205.97 135.038 208.166 134.348C210.363 133.658 212.779 133.156 215.415 132.842C218.114 132.465 220.718 132.057 223.229 131.618C224.044 131.493 224.986 131.273 226.053 130.959C227.12 130.645 227.841 130.143 228.218 129.453H228.406ZM252.746 107.425V92.8331H246.815V107.425H238.343V112.414H246.815V145.645C246.753 149.787 247.506 152.642 249.075 154.211C250.644 155.718 253.405 156.471 257.359 156.471C258.238 156.471 259.116 156.439 259.995 156.377C260.873 156.314 261.752 156.282 262.631 156.282V151.293C260.936 151.481 259.242 151.575 257.547 151.575C255.413 151.45 254.064 150.854 253.499 149.787C252.997 148.657 252.746 147.12 252.746 145.174V112.414H262.631V107.425H252.746ZM310.474 112.414V107.425H300.872V103.188C300.872 101.87 300.903 100.647 300.966 99.5169C301.028 98.3872 301.248 97.4145 301.625 96.5986C302.064 95.72 302.723 95.0296 303.602 94.5275C304.48 94.0255 305.735 93.7744 307.367 93.7744C308.057 93.7744 308.748 93.8372 309.438 93.9627C310.129 94.0255 310.882 94.1196 311.697 94.2451V89.1616C310.756 89.0361 309.909 88.942 309.156 88.8792C308.403 88.8165 307.587 88.7851 306.708 88.7851C304.323 88.7851 302.346 89.1303 300.777 89.8206C299.271 90.511 298.079 91.4837 297.2 92.7389C296.322 93.9941 295.725 95.5003 295.412 97.2576C295.098 99.0148 294.941 100.929 294.941 103V107.425H286.657V112.414H294.941V156H300.872V112.414H310.474ZM333.8 111.002C336.624 111.002 339.103 111.598 341.237 112.79C343.371 113.983 345.128 115.552 346.509 117.497C347.952 119.443 349.019 121.671 349.71 124.181C350.463 126.629 350.839 129.139 350.839 131.712C350.839 134.285 350.463 136.827 349.71 139.337C349.019 141.785 347.952 143.982 346.509 145.927C345.128 147.873 343.371 149.442 341.237 150.634C339.103 151.827 336.624 152.423 333.8 152.423C330.976 152.423 328.497 151.827 326.363 150.634C324.229 149.442 322.441 147.873 320.997 145.927C319.617 143.982 318.55 141.785 317.797 139.337C317.106 136.827 316.761 134.285 316.761 131.712C316.761 129.139 317.106 126.629 317.797 124.181C318.55 121.671 319.617 119.443 320.997 117.497C322.441 115.552 324.229 113.983 326.363 112.79C328.497 111.598 330.976 111.002 333.8 111.002ZM333.8 106.012C330.097 106.012 326.803 106.703 323.916 108.083C321.091 109.464 318.707 111.316 316.761 113.638C314.816 115.96 313.341 118.69 312.337 121.828C311.332 124.903 310.83 128.198 310.83 131.712C310.83 135.227 311.332 138.553 312.337 141.691C313.341 144.766 314.816 147.465 316.761 149.787C318.707 152.109 321.091 153.96 323.916 155.341C326.803 156.659 330.097 157.318 333.8 157.318C337.503 157.318 340.766 156.659 343.591 155.341C346.478 153.96 348.894 152.109 350.839 149.787C352.785 147.465 354.26 144.766 355.264 141.691C356.268 138.553 356.77 135.227 356.77 131.712C356.77 128.198 356.268 124.903 355.264 121.828C354.26 118.69 352.785 115.96 350.839 113.638C348.894 111.316 346.478 109.464 343.591 108.083C340.766 106.703 337.503 106.012 333.8 106.012ZM362.763 107.425V156H368.694V130.112C368.694 127.539 369.133 125.185 370.012 123.052C370.891 120.855 372.114 118.972 373.683 117.403C375.315 115.834 377.229 114.642 379.426 113.826C381.622 112.947 384.07 112.571 386.769 112.696V106.766C382.375 106.577 378.578 107.55 375.378 109.684C372.24 111.818 369.918 114.861 368.412 118.815H368.223V107.425H362.763Z" fill="#252525"/>
<path d="M430.771 144.515C428.7 144.515 426.974 144.076 425.593 143.197C424.213 142.319 423.083 141.189 422.204 139.808C421.388 138.427 420.792 136.89 420.416 135.195C420.102 133.438 419.945 131.681 419.945 129.924C419.945 128.104 420.133 126.378 420.51 124.746C420.949 123.052 421.608 121.577 422.487 120.322C423.428 119.004 424.558 117.968 425.876 117.215C427.256 116.462 428.888 116.085 430.771 116.085C432.967 116.085 434.787 116.493 436.231 117.309C437.674 118.125 438.835 119.223 439.714 120.604C440.593 121.985 441.22 123.585 441.597 125.405C441.973 127.162 442.162 129.045 442.162 131.053C442.162 132.811 441.911 134.505 441.409 136.137C440.969 137.706 440.279 139.118 439.337 140.373C438.396 141.628 437.204 142.632 435.76 143.385C434.317 144.139 432.654 144.515 430.771 144.515ZM454.87 152.893V107.33H442.162V113.826H441.973C440.342 111.002 438.302 108.993 435.854 107.801C433.47 106.609 430.677 106.012 427.476 106.012C424.087 106.012 421.075 106.671 418.439 107.989C415.866 109.307 413.7 111.096 411.943 113.355C410.186 115.552 408.837 118.125 407.895 121.075C407.017 123.962 406.577 126.974 406.577 130.112C406.577 133.438 406.954 136.607 407.707 139.62C408.523 142.57 409.778 145.174 411.472 147.433C413.167 149.63 415.332 151.387 417.968 152.705C420.604 153.96 423.742 154.588 427.382 154.588C430.332 154.588 433.124 153.992 435.76 152.799C438.459 151.544 440.53 149.63 441.973 147.057H442.162V153.458C442.224 156.91 441.377 159.766 439.62 162.025C437.925 164.284 435.195 165.414 431.43 165.414C429.045 165.414 426.943 164.912 425.123 163.908C423.303 162.966 422.079 161.24 421.451 158.73H408.178C408.366 161.491 409.119 163.845 410.437 165.79C411.818 167.799 413.512 169.43 415.52 170.686C417.591 171.941 419.851 172.851 422.298 173.416C424.809 174.043 427.256 174.357 429.641 174.357C435.227 174.357 439.683 173.604 443.009 172.098C446.335 170.591 448.877 168.74 450.634 166.544C452.391 164.41 453.521 162.088 454.023 159.577C454.588 157.067 454.87 154.839 454.87 152.893ZM462.244 122.298C462.432 119.16 463.217 116.556 464.597 114.485C465.978 112.414 467.735 110.751 469.869 109.496C472.003 108.24 474.388 107.362 477.024 106.86C479.722 106.295 482.421 106.012 485.12 106.012C487.567 106.012 490.046 106.201 492.557 106.577C495.067 106.891 497.358 107.55 499.429 108.554C501.5 109.558 503.194 110.97 504.512 112.79C505.83 114.548 506.489 116.901 506.489 119.851V145.174C506.489 147.371 506.615 149.473 506.866 151.481C507.117 153.49 507.556 154.996 508.184 156H494.628C494.377 155.247 494.157 154.494 493.969 153.741C493.843 152.925 493.749 152.109 493.686 151.293C491.552 153.49 489.042 155.027 486.155 155.906C483.268 156.784 480.319 157.224 477.306 157.224C474.984 157.224 472.819 156.941 470.811 156.377C468.802 155.812 467.045 154.933 465.539 153.741C464.033 152.548 462.84 151.042 461.962 149.222C461.146 147.402 460.738 145.237 460.738 142.726C460.738 139.965 461.208 137.706 462.15 135.948C463.154 134.128 464.409 132.685 465.915 131.618C467.484 130.551 469.242 129.767 471.187 129.265C473.195 128.7 475.204 128.261 477.212 127.947C479.22 127.633 481.197 127.382 483.143 127.194C485.088 127.005 486.814 126.723 488.32 126.346C489.827 125.97 491.019 125.436 491.898 124.746C492.776 123.993 493.184 122.926 493.121 121.545C493.121 120.102 492.87 118.972 492.368 118.156C491.929 117.278 491.301 116.619 490.486 116.179C489.732 115.677 488.822 115.364 487.756 115.238C486.751 115.05 485.653 114.956 484.461 114.956C481.825 114.956 479.754 115.52 478.248 116.65C476.741 117.78 475.863 119.663 475.612 122.298H462.244ZM493.121 132.183C492.557 132.685 491.835 133.093 490.956 133.407C490.14 133.658 489.23 133.877 488.226 134.066C487.285 134.254 486.281 134.411 485.214 134.536C484.147 134.662 483.08 134.819 482.013 135.007C481.009 135.195 480.005 135.446 479.001 135.76C478.059 136.074 477.212 136.513 476.459 137.078C475.769 137.58 475.204 138.239 474.764 139.055C474.325 139.871 474.105 140.906 474.105 142.162C474.105 143.354 474.325 144.358 474.764 145.174C475.204 145.99 475.8 146.649 476.553 147.151C477.306 147.59 478.185 147.904 479.189 148.092C480.193 148.281 481.229 148.375 482.296 148.375C484.931 148.375 486.971 147.935 488.415 147.057C489.858 146.178 490.925 145.143 491.615 143.95C492.306 142.695 492.714 141.44 492.839 140.185C493.027 138.93 493.121 137.925 493.121 137.172V132.183ZM530.986 107.33V92.7389H517.618V107.33H509.522V116.274H517.618V144.986C517.618 147.433 518.026 149.41 518.842 150.917C519.658 152.423 520.756 153.584 522.137 154.4C523.58 155.216 525.212 155.749 527.032 156C528.915 156.314 530.892 156.471 532.963 156.471C534.281 156.471 535.63 156.439 537.011 156.377C538.391 156.314 539.646 156.188 540.776 156V145.645C540.149 145.77 539.49 145.864 538.799 145.927C538.109 145.99 537.387 146.021 536.634 146.021C534.375 146.021 532.869 145.645 532.115 144.892C531.362 144.139 530.986 142.632 530.986 140.373V116.274H540.776V107.33H530.986ZM544.312 88.7851V156H557.68V130.488C557.68 125.53 558.496 121.985 560.127 119.851C561.759 117.654 564.395 116.556 568.035 116.556C571.236 116.556 573.464 117.56 574.719 119.568C575.974 121.514 576.602 124.495 576.602 128.512V156H589.969V126.064C589.969 123.052 589.687 120.321 589.122 117.874C588.62 115.364 587.71 113.261 586.392 111.567C585.074 109.809 583.254 108.46 580.932 107.519C578.673 106.515 575.754 106.012 572.177 106.012C569.667 106.012 567.094 106.671 564.458 107.989C561.822 109.245 559.657 111.284 557.962 114.108H557.68V88.7851H544.312ZM630.051 126.441H608.305C608.368 125.499 608.556 124.432 608.87 123.24C609.246 122.047 609.843 120.918 610.659 119.851C611.537 118.784 612.667 117.905 614.048 117.215C615.491 116.462 617.28 116.085 619.413 116.085C622.677 116.085 625.093 116.964 626.662 118.721C628.294 120.478 629.423 123.052 630.051 126.441ZM608.305 134.913H643.419C643.67 131.147 643.356 127.539 642.477 124.087C641.599 120.635 640.155 117.56 638.147 114.861C636.201 112.163 633.691 110.029 630.616 108.46C627.541 106.828 623.932 106.012 619.79 106.012C616.087 106.012 612.698 106.671 609.623 107.989C606.611 109.307 604.006 111.127 601.81 113.449C599.613 115.709 597.918 118.407 596.726 121.545C595.534 124.683 594.937 128.072 594.937 131.712C594.937 135.478 595.502 138.93 596.632 142.067C597.824 145.205 599.487 147.904 601.621 150.163C603.755 152.423 606.36 154.18 609.435 155.435C612.51 156.628 615.962 157.224 619.79 157.224C625.313 157.224 630.02 155.969 633.911 153.458C637.802 150.948 640.689 146.774 642.572 140.938H630.804C630.365 142.444 629.172 143.888 627.227 145.268C625.281 146.586 622.959 147.245 620.261 147.245C616.495 147.245 613.608 146.272 611.6 144.327C609.592 142.381 608.493 139.243 608.305 134.913ZM648.523 107.33V156H661.89V134.066C661.89 131.869 662.11 129.829 662.549 127.947C662.989 126.064 663.711 124.432 664.715 123.052C665.782 121.608 667.162 120.478 668.857 119.663C670.551 118.847 672.622 118.439 675.07 118.439C675.886 118.439 676.733 118.501 677.612 118.627C678.49 118.69 679.243 118.784 679.871 118.909V106.483C678.804 106.169 677.831 106.012 676.953 106.012C675.258 106.012 673.626 106.263 672.057 106.766C670.488 107.268 669.014 107.989 667.633 108.931C666.252 109.809 665.028 110.908 663.962 112.226C662.895 113.481 662.047 114.861 661.42 116.368H661.232V107.33H648.523ZM696.032 99.7993V88.7851H682.664V99.7993H696.032ZM682.664 107.33V156H696.032V107.33H682.664ZM703.734 107.33V156H717.101V130.488C717.101 125.53 717.917 121.985 719.549 119.851C721.181 117.654 723.816 116.556 727.457 116.556C730.657 116.556 732.885 117.56 734.14 119.568C735.396 121.514 736.023 124.495 736.023 128.512V156H749.391V126.064C749.391 123.052 749.108 120.321 748.544 117.874C748.041 115.364 747.131 113.261 745.814 111.567C744.496 109.809 742.676 108.46 740.353 107.519C738.094 106.515 735.176 106.012 731.599 106.012C728.774 106.012 726.013 106.671 723.314 107.989C720.616 109.245 718.419 111.284 716.725 114.108H716.442V107.33H703.734ZM779.4 144.515C777.329 144.515 775.603 144.076 774.222 143.197C772.841 142.319 771.712 141.189 770.833 139.808C770.017 138.427 769.421 136.89 769.044 135.195C768.731 133.438 768.574 131.681 768.574 129.924C768.574 128.104 768.762 126.378 769.139 124.746C769.578 123.052 770.237 121.577 771.115 120.322C772.057 119.004 773.187 117.968 774.504 117.215C775.885 116.462 777.517 116.085 779.4 116.085C781.596 116.085 783.416 116.493 784.86 117.309C786.303 118.125 787.464 119.223 788.343 120.604C789.221 121.985 789.849 123.585 790.226 125.405C790.602 127.162 790.79 129.045 790.79 131.053C790.79 132.811 790.539 134.505 790.037 136.137C789.598 137.706 788.908 139.118 787.966 140.373C787.025 141.628 785.832 142.632 784.389 143.385C782.946 144.139 781.282 144.515 779.4 144.515ZM803.499 152.893V107.33H790.79V113.826H790.602C788.97 111.002 786.931 108.993 784.483 107.801C782.098 106.609 779.306 106.012 776.105 106.012C772.716 106.012 769.703 106.671 767.068 107.989C764.494 109.307 762.329 111.096 760.572 113.355C758.815 115.552 757.465 118.125 756.524 121.075C755.645 123.962 755.206 126.974 755.206 130.112C755.206 133.438 755.583 136.607 756.336 139.62C757.152 142.57 758.407 145.174 760.101 147.433C761.796 149.63 763.961 151.387 766.597 152.705C769.233 153.96 772.371 154.588 776.011 154.588C778.96 154.588 781.753 153.992 784.389 152.799C787.088 151.544 789.159 149.63 790.602 147.057H790.79V153.458C790.853 156.91 790.006 159.766 788.249 162.025C786.554 164.284 783.824 165.414 780.059 165.414C777.674 165.414 775.571 164.912 773.751 163.908C771.931 162.966 770.708 161.24 770.08 158.73H756.806C756.995 161.491 757.748 163.845 759.066 165.79C760.446 167.799 762.141 169.43 764.149 170.686C766.22 171.941 768.48 172.851 770.927 173.416C773.438 174.043 775.885 174.357 778.27 174.357C783.856 174.357 788.311 173.604 791.638 172.098C794.964 170.591 797.506 168.74 799.263 166.544C801.02 164.41 802.15 162.088 802.652 159.577C803.217 157.067 803.499 154.839 803.499 152.893Z" fill="#ED0000"/>
<path d="M84.63 206.2C84.63 206.84 84.57 207.46 84.45 208.06C84.33 208.66 84.13 209.2 83.85 209.68C83.57 210.14 83.19 210.51 82.71 210.79C82.25 211.07 81.67 211.21 80.97 211.21C80.31 211.21 79.74 211.07 79.26 210.79C78.8 210.49 78.41 210.11 78.09 209.65C77.79 209.17 77.57 208.63 77.43 208.03C77.29 207.43 77.22 206.83 77.22 206.23C77.22 205.59 77.28 204.98 77.4 204.4C77.54 203.8 77.75 203.27 78.03 202.81C78.33 202.35 78.72 201.98 79.2 201.7C79.68 201.42 80.27 201.28 80.97 201.28C81.67 201.28 82.25 201.42 82.71 201.7C83.17 201.98 83.54 202.35 83.82 202.81C84.12 203.25 84.33 203.77 84.45 204.37C84.57 204.95 84.63 205.56 84.63 206.2ZM84.69 212.02V214H88.74V192.58H84.48V200.38H84.42C83.94 199.62 83.28 199.05 82.44 198.67C81.62 198.27 80.75 198.07 79.83 198.07C78.69 198.07 77.69 198.3 76.83 198.76C75.97 199.2 75.25 199.79 74.67 200.53C74.11 201.27 73.68 202.13 73.38 203.11C73.1 204.07 72.96 205.07 72.96 206.11C72.96 207.19 73.1 208.23 73.38 209.23C73.68 210.23 74.11 211.12 74.67 211.9C75.25 212.66 75.98 213.27 76.86 213.73C77.74 214.17 78.76 214.39 79.92 214.39C80.94 214.39 81.85 214.21 82.65 213.85C83.47 213.47 84.13 212.86 84.63 212.02H84.69ZM102.4 204.58H95.4698C95.4898 204.28 95.5498 203.94 95.6498 203.56C95.7698 203.18 95.9598 202.82 96.2198 202.48C96.4998 202.14 96.8598 201.86 97.2998 201.64C97.7598 201.4 98.3298 201.28 99.0098 201.28C100.05 201.28 100.82 201.56 101.32 202.12C101.84 202.68 102.2 203.5 102.4 204.58ZM95.4698 207.28H106.66C106.74 206.08 106.64 204.93 106.36 203.83C106.08 202.73 105.62 201.75 104.98 200.89C104.36 200.03 103.56 199.35 102.58 198.85C101.6 198.33 100.45 198.07 99.1298 198.07C97.9498 198.07 96.8698 198.28 95.8898 198.7C94.9298 199.12 94.0998 199.7 93.3998 200.44C92.6998 201.16 92.1598 202.02 91.7798 203.02C91.3998 204.02 91.2098 205.1 91.2098 206.26C91.2098 207.46 91.3898 208.56 91.7498 209.56C92.1298 210.56 92.6598 211.42 93.3398 212.14C94.0198 212.86 94.8498 213.42 95.8298 213.82C96.8098 214.2 97.9098 214.39 99.1298 214.39C100.89 214.39 102.39 213.99 103.63 213.19C104.87 212.39 105.79 211.06 106.39 209.2H102.64C102.5 209.68 102.12 210.14 101.5 210.58C100.88 211 100.14 211.21 99.2798 211.21C98.0798 211.21 97.1598 210.9 96.5198 210.28C95.8798 209.66 95.5298 208.66 95.4698 207.28ZM119.626 204.58H112.696C112.716 204.28 112.776 203.94 112.876 203.56C112.996 203.18 113.186 202.82 113.446 202.48C113.726 202.14 114.086 201.86 114.526 201.64C114.986 201.4 115.556 201.28 116.236 201.28C117.276 201.28 118.046 201.56 118.546 202.12C119.066 202.68 119.426 203.5 119.626 204.58ZM112.696 207.28H123.886C123.966 206.08 123.866 204.93 123.586 203.83C123.306 202.73 122.846 201.75 122.206 200.89C121.586 200.03 120.786 199.35 119.806 198.85C118.826 198.33 117.676 198.07 116.356 198.07C115.176 198.07 114.096 198.28 113.116 198.7C112.156 199.12 111.326 199.7 110.626 200.44C109.926 201.16 109.386 202.02 109.006 203.02C108.626 204.02 108.436 205.1 108.436 206.26C108.436 207.46 108.616 208.56 108.976 209.56C109.356 210.56 109.886 211.42 110.566 212.14C111.246 212.86 112.076 213.42 113.056 213.82C114.036 214.2 115.136 214.39 116.356 214.39C118.116 214.39 119.616 213.99 120.856 213.19C122.096 212.39 123.016 211.06 123.616 209.2H119.866C119.726 209.68 119.346 210.14 118.726 210.58C118.106 211 117.366 211.21 116.506 211.21C115.306 211.21 114.386 210.9 113.746 210.28C113.106 209.66 112.756 208.66 112.696 207.28ZM134.243 211.21C133.563 211.21 132.983 211.07 132.503 210.79C132.023 210.51 131.633 210.15 131.333 209.71C131.053 209.25 130.843 208.72 130.703 208.12C130.583 207.52 130.523 206.91 130.523 206.29C130.523 205.65 130.583 205.03 130.703 204.43C130.823 203.83 131.023 203.3 131.303 202.84C131.603 202.38 131.983 202.01 132.443 201.73C132.923 201.43 133.513 201.28 134.213 201.28C134.893 201.28 135.463 201.43 135.923 201.73C136.403 202.01 136.793 202.39 137.093 202.87C137.393 203.33 137.603 203.86 137.723 204.46C137.863 205.06 137.933 205.67 137.933 206.29C137.933 206.91 137.873 207.52 137.753 208.12C137.633 208.72 137.423 209.25 137.123 209.71C136.843 210.15 136.463 210.51 135.983 210.79C135.523 211.07 134.943 211.21 134.243 211.21ZM126.413 198.49V219.43H130.673V212.08H130.733C131.253 212.84 131.913 213.42 132.713 213.82C133.533 214.2 134.423 214.39 135.383 214.39C136.523 214.39 137.513 214.17 138.353 213.73C139.213 213.29 139.923 212.7 140.483 211.96C141.063 211.22 141.493 210.37 141.773 209.41C142.053 208.45 142.193 207.45 142.193 206.41C142.193 205.31 142.053 204.26 141.773 203.26C141.493 202.24 141.063 201.35 140.483 200.59C139.903 199.83 139.173 199.22 138.293 198.76C137.413 198.3 136.363 198.07 135.143 198.07C134.183 198.07 133.303 198.26 132.503 198.64C131.703 199.02 131.043 199.63 130.523 200.47H130.463V198.49H126.413ZM164.112 206.2C164.112 206.84 164.052 207.46 163.932 208.06C163.812 208.66 163.612 209.2 163.332 209.68C163.052 210.14 162.672 210.51 162.192 210.79C161.732 211.07 161.152 211.21 160.452 211.21C159.792 211.21 159.222 211.07 158.742 210.79C158.282 210.49 157.892 210.11 157.572 209.65C157.272 209.17 157.052 208.63 156.912 208.03C156.772 207.43 156.702 206.83 156.702 206.23C156.702 205.59 156.762 204.98 156.882 204.4C157.022 203.8 157.232 203.27 157.512 202.81C157.812 202.35 158.202 201.98 158.682 201.7C159.162 201.42 159.752 201.28 160.452 201.28C161.152 201.28 161.732 201.42 162.192 201.7C162.652 201.98 163.022 202.35 163.302 202.81C163.602 203.25 163.812 203.77 163.932 204.37C164.052 204.95 164.112 205.56 164.112 206.2ZM164.172 212.02V214H168.222V192.58H163.962V200.38H163.902C163.422 199.62 162.762 199.05 161.922 198.67C161.102 198.27 160.232 198.07 159.312 198.07C158.172 198.07 157.172 198.3 156.312 198.76C155.452 199.2 154.732 199.79 154.152 200.53C153.592 201.27 153.162 202.13 152.862 203.11C152.582 204.07 152.442 205.07 152.442 206.11C152.442 207.19 152.582 208.23 152.862 209.23C153.162 210.23 153.592 211.12 154.152 211.9C154.732 212.66 155.462 213.27 156.342 213.73C157.222 214.17 158.242 214.39 159.402 214.39C160.422 214.39 161.332 214.21 162.132 213.85C162.952 213.47 163.612 212.86 164.112 212.02H164.172ZM175.822 196.09V192.58H171.562V196.09H175.822ZM171.562 198.49V214H175.822V198.49H171.562ZM182.477 208.96H178.427C178.467 210 178.697 210.87 179.117 211.57C179.557 212.25 180.107 212.8 180.767 213.22C181.447 213.64 182.217 213.94 183.077 214.12C183.937 214.3 184.817 214.39 185.717 214.39C186.597 214.39 187.457 214.3 188.297 214.12C189.157 213.96 189.917 213.67 190.577 213.25C191.237 212.83 191.767 212.28 192.167 211.6C192.587 210.9 192.797 210.04 192.797 209.02C192.797 208.3 192.657 207.7 192.377 207.22C192.097 206.72 191.727 206.31 191.267 205.99C190.807 205.65 190.277 205.38 189.677 205.18C189.097 204.98 188.497 204.81 187.877 204.67C187.277 204.53 186.687 204.4 186.107 204.28C185.527 204.16 185.007 204.03 184.547 203.89C184.107 203.73 183.747 203.53 183.467 203.29C183.187 203.05 183.047 202.74 183.047 202.36C183.047 202.04 183.127 201.79 183.287 201.61C183.447 201.41 183.637 201.26 183.857 201.16C184.097 201.06 184.357 201 184.637 200.98C184.917 200.94 185.177 200.92 185.417 200.92C186.177 200.92 186.837 201.07 187.397 201.37C187.957 201.65 188.267 202.2 188.327 203.02H192.377C192.297 202.06 192.047 201.27 191.627 200.65C191.227 200.01 190.717 199.5 190.097 199.12C189.477 198.74 188.767 198.47 187.967 198.31C187.187 198.15 186.377 198.07 185.537 198.07C184.697 198.07 183.877 198.15 183.077 198.31C182.277 198.45 181.557 198.71 180.917 199.09C180.277 199.45 179.757 199.95 179.357 200.59C178.977 201.23 178.787 202.05 178.787 203.05C178.787 203.73 178.927 204.31 179.207 204.79C179.487 205.25 179.857 205.64 180.317 205.96C180.777 206.26 181.297 206.51 181.877 206.71C182.477 206.89 183.087 207.05 183.707 207.19C185.227 207.51 186.407 207.83 187.247 208.15C188.107 208.47 188.537 208.95 188.537 209.59C188.537 209.97 188.447 210.29 188.267 210.55C188.087 210.79 187.857 210.99 187.577 211.15C187.317 211.29 187.017 211.4 186.677 211.48C186.357 211.54 186.047 211.57 185.747 211.57C185.327 211.57 184.917 211.52 184.517 211.42C184.137 211.32 183.797 211.17 183.497 210.97C183.197 210.75 182.947 210.48 182.747 210.16C182.567 209.82 182.477 209.42 182.477 208.96ZM205.85 203.95H210.02C209.96 202.95 209.72 202.09 209.3 201.37C208.88 200.63 208.33 200.02 207.65 199.54C206.99 199.04 206.23 198.67 205.37 198.43C204.53 198.19 203.65 198.07 202.73 198.07C201.47 198.07 200.35 198.28 199.37 198.7C198.39 199.12 197.56 199.71 196.88 200.47C196.2 201.21 195.68 202.1 195.32 203.14C194.98 204.16 194.81 205.27 194.81 206.47C194.81 207.63 195 208.7 195.38 209.68C195.76 210.64 196.29 211.47 196.97 212.17C197.65 212.87 198.47 213.42 199.43 213.82C200.41 214.2 201.48 214.39 202.64 214.39C204.7 214.39 206.39 213.85 207.71 212.77C209.03 211.69 209.83 210.12 210.11 208.06H206C205.86 209.02 205.51 209.79 204.95 210.37C204.41 210.93 203.63 211.21 202.61 211.21C201.95 211.21 201.39 211.06 200.93 210.76C200.47 210.46 200.1 210.08 199.82 209.62C199.56 209.14 199.37 208.61 199.25 208.03C199.13 207.45 199.07 206.88 199.07 206.32C199.07 205.74 199.13 205.16 199.25 204.58C199.37 203.98 199.57 203.44 199.85 202.96C200.15 202.46 200.53 202.06 200.99 201.76C201.45 201.44 202.02 201.28 202.7 201.28C204.52 201.28 205.57 202.17 205.85 203.95ZM216.296 206.26C216.296 205.64 216.356 205.03 216.476 204.43C216.596 203.83 216.796 203.3 217.076 202.84C217.376 202.38 217.766 202.01 218.246 201.73C218.726 201.43 219.326 201.28 220.046 201.28C220.766 201.28 221.366 201.43 221.846 201.73C222.346 202.01 222.736 202.38 223.016 202.84C223.316 203.3 223.526 203.83 223.646 204.43C223.766 205.03 223.826 205.64 223.826 206.26C223.826 206.88 223.766 207.49 223.646 208.09C223.526 208.67 223.316 209.2 223.016 209.68C222.736 210.14 222.346 210.51 221.846 210.79C221.366 211.07 220.766 211.21 220.046 211.21C219.326 211.21 218.726 211.07 218.246 210.79C217.766 210.51 217.376 210.14 217.076 209.68C216.796 209.2 216.596 208.67 216.476 208.09C216.356 207.49 216.296 206.88 216.296 206.26ZM212.036 206.26C212.036 207.5 212.226 208.62 212.606 209.62C212.986 210.62 213.526 211.48 214.226 212.2C214.926 212.9 215.766 213.44 216.746 213.82C217.726 214.2 218.826 214.39 220.046 214.39C221.266 214.39 222.366 214.2 223.346 213.82C224.346 213.44 225.196 212.9 225.896 212.2C226.596 211.48 227.136 210.62 227.516 209.62C227.896 208.62 228.086 207.5 228.086 206.26C228.086 205.02 227.896 203.9 227.516 202.9C227.136 201.88 226.596 201.02 225.896 200.32C225.196 199.6 224.346 199.05 223.346 198.67C222.366 198.27 221.266 198.07 220.046 198.07C218.826 198.07 217.726 198.27 216.746 198.67C215.766 199.05 214.926 199.6 214.226 200.32C213.526 201.02 212.986 201.88 212.606 202.9C212.226 203.9 212.036 205.02 212.036 206.26ZM245.406 214V198.49H241.146V206.62C241.146 208.2 240.886 209.34 240.366 210.04C239.846 210.72 239.006 211.06 237.846 211.06C236.826 211.06 236.116 210.75 235.716 210.13C235.316 209.49 235.116 208.53 235.116 207.25V198.49H230.856V208.03C230.856 208.99 230.936 209.87 231.096 210.67C231.276 211.45 231.576 212.12 231.996 212.68C232.416 213.22 232.986 213.64 233.706 213.94C234.446 214.24 235.386 214.39 236.526 214.39C237.426 214.39 238.306 214.19 239.166 213.79C240.026 213.39 240.726 212.74 241.266 211.84H241.356V214H245.406ZM248.64 198.49V214H252.9V205.87C252.9 204.29 253.16 203.16 253.68 202.48C254.2 201.78 255.04 201.43 256.2 201.43C257.22 201.43 257.93 201.75 258.33 202.39C258.73 203.01 258.93 203.96 258.93 205.24V214H263.19V204.46C263.19 203.5 263.1 202.63 262.92 201.85C262.76 201.05 262.47 200.38 262.05 199.84C261.63 199.28 261.05 198.85 260.31 198.55C259.59 198.23 258.66 198.07 257.52 198.07C256.62 198.07 255.74 198.28 254.88 198.7C254.02 199.1 253.32 199.75 252.78 200.65H252.69V198.49H248.64ZM271.823 198.49V193.84H267.563V198.49H264.983V201.34H267.563V210.49C267.563 211.27 267.693 211.9 267.953 212.38C268.213 212.86 268.563 213.23 269.003 213.49C269.463 213.75 269.983 213.92 270.563 214C271.163 214.1 271.793 214.15 272.453 214.15C272.873 214.15 273.303 214.14 273.743 214.12C274.183 214.1 274.583 214.06 274.943 214V210.7C274.743 210.74 274.533 210.77 274.313 210.79C274.093 210.81 273.863 210.82 273.623 210.82C272.903 210.82 272.423 210.7 272.183 210.46C271.943 210.22 271.823 209.74 271.823 209.02V201.34H274.943V198.49H271.823ZM280.27 208.96H276.22C276.26 210 276.49 210.87 276.91 211.57C277.35 212.25 277.9 212.8 278.56 213.22C279.24 213.64 280.01 213.94 280.87 214.12C281.73 214.3 282.61 214.39 283.51 214.39C284.39 214.39 285.25 214.3 286.09 214.12C286.95 213.96 287.71 213.67 288.37 213.25C289.03 212.83 289.56 212.28 289.96 211.6C290.38 210.9 290.59 210.04 290.59 209.02C290.59 208.3 290.45 207.7 290.17 207.22C289.89 206.72 289.52 206.31 289.06 205.99C288.6 205.65 288.07 205.38 287.47 205.18C286.89 204.98 286.29 204.81 285.67 204.67C285.07 204.53 284.48 204.4 283.9 204.28C283.32 204.16 282.8 204.03 282.34 203.89C281.9 203.73 281.54 203.53 281.26 203.29C280.98 203.05 280.84 202.74 280.84 202.36C280.84 202.04 280.92 201.79 281.08 201.61C281.24 201.41 281.43 201.26 281.65 201.16C281.89 201.06 282.15 201 282.43 200.98C282.71 200.94 282.97 200.92 283.21 200.92C283.97 200.92 284.63 201.07 285.19 201.37C285.75 201.65 286.06 202.2 286.12 203.02H290.17C290.09 202.06 289.84 201.27 289.42 200.65C289.02 200.01 288.51 199.5 287.89 199.12C287.27 198.74 286.56 198.47 285.76 198.31C284.98 198.15 284.17 198.07 283.33 198.07C282.49 198.07 281.67 198.15 280.87 198.31C280.07 198.45 279.35 198.71 278.71 199.09C278.07 199.45 277.55 199.95 277.15 200.59C276.77 201.23 276.58 202.05 276.58 203.05C276.58 203.73 276.72 204.31 277 204.79C277.28 205.25 277.65 205.64 278.11 205.96C278.57 206.26 279.09 206.51 279.67 206.71C280.27 206.89 280.88 207.05 281.5 207.19C283.02 207.51 284.2 207.83 285.04 208.15C285.9 208.47 286.33 208.95 286.33 209.59C286.33 209.97 286.24 210.29 286.06 210.55C285.88 210.79 285.65 210.99 285.37 211.15C285.11 211.29 284.81 211.4 284.47 211.48C284.15 211.54 283.84 211.57 283.54 211.57C283.12 211.57 282.71 211.52 282.31 211.42C281.93 211.32 281.59 211.17 281.29 210.97C280.99 210.75 280.74 210.48 280.54 210.16C280.36 209.82 280.27 209.42 280.27 208.96ZM303.593 206.26C303.593 205.32 303.713 204.49 303.953 203.77C304.213 203.03 304.563 202.41 305.003 201.91C305.443 201.41 305.953 201.03 306.533 200.77C307.133 200.51 307.763 200.38 308.423 200.38C309.083 200.38 309.703 200.51 310.283 200.77C310.883 201.03 311.403 201.41 311.843 201.91C312.283 202.41 312.623 203.03 312.863 203.77C313.123 204.49 313.253 205.32 313.253 206.26C313.253 207.2 313.123 208.04 312.863 208.78C312.623 209.5 312.283 210.11 311.843 210.61C311.403 211.09 310.883 211.46 310.283 211.72C309.703 211.98 309.083 212.11 308.423 212.11C307.763 212.11 307.133 211.98 306.533 211.72C305.953 211.46 305.443 211.09 305.003 210.61C304.563 210.11 304.213 209.5 303.953 208.78C303.713 208.04 303.593 207.2 303.593 206.26ZM300.893 206.26C300.893 207.4 301.053 208.46 301.373 209.44C301.693 210.42 302.173 211.28 302.813 212.02C303.453 212.74 304.243 213.31 305.183 213.73C306.123 214.13 307.203 214.33 308.423 214.33C309.663 214.33 310.743 214.13 311.663 213.73C312.603 213.31 313.393 212.74 314.033 212.02C314.673 211.28 315.153 210.42 315.473 209.44C315.793 208.46 315.953 207.4 315.953 206.26C315.953 205.12 315.793 204.06 315.473 203.08C315.153 202.08 314.673 201.22 314.033 200.5C313.393 199.76 312.603 199.18 311.663 198.76C310.743 198.34 309.663 198.13 308.423 198.13C307.203 198.13 306.123 198.34 305.183 198.76C304.243 199.18 303.453 199.76 302.813 200.5C302.173 201.22 301.693 202.08 301.373 203.08C301.053 204.06 300.893 205.12 300.893 206.26ZM318.959 198.49V214H321.509V205.24C321.509 204.54 321.599 203.9 321.779 203.32C321.979 202.72 322.269 202.2 322.649 201.76C323.029 201.32 323.499 200.98 324.059 200.74C324.639 200.5 325.319 200.38 326.099 200.38C327.079 200.38 327.849 200.66 328.409 201.22C328.969 201.78 329.249 202.54 329.249 203.5V214H331.799V203.8C331.799 202.96 331.709 202.2 331.529 201.52C331.369 200.82 331.079 200.22 330.659 199.72C330.239 199.22 329.689 198.83 329.009 198.55C328.329 198.27 327.479 198.13 326.459 198.13C324.159 198.13 322.479 199.07 321.419 200.95H321.359V198.49H318.959ZM74.07 230.58V252H76.62V230.58H74.07ZM83.2704 233.7V230.58H80.7204V233.7H83.2704ZM80.7204 236.49V252H83.2704V236.49H80.7204ZM94.2108 252L99.8808 236.49H97.2108L92.9808 249.42H92.9208L88.5708 236.49H85.7208L91.4808 252H94.2108ZM104.921 233.7V230.58H102.371V233.7H104.921ZM102.371 236.49V252H104.921V236.49H102.371ZM108.871 236.49V252H111.421V243.24C111.421 242.54 111.511 241.9 111.691 241.32C111.891 240.72 112.181 240.2 112.561 239.76C112.941 239.32 113.411 238.98 113.971 238.74C114.551 238.5 115.231 238.38 116.011 238.38C116.991 238.38 117.761 238.66 118.321 239.22C118.881 239.78 119.161 240.54 119.161 241.5V252H121.711V241.8C121.711 240.96 121.621 240.2 121.441 239.52C121.281 238.82 120.991 238.22 120.571 237.72C120.151 237.22 119.601 236.83 118.921 236.55C118.241 236.27 117.391 236.13 116.371 236.13C114.071 236.13 112.391 237.07 111.331 238.95H111.271V236.49H108.871ZM138.921 250.68V236.49H136.521V238.71H136.491C136.031 237.85 135.391 237.21 134.571 236.79C133.751 236.35 132.851 236.13 131.871 236.13C130.531 236.13 129.401 236.39 128.481 236.91C127.561 237.41 126.821 238.06 126.261 238.86C125.701 239.64 125.301 240.52 125.061 241.5C124.821 242.46 124.701 243.4 124.701 244.32C124.701 245.38 124.841 246.39 125.121 247.35C125.421 248.29 125.861 249.12 126.441 249.84C127.021 250.54 127.741 251.1 128.601 251.52C129.461 251.94 130.471 252.15 131.631 252.15C132.631 252.15 133.571 251.93 134.451 251.49C135.351 251.03 136.021 250.32 136.461 249.36H136.521V250.38C136.521 251.24 136.431 252.03 136.251 252.75C136.091 253.47 135.821 254.08 135.441 254.58C135.061 255.1 134.581 255.5 134.001 255.78C133.421 256.08 132.711 256.23 131.871 256.23C131.451 256.23 131.011 256.18 130.551 256.08C130.091 256 129.661 255.86 129.261 255.66C128.881 255.46 128.551 255.2 128.271 254.88C128.011 254.56 127.871 254.17 127.851 253.71H125.301C125.341 254.55 125.561 255.26 125.961 255.84C126.361 256.42 126.861 256.89 127.461 257.25C128.081 257.61 128.761 257.87 129.501 258.03C130.261 258.19 131.001 258.27 131.721 258.27C134.201 258.27 136.021 257.64 137.181 256.38C138.341 255.12 138.921 253.22 138.921 250.68ZM131.781 249.93C130.941 249.93 130.241 249.76 129.681 249.42C129.121 249.06 128.671 248.6 128.331 248.04C127.991 247.46 127.751 246.82 127.611 246.12C127.471 245.42 127.401 244.72 127.401 244.02C127.401 243.28 127.481 242.57 127.641 241.89C127.821 241.21 128.091 240.61 128.451 240.09C128.831 239.57 129.311 239.16 129.891 238.86C130.471 238.54 131.171 238.38 131.991 238.38C132.791 238.38 133.471 238.54 134.031 238.86C134.591 239.18 135.041 239.61 135.381 240.15C135.741 240.67 136.001 241.26 136.161 241.92C136.321 242.58 136.401 243.25 136.401 243.93C136.401 244.65 136.311 245.37 136.131 246.09C135.971 246.81 135.711 247.46 135.351 248.04C134.991 248.6 134.511 249.06 133.911 249.42C133.331 249.76 132.621 249.93 131.781 249.93ZM151.027 236.49V252H153.577V245.1C153.577 244.1 153.677 243.22 153.877 242.46C154.077 241.68 154.397 241.02 154.837 240.48C155.277 239.94 155.857 239.53 156.577 239.25C157.297 238.97 158.167 238.83 159.187 238.83V236.13C157.807 236.09 156.667 236.37 155.767 236.97C154.867 237.57 154.107 238.5 153.487 239.76H153.427V236.49H151.027ZM162.44 244.26C162.44 243.32 162.56 242.49 162.8 241.77C163.06 241.03 163.41 240.41 163.85 239.91C164.29 239.41 164.8 239.03 165.38 238.77C165.98 238.51 166.61 238.38 167.27 238.38C167.93 238.38 168.55 238.51 169.13 238.77C169.73 239.03 170.25 239.41 170.69 239.91C171.13 240.41 171.47 241.03 171.71 241.77C171.97 242.49 172.1 243.32 172.1 244.26C172.1 245.2 171.97 246.04 171.71 246.78C171.47 247.5 171.13 248.11 170.69 248.61C170.25 249.09 169.73 249.46 169.13 249.72C168.55 249.98 167.93 250.11 167.27 250.11C166.61 250.11 165.98 249.98 165.38 249.72C164.8 249.46 164.29 249.09 163.85 248.61C163.41 248.11 163.06 247.5 162.8 246.78C162.56 246.04 162.44 245.2 162.44 244.26ZM159.74 244.26C159.74 245.4 159.9 246.46 160.22 247.44C160.54 248.42 161.02 249.28 161.66 250.02C162.3 250.74 163.09 251.31 164.03 251.73C164.97 252.13 166.05 252.33 167.27 252.33C168.51 252.33 169.59 252.13 170.51 251.73C171.45 251.31 172.24 250.74 172.88 250.02C173.52 249.28 174 248.42 174.32 247.44C174.64 246.46 174.8 245.4 174.8 244.26C174.8 243.12 174.64 242.06 174.32 241.08C174 240.08 173.52 239.22 172.88 238.5C172.24 237.76 171.45 237.18 170.51 236.76C169.59 236.34 168.51 236.13 167.27 236.13C166.05 236.13 164.97 236.34 164.03 236.76C163.09 237.18 162.3 237.76 161.66 238.5C161.02 239.22 160.54 240.08 160.22 241.08C159.9 242.06 159.74 243.12 159.74 244.26ZM179.667 244.26C179.667 243.32 179.787 242.49 180.027 241.77C180.287 241.03 180.637 240.41 181.077 239.91C181.517 239.41 182.027 239.03 182.607 238.77C183.207 238.51 183.837 238.38 184.497 238.38C185.157 238.38 185.777 238.51 186.357 238.77C186.957 239.03 187.477 239.41 187.917 239.91C188.357 240.41 188.697 241.03 188.937 241.77C189.197 242.49 189.327 243.32 189.327 244.26C189.327 245.2 189.197 246.04 188.937 246.78C188.697 247.5 188.357 248.11 187.917 248.61C187.477 249.09 186.957 249.46 186.357 249.72C185.777 249.98 185.157 250.11 184.497 250.11C183.837 250.11 183.207 249.98 182.607 249.72C182.027 249.46 181.517 249.09 181.077 248.61C180.637 248.11 180.287 247.5 180.027 246.78C179.787 246.04 179.667 245.2 179.667 244.26ZM176.967 244.26C176.967 245.4 177.127 246.46 177.447 247.44C177.767 248.42 178.247 249.28 178.887 250.02C179.527 250.74 180.317 251.31 181.257 251.73C182.197 252.13 183.277 252.33 184.497 252.33C185.737 252.33 186.817 252.13 187.737 251.73C188.677 251.31 189.467 250.74 190.107 250.02C190.747 249.28 191.227 248.42 191.547 247.44C191.867 246.46 192.027 245.4 192.027 244.26C192.027 243.12 191.867 242.06 191.547 241.08C191.227 240.08 190.747 239.22 190.107 238.5C189.467 237.76 188.677 237.18 187.737 236.76C186.817 236.34 185.737 236.13 184.497 236.13C183.277 236.13 182.197 236.34 181.257 236.76C180.317 237.18 179.527 237.76 178.887 238.5C178.247 239.22 177.767 240.08 177.447 241.08C177.127 242.06 176.967 243.12 176.967 244.26ZM195.033 236.49V252H197.583V242.34C197.583 242.04 197.653 241.67 197.793 241.23C197.953 240.77 198.193 240.33 198.513 239.91C198.853 239.49 199.283 239.13 199.803 238.83C200.343 238.53 200.983 238.38 201.723 238.38C202.303 238.38 202.773 238.47 203.133 238.65C203.513 238.81 203.813 239.05 204.033 239.37C204.253 239.67 204.403 240.03 204.483 240.45C204.583 240.87 204.633 241.33 204.633 241.83V252H207.183V242.34C207.183 241.14 207.543 240.18 208.263 239.46C208.983 238.74 209.973 238.38 211.233 238.38C211.853 238.38 212.353 238.47 212.733 238.65C213.133 238.83 213.443 239.08 213.663 239.4C213.883 239.7 214.033 240.06 214.113 240.48C214.193 240.9 214.233 241.35 214.233 241.83V252H216.783V240.63C216.783 239.83 216.653 239.15 216.393 238.59C216.153 238.01 215.803 237.54 215.343 237.18C214.903 236.82 214.363 236.56 213.723 236.4C213.103 236.22 212.403 236.13 211.623 236.13C210.603 236.13 209.663 236.36 208.803 236.82C207.963 237.28 207.283 237.93 206.763 238.77C206.443 237.81 205.893 237.13 205.113 236.73C204.333 236.33 203.463 236.13 202.503 236.13C200.323 236.13 198.653 237.01 197.493 238.77H197.433V236.49H195.033ZM230.009 238.74V252H232.559V238.74H235.559V236.49H232.559V234.33C232.559 233.65 232.729 233.19 233.069 232.95C233.409 232.71 233.889 232.59 234.509 232.59C234.729 232.59 234.969 232.61 235.229 232.65C235.489 232.67 235.729 232.72 235.949 232.8V230.58C235.709 230.5 235.429 230.44 235.109 230.4C234.809 230.36 234.539 230.34 234.299 230.34C232.899 230.34 231.829 230.67 231.089 231.33C230.369 231.97 230.009 232.92 230.009 234.18V236.49H227.399V238.74H230.009ZM250.676 252V236.49H248.126V245.25C248.126 245.95 248.026 246.6 247.826 247.2C247.646 247.78 247.366 248.29 246.986 248.73C246.606 249.17 246.126 249.51 245.546 249.75C244.986 249.99 244.316 250.11 243.536 250.11C242.556 250.11 241.786 249.83 241.226 249.27C240.666 248.71 240.386 247.95 240.386 246.99V236.49H237.836V246.69C237.836 247.53 237.916 248.3 238.076 249C238.256 249.68 238.556 250.27 238.976 250.77C239.396 251.27 239.946 251.66 240.626 251.94C241.306 252.2 242.156 252.33 243.176 252.33C244.316 252.33 245.306 252.11 246.146 251.67C246.986 251.21 247.676 250.5 248.216 249.54H248.276V252H250.676ZM254.416 236.49V252H256.966V245.1C256.966 244.1 257.066 243.22 257.266 242.46C257.466 241.68 257.786 241.02 258.226 240.48C258.666 239.94 259.246 239.53 259.966 239.25C260.686 238.97 261.556 238.83 262.576 238.83V236.13C261.196 236.09 260.056 236.37 259.156 236.97C258.256 237.57 257.496 238.5 256.876 239.76H256.816V236.49H254.416ZM265.024 236.49V252H267.574V243.24C267.574 242.54 267.664 241.9 267.844 241.32C268.044 240.72 268.334 240.2 268.714 239.76C269.094 239.32 269.564 238.98 270.124 238.74C270.704 238.5 271.384 238.38 272.164 238.38C273.144 238.38 273.914 238.66 274.474 239.22C275.034 239.78 275.314 240.54 275.314 241.5V252H277.864V241.8C277.864 240.96 277.774 240.2 277.594 239.52C277.434 238.82 277.144 238.22 276.724 237.72C276.304 237.22 275.754 236.83 275.074 236.55C274.394 236.27 273.544 236.13 272.524 236.13C270.224 236.13 268.544 237.07 267.484 238.95H267.424V236.49H265.024ZM284.393 233.7V230.58H281.843V233.7H284.393ZM281.843 236.49V252H284.393V236.49H281.843ZM291.884 236.49V231.84H289.334V236.49H286.694V238.74H289.334V248.61C289.334 249.33 289.404 249.91 289.544 250.35C289.684 250.79 289.894 251.13 290.174 251.37C290.474 251.61 290.854 251.78 291.314 251.88C291.794 251.96 292.364 252 293.024 252H294.974V249.75H293.804C293.404 249.75 293.074 249.74 292.814 249.72C292.574 249.68 292.384 249.61 292.244 249.51C292.104 249.41 292.004 249.27 291.944 249.09C291.904 248.91 291.884 248.67 291.884 248.37V238.74H294.974V236.49H291.884ZM310.647 252V236.49H308.097V245.25C308.097 245.95 307.997 246.6 307.797 247.2C307.617 247.78 307.337 248.29 306.957 248.73C306.577 249.17 306.097 249.51 305.517 249.75C304.957 249.99 304.287 250.11 303.507 250.11C302.527 250.11 301.757 249.83 301.197 249.27C300.637 248.71 300.357 247.95 300.357 246.99V236.49H297.807V246.69C297.807 247.53 297.887 248.3 298.047 249C298.227 249.68 298.527 250.27 298.947 250.77C299.367 251.27 299.917 251.66 300.597 251.94C301.277 252.2 302.127 252.33 303.147 252.33C304.287 252.33 305.277 252.11 306.117 251.67C306.957 251.21 307.647 250.5 308.187 249.54H308.247V252H310.647ZM314.387 236.49V252H316.937V245.1C316.937 244.1 317.037 243.22 317.237 242.46C317.437 241.68 317.757 241.02 318.197 240.48C318.637 239.94 319.217 239.53 319.937 239.25C320.657 238.97 321.527 238.83 322.547 238.83V236.13C321.167 236.09 320.027 236.37 319.127 236.97C318.227 237.57 317.467 238.5 316.847 239.76H316.787V236.49H314.387ZM334.71 242.76H325.8C325.84 242.16 325.97 241.6 326.19 241.08C326.41 240.54 326.71 240.07 327.09 239.67C327.47 239.27 327.92 238.96 328.44 238.74C328.98 238.5 329.58 238.38 330.24 238.38C330.88 238.38 331.46 238.5 331.98 238.74C332.52 238.96 332.98 239.27 333.36 239.67C333.76 240.05 334.07 240.51 334.29 241.05C334.53 241.59 334.67 242.16 334.71 242.76ZM337.17 247.08H334.65C334.43 248.1 333.97 248.86 333.27 249.36C332.59 249.86 331.71 250.11 330.63 250.11C329.79 250.11 329.06 249.97 328.44 249.69C327.82 249.41 327.31 249.04 326.91 248.58C326.51 248.1 326.22 247.56 326.04 246.96C325.86 246.34 325.78 245.69 325.8 245.01H337.41C337.45 244.07 337.36 243.08 337.14 242.04C336.94 241 336.56 240.04 336 239.16C335.46 238.28 334.73 237.56 333.81 237C332.91 236.42 331.77 236.13 330.39 236.13C329.33 236.13 328.35 236.33 327.45 236.73C326.57 237.13 325.8 237.69 325.14 238.41C324.5 239.13 324 239.98 323.64 240.96C323.28 241.94 323.1 243.02 323.1 244.2C323.14 245.38 323.31 246.47 323.61 247.47C323.93 248.47 324.4 249.33 325.02 250.05C325.64 250.77 326.4 251.33 327.3 251.73C328.22 252.13 329.3 252.33 330.54 252.33C332.3 252.33 333.76 251.89 334.92 251.01C336.08 250.13 336.83 248.82 337.17 247.08Z" fill="#252525"/>
</svg>
