<svg width="1400" height="551" fill="none" xmlns="http://www.w3.org/2000/svg"><path d="M476.391 172.433h7.041c-.819-6.632-3.39-11.587-7.712-14.865-4.247-3.279-9.463-4.918-15.648-4.918-4.396 0-8.308.819-11.736 2.459-3.353 1.639-6.184 3.837-8.494 6.594-2.31 2.757-4.061 5.998-5.253 9.724-1.193 3.651-1.789 7.563-1.789 11.736 0 4.173.596 8.122 1.789 11.848 1.192 3.651 2.943 6.855 5.253 9.612 2.31 2.757 5.141 4.955 8.494 6.595 3.428 1.564 7.34 2.347 11.736 2.347 6.558 0 11.923-1.938 16.095-5.812 4.173-3.95 6.744-9.426 7.713-16.431h-7.042c-.224 2.385-.82 4.583-1.788 6.595-.969 2.012-2.199 3.763-3.689 5.253a17.012 17.012 0 0 1-5.141 3.353 15.614 15.614 0 0 1-6.148 1.23c-3.353 0-6.296-.708-8.83-2.124a19.988 19.988 0 0 1-6.371-5.588c-1.639-2.31-2.906-4.918-3.8-7.824a34.028 34.028 0 0 1-1.229-9.054c0-3.055.41-6.036 1.229-8.942.894-2.98 2.161-5.625 3.8-7.935a19.979 19.979 0 0 1 6.371-5.589c2.534-1.416 5.477-2.124 8.83-2.124 4.695 0 8.346 1.23 10.954 3.689 2.608 2.459 4.396 5.849 5.365 10.171Zm7.439-18.107 23.025 57.45-2.459 6.483a219.24 219.24 0 0 1-1.677 3.689c-.522 1.117-1.155 2.049-1.9 2.794a7.64 7.64 0 0 1-2.683 1.9c-.968.447-2.235.671-3.8.671-.819 0-1.639-.075-2.459-.224a29.426 29.426 0 0 1-2.347-.335v5.924c.596.223 1.267.335 2.012.335.82.074 1.937.149 3.353.223 2.236 0 4.061-.223 5.477-.67 1.49-.373 2.757-1.043 3.8-2.012 1.118-.894 2.124-2.161 3.018-3.8.894-1.565 1.863-3.577 2.906-6.036l25.037-66.392h-7.042l-17.771 49.179-19.002-49.179h-7.488Zm54.867-22.13V212h6.483v-10.954h.223c1.64 4.024 4.285 7.117 7.936 9.277 3.726 2.161 7.936 3.242 12.63 3.242 4.397 0 8.197-.783 11.401-2.347 3.278-1.64 5.998-3.838 8.159-6.595 2.161-2.831 3.763-6.073 4.806-9.724 1.043-3.726 1.565-7.638 1.565-11.736 0-4.098-.522-7.973-1.565-11.624-1.043-3.726-2.645-6.967-4.806-9.724-2.161-2.832-4.881-5.067-8.159-6.706-3.204-1.64-7.004-2.459-11.401-2.459a25.7 25.7 0 0 0-6.259.782 20.087 20.087 0 0 0-5.812 2.459 20.13 20.13 0 0 0-4.806 3.912c-1.341 1.565-2.385 3.39-3.13 5.477h-.223v-33.084h-7.042Zm46.162 50.967c0 2.981-.373 5.961-1.118 8.942-.671 2.906-1.789 5.514-3.353 7.824-1.491 2.31-3.428 4.21-5.812 5.7-2.385 1.416-5.254 2.124-8.607 2.124-3.725 0-6.892-.708-9.5-2.124-2.534-1.49-4.62-3.39-6.259-5.7-1.565-2.31-2.72-4.918-3.465-7.824a40.601 40.601 0 0 1-1.006-8.942c0-2.98.335-5.924 1.006-8.83.745-2.98 1.9-5.626 3.465-7.936 1.639-2.309 3.725-4.172 6.259-5.588 2.608-1.49 5.775-2.236 9.5-2.236 3.353 0 6.222.746 8.607 2.236a17.398 17.398 0 0 1 5.812 5.588c1.564 2.31 2.682 4.956 3.353 7.936a35.424 35.424 0 0 1 1.118 8.83Zm56.133-4.024H603.66a33.247 33.247 0 0 1 1.789-7.6c.969-2.534 2.235-4.732 3.8-6.595a17.048 17.048 0 0 1 5.7-4.582c2.236-1.192 4.807-1.789 7.713-1.789 2.831 0 5.365.597 7.6 1.789a17.038 17.038 0 0 1 5.7 4.582c1.565 1.863 2.757 4.024 3.577 6.483a24.42 24.42 0 0 1 1.453 7.712Zm-37.332 5.924h44.374a45.055 45.055 0 0 0-1.118-11.848c-.894-3.949-2.385-7.414-4.471-10.394-2.012-3.055-4.657-5.514-7.936-7.377-3.278-1.863-7.228-2.794-11.847-2.794-4.546 0-8.495.894-11.848 2.682-3.279 1.714-5.961 4.024-8.048 6.93-2.086 2.831-3.651 6.073-4.694 9.724a43.388 43.388 0 0 0-1.453 11.177c0 4.098.484 8.01 1.453 11.736 1.043 3.651 2.608 6.893 4.694 9.724 2.087 2.757 4.769 4.955 8.048 6.595 3.353 1.564 7.302 2.347 11.848 2.347 7.302 0 12.928-1.789 16.877-5.365 4.024-3.577 6.781-8.644 8.271-15.201h-7.042c-1.117 4.471-3.129 8.047-6.035 10.73-2.906 2.682-6.93 4.024-12.071 4.024-3.354 0-6.222-.708-8.607-2.124-2.384-1.416-4.359-3.204-5.924-5.365-1.564-2.161-2.719-4.583-3.465-7.265-.67-2.757-1.006-5.402-1.006-7.936Zm50.471-30.737V212h7.042v-30.737c0-3.055.521-5.849 1.565-8.383 1.043-2.608 2.496-4.843 4.359-6.706 1.937-1.863 4.21-3.279 6.818-4.247 2.608-1.044 5.514-1.491 8.718-1.342v-7.041c-5.216-.224-9.724.931-13.524 3.465-3.726 2.533-6.483 6.147-8.272 10.841h-.223v-13.524h-6.483Z" fill="#252525"/><path d="m767.998 212 18.219-57.786h-16.319l-10.618 39.12h-.224l-9.836-39.12h-15.424l-9.612 39.232h-.224l-10.618-39.232h-16.766L714.907 212h16.43l9.836-38.785h.223L751.679 212h16.319Zm60.519-35.096h-25.819c.074-1.118.298-2.385.67-3.8.447-1.416 1.155-2.757 2.124-4.024 1.043-1.267 2.384-2.31 4.024-3.13 1.713-.894 3.837-1.341 6.371-1.341 3.874 0 6.743 1.043 8.606 3.13 1.937 2.086 3.279 5.141 4.024 9.165Zm-25.819 10.059h41.69c.298-4.471-.074-8.755-1.118-12.853-1.043-4.099-2.757-7.75-5.141-10.954-2.31-3.204-5.291-5.737-8.942-7.6-3.651-1.938-7.935-2.906-12.853-2.906-4.397 0-8.42.782-12.072 2.347-3.576 1.565-6.669 3.725-9.277 6.483-2.608 2.682-4.62 5.886-6.035 9.612-1.416 3.726-2.124 7.749-2.124 12.071 0 4.471.671 8.569 2.012 12.295 1.416 3.726 3.39 6.93 5.924 9.612 2.533 2.683 5.626 4.769 9.277 6.259 3.651 1.416 7.749 2.124 12.295 2.124 6.557 0 12.145-1.49 16.765-4.471 4.62-2.98 8.048-7.936 10.283-14.865h-13.971c-.522 1.788-1.938 3.502-4.247 5.141-2.31 1.565-5.067 2.347-8.272 2.347-4.47 0-7.898-1.155-10.282-3.465-2.385-2.31-3.689-6.035-3.912-11.177Zm86.647-10.059h-25.82c.075-1.118.298-2.385.671-3.8.447-1.416 1.155-2.757 2.124-4.024 1.043-1.267 2.384-2.31 4.023-3.13 1.714-.894 3.838-1.341 6.371-1.341 3.875 0 6.744 1.043 8.607 3.13 1.937 2.086 3.278 5.141 4.024 9.165Zm-25.82 10.059h41.691c.298-4.471-.075-8.755-1.118-12.853-1.043-4.099-2.757-7.75-5.141-10.954-2.31-3.204-5.291-5.737-8.942-7.6-3.651-1.938-7.936-2.906-12.854-2.906-4.396 0-8.42.782-12.071 2.347-3.576 1.565-6.669 3.725-9.277 6.483-2.608 2.682-4.62 5.886-6.035 9.612-1.416 3.726-2.124 7.749-2.124 12.071 0 4.471.671 8.569 2.012 12.295 1.416 3.726 3.39 6.93 5.924 9.612 2.533 2.683 5.625 4.769 9.277 6.259 3.651 1.416 7.749 2.124 12.294 2.124 6.558 0 12.146-1.49 16.766-4.471 4.62-2.98 8.048-7.936 10.283-14.865h-13.971c-.522 1.788-1.938 3.502-4.248 5.141-2.31 1.565-5.067 2.347-8.271 2.347-4.471 0-7.898-1.155-10.283-3.465-2.384-2.31-3.688-6.035-3.912-11.177Zm49.204-54.767V212h15.872v-19.895l6.147-5.924L950.619 212h19.225l-24.254-36.549 21.795-21.237h-18.777l-20.007 20.79v-42.808h-15.872Z" fill="#ED0000"/><rect x="616" y="344" width="168.311" height="48.403" rx="4.034" fill="#ED0000"/><path d="M661.899 364.937h1.83c-.027-.8-.183-1.485-.468-2.054a3.855 3.855 0 0 0-1.139-1.444 4.578 4.578 0 0 0-1.668-.834 7.728 7.728 0 0 0-2.074-.265 7.26 7.26 0 0 0-1.953.265 5.17 5.17 0 0 0-1.688.772c-.488.34-.882.78-1.18 1.323-.298.528-.448 1.159-.448 1.891 0 .665.129 1.221.387 1.668.271.434.624.793 1.058 1.078a6.92 6.92 0 0 0 1.505.671 34.55 34.55 0 0 0 1.688.448c.583.122 1.153.244 1.709.366a7.088 7.088 0 0 1 1.485.488c.447.19.8.441 1.057.753.271.312.407.719.407 1.22 0 .529-.108.963-.325 1.302-.217.339-.502.61-.855.814-.352.19-.752.325-1.2.406a6.999 6.999 0 0 1-1.302.123 6.187 6.187 0 0 1-1.586-.204 4.064 4.064 0 0 1-1.363-.63 3.439 3.439 0 0 1-.936-1.078c-.23-.448-.345-.977-.345-1.587h-1.831c0 .881.156 1.648.468 2.298a4.635 4.635 0 0 0 1.302 1.587 5.933 5.933 0 0 0 1.912.915 8.599 8.599 0 0 0 2.318.305c.665 0 1.329-.081 1.994-.244a5.746 5.746 0 0 0 1.83-.732 4.3 4.3 0 0 0 1.323-1.342c.352-.556.528-1.221.528-1.994 0-.718-.135-1.315-.406-1.79a3.399 3.399 0 0 0-1.058-1.179 5.252 5.252 0 0 0-1.485-.733 17.674 17.674 0 0 0-1.709-.488 42.081 42.081 0 0 0-1.688-.366 9.92 9.92 0 0 1-1.505-.447c-.434-.177-.787-.401-1.058-.672-.257-.284-.386-.651-.386-1.098 0-.475.088-.868.264-1.18.19-.325.434-.583.732-.773a3.32 3.32 0 0 1 1.058-.407 5.93 5.93 0 0 1 1.2-.122c1.004 0 1.824.238 2.461.712.651.461 1.031 1.214 1.14 2.258Zm4.504-4.251v14.523h1.729v-5.939c0-.475.061-.909.183-1.302.135-.407.332-.76.59-1.058.257-.298.576-.529.956-.691.393-.163.854-.245 1.383-.245.664 0 1.186.19 1.566.57.38.38.569.895.569 1.546v7.119h1.729v-6.916c0-.569-.061-1.085-.183-1.546a2.846 2.846 0 0 0-.59-1.22 2.836 2.836 0 0 0-1.118-.793c-.461-.19-1.038-.285-1.729-.285a4.97 4.97 0 0 0-.977.102 4.169 4.169 0 0 0-.956.325 2.987 2.987 0 0 0-.813.549 2.207 2.207 0 0 0-.57.814h-.04v-5.553h-1.729Zm12.563 9.275c0-.637.082-1.2.244-1.688.177-.502.414-.922.712-1.261a3.013 3.013 0 0 1 1.038-.773 3.191 3.191 0 0 1 2.542 0c.407.176.76.434 1.058.773.298.339.529.759.691 1.261.177.488.265 1.051.265 1.688s-.088 1.207-.265 1.709a3.547 3.547 0 0 1-.691 1.241 3.077 3.077 0 0 1-1.058.752 3.191 3.191 0 0 1-2.542 0 3.138 3.138 0 0 1-1.038-.752 3.838 3.838 0 0 1-.712-1.241 5.557 5.557 0 0 1-.244-1.709Zm-1.83 0c0 .773.108 1.492.325 2.156.217.665.542 1.248.976 1.75.434.488.97.874 1.607 1.159.638.271 1.37.407 2.197.407.841 0 1.573-.136 2.197-.407a4.67 4.67 0 0 0 1.607-1.159 5.026 5.026 0 0 0 .976-1.75 6.904 6.904 0 0 0 .325-2.156c0-.773-.108-1.491-.325-2.156a4.791 4.791 0 0 0-.976-1.749 4.545 4.545 0 0 0-1.607-1.18c-.624-.285-1.356-.427-2.197-.427-.827 0-1.559.142-2.197.427a4.545 4.545 0 0 0-1.607 1.18 4.791 4.791 0 0 0-.976 1.749 6.908 6.908 0 0 0-.325 2.156Zm12.31-5.268v14.523h1.729v-5.411h.041c.189.312.42.577.691.794.285.203.583.366.895.488.312.122.624.21.936.264.325.055.617.082.874.082.801 0 1.499-.143 2.096-.427a4.166 4.166 0 0 0 1.505-1.16 4.868 4.868 0 0 0 .895-1.749c.203-.665.305-1.37.305-2.116 0-.745-.102-1.45-.305-2.115a5.142 5.142 0 0 0-.916-1.749 4.169 4.169 0 0 0-1.505-1.221c-.596-.298-1.302-.447-2.115-.447-.732 0-1.404.136-2.014.407a2.54 2.54 0 0 0-1.342 1.261h-.041v-1.424h-1.729Zm8.136 5.166c0 .516-.054 1.017-.163 1.506a3.963 3.963 0 0 1-.528 1.301c-.245.38-.57.685-.977.916-.393.23-.888.346-1.485.346-.596 0-1.105-.109-1.525-.326a3.163 3.163 0 0 1-1.038-.895 3.83 3.83 0 0 1-.569-1.261 6.184 6.184 0 0 1-.183-1.505c0-.488.054-.97.163-1.444a3.83 3.83 0 0 1 .569-1.261c.258-.38.59-.685.997-.916.407-.23.902-.346 1.485-.346.556 0 1.037.109 1.444.326.42.217.759.508 1.017.875a3.6 3.6 0 0 1 .59 1.261c.135.461.203.935.203 1.423Zm9.786-9.173v14.523h1.83v-11.655h.041l7.587 11.655h2.116v-14.523h-1.831v11.777h-.041l-7.648-11.777h-2.054Zm15.676 9.275c0-.637.081-1.2.244-1.688.176-.502.413-.922.712-1.261a3.01 3.01 0 0 1 1.037-.773 3.196 3.196 0 0 1 2.543 0c.406.176.759.434 1.057.773.299.339.529.759.692 1.261.176.488.264 1.051.264 1.688s-.088 1.207-.264 1.709a3.549 3.549 0 0 1-.692 1.241 3.083 3.083 0 0 1-1.057.752 3.196 3.196 0 0 1-2.543 0 3.134 3.134 0 0 1-1.037-.752 3.802 3.802 0 0 1-.712-1.241c-.163-.502-.244-1.072-.244-1.709Zm-1.831 0c0 .773.109 1.492.326 2.156.217.665.542 1.248.976 1.75a4.66 4.66 0 0 0 1.607 1.159c.637.271 1.369.407 2.197.407.84 0 1.573-.136 2.196-.407a4.66 4.66 0 0 0 1.607-1.159c.434-.502.76-1.085.977-1.75a6.904 6.904 0 0 0 .325-2.156c0-.773-.108-1.491-.325-2.156a4.793 4.793 0 0 0-.977-1.749 4.536 4.536 0 0 0-1.607-1.18c-.623-.285-1.356-.427-2.196-.427-.828 0-1.56.142-2.197.427a4.536 4.536 0 0 0-1.607 1.18 4.791 4.791 0 0 0-.976 1.749 6.908 6.908 0 0 0-.326 2.156Zm22.664 5.248 3.356-10.516h-1.79l-2.359 8.604h-.041l-2.197-8.604h-1.892l-2.115 8.604h-.041l-2.379-8.604h-1.912l3.376 10.516h1.871l2.116-8.36h.04l2.136 8.36h1.831Z" fill="#fff"/><path d="M464.703 266.36h-2.772c.043 1.044.261 1.935.652 2.674a5.081 5.081 0 0 0 1.565 1.761c.653.435 1.403.75 2.251.946a11.84 11.84 0 0 0 2.674.294c.848 0 1.696-.087 2.543-.261.87-.153 1.642-.435 2.316-.848a4.776 4.776 0 0 0 1.663-1.631c.435-.674.652-1.522.652-2.543 0-.805-.163-1.479-.489-2.022a3.825 3.825 0 0 0-1.239-1.337 6.054 6.054 0 0 0-1.761-.881 19.727 19.727 0 0 0-2.022-.554 59.463 59.463 0 0 0-1.957-.424 14.196 14.196 0 0 1-1.761-.522 4.692 4.692 0 0 1-1.304-.783 1.639 1.639 0 0 1-.489-1.206c0-.435.108-.783.326-1.044.217-.283.5-.5.848-.652a3.875 3.875 0 0 1 1.141-.359 8.605 8.605 0 0 1 1.272-.098c.456 0 .902.055 1.337.163.456.087.87.24 1.239.457.37.217.674.511.913.88.239.348.381.794.424 1.338h2.772c-.065-1.022-.282-1.87-.652-2.544a4.194 4.194 0 0 0-1.5-1.631c-.609-.413-1.316-.695-2.12-.848a12.5 12.5 0 0 0-2.641-.26c-.74 0-1.49.097-2.251.293a6.43 6.43 0 0 0-2.021.848 4.725 4.725 0 0 0-1.468 1.467c-.37.609-.554 1.337-.554 2.185 0 1.087.271 1.935.815 2.544a5.689 5.689 0 0 0 2.022 1.435c.826.326 1.717.587 2.674.783.957.173 1.837.38 2.641.619.827.218 1.511.511 2.055.881.543.369.815.913.815 1.63 0 .522-.13.957-.391 1.305a2.523 2.523 0 0 1-1.011.75 4.774 4.774 0 0 1-1.305.358 10.01 10.01 0 0 1-1.369.098c-.565 0-1.12-.054-1.663-.163-.522-.108-1-.282-1.435-.522a3.197 3.197 0 0 1-1.011-1.01c-.261-.435-.402-.957-.424-1.566Zm26.317-4.728h-9.685a5.605 5.605 0 0 1 .423-1.827 4.87 4.87 0 0 1 .979-1.532 4.319 4.319 0 0 1 1.467-1.011 4.767 4.767 0 0 1 1.957-.392c.696 0 1.326.131 1.891.392a4.26 4.26 0 0 1 1.501 1.011c.434.413.771.913 1.01 1.5.261.587.414 1.206.457 1.859Zm2.674 4.696h-2.739c-.239 1.108-.739 1.934-1.5 2.478-.74.544-1.696.815-2.87.815-.913 0-1.707-.152-2.381-.456-.674-.305-1.228-.707-1.663-1.207a4.947 4.947 0 0 1-.946-1.761 6.847 6.847 0 0 1-.26-2.12h12.62a12.961 12.961 0 0 0-.293-3.228 8.92 8.92 0 0 0-1.24-3.131 7.037 7.037 0 0 0-2.38-2.348c-.979-.63-2.218-.945-3.718-.945-1.152 0-2.218.217-3.196.652a7.703 7.703 0 0 0-2.511 1.826c-.696.783-1.239 1.707-1.63 2.772-.392 1.065-.587 2.239-.587 3.522.043 1.283.228 2.467.554 3.555.348 1.087.859 2.021 1.533 2.804a6.944 6.944 0 0 0 2.478 1.826c1 .435 2.174.653 3.522.653 1.913 0 3.5-.479 4.761-1.435 1.261-.957 2.077-2.381 2.446-4.272Zm10.733 5.348 6.163-16.86h-2.902l-4.598 14.055h-.066l-4.728-14.055h-3.098l6.261 16.86h2.968Zm20.414-10.044h-9.685a5.606 5.606 0 0 1 .424-1.827 4.85 4.85 0 0 1 .978-1.532 4.313 4.313 0 0 1 1.468-1.011 4.762 4.762 0 0 1 1.956-.392c.696 0 1.326.131 1.892.392a4.246 4.246 0 0 1 1.5 1.011c.435.413.772.913 1.011 1.5.261.587.413 1.206.456 1.859Zm2.674 4.696h-2.739c-.239 1.108-.739 1.934-1.5 2.478-.739.544-1.696.815-2.87.815-.913 0-1.706-.152-2.38-.456-.674-.305-1.229-.707-1.664-1.207a4.945 4.945 0 0 1-.945-1.761 6.817 6.817 0 0 1-.261-2.12h12.62a12.914 12.914 0 0 0-.293-3.228 8.938 8.938 0 0 0-1.239-3.131 7.04 7.04 0 0 0-2.381-2.348c-.978-.63-2.218-.945-3.718-.945-1.152 0-2.217.217-3.196.652a7.703 7.703 0 0 0-2.511 1.826c-.695.783-1.239 1.707-1.63 2.772-.392 1.065-.587 2.239-.587 3.522.043 1.283.228 2.467.554 3.555.348 1.087.859 2.021 1.533 2.804a6.944 6.944 0 0 0 2.478 1.826c1 .435 2.174.653 3.522.653 1.914 0 3.501-.479 4.762-1.435 1.261-.957 2.076-2.381 2.445-4.272Zm3.135-11.512v16.86h2.772v-9.523c0-.761.097-1.456.293-2.087a4.967 4.967 0 0 1 .946-1.696 4.161 4.161 0 0 1 1.532-1.108c.631-.261 1.37-.392 2.218-.392 1.065 0 1.902.305 2.511.913.609.609.913 1.435.913 2.479v11.414h2.772v-11.088c0-.913-.098-1.739-.293-2.478-.174-.761-.49-1.414-.946-1.957-.457-.544-1.054-.968-1.794-1.272-.739-.304-1.663-.456-2.772-.456-2.5 0-4.326 1.021-5.478 3.065h-.066v-2.674h-2.608Zm29.219 8.577c0-.827.087-1.631.261-2.414a6.378 6.378 0 0 1 .847-2.087 4.415 4.415 0 0 1 1.566-1.467c.652-.37 1.446-.555 2.38-.555.957 0 1.772.185 2.446.555a4.453 4.453 0 0 1 1.631 1.402c.435.587.75 1.272.945 2.055.196.76.294 1.554.294 2.38a9.25 9.25 0 0 1-.294 2.316 5.994 5.994 0 0 1-.88 2.054 4.848 4.848 0 0 1-1.598 1.435c-.652.369-1.446.554-2.381.554-.891 0-1.674-.174-2.348-.521a4.838 4.838 0 0 1-1.63-1.403 6.742 6.742 0 0 1-.946-1.989 9.246 9.246 0 0 1-.293-2.315Zm13.044 8.283v-23.285h-2.772v8.675h-.065a4.16 4.16 0 0 0-1.141-1.239 5.35 5.35 0 0 0-1.403-.815c-.5-.218-1-.37-1.5-.457-.5-.087-.967-.13-1.402-.13-1.283 0-2.413.239-3.392.717a6.887 6.887 0 0 0-2.413 1.891c-.63.783-1.109 1.707-1.435 2.772a12.31 12.31 0 0 0-.456 3.392c0 1.196.163 2.326.489 3.391.326 1.066.804 2.001 1.435 2.805a7.217 7.217 0 0 0 2.413 1.924c.978.478 2.12.718 3.424.718 1.174 0 2.25-.207 3.229-.62.978-.413 1.695-1.087 2.152-2.022h.065v2.283h2.772Zm19.201-.065c-.479.282-1.142.424-1.99.424-.717 0-1.293-.196-1.728-.587-.413-.414-.62-1.077-.62-1.99-.761.913-1.652 1.576-2.674 1.99-1 .391-2.087.587-3.261.587a8.975 8.975 0 0 1-2.185-.261 5.046 5.046 0 0 1-1.761-.816 4.088 4.088 0 0 1-1.206-1.435c-.283-.608-.424-1.337-.424-2.184 0-.957.163-1.74.489-2.348a4.184 4.184 0 0 1 1.272-1.468 5.91 5.91 0 0 1 1.826-.88 23.124 23.124 0 0 1 2.12-.49 21.58 21.58 0 0 1 2.152-.326 15.466 15.466 0 0 0 1.826-.326c.522-.152.935-.359 1.239-.619.305-.283.457-.685.457-1.207 0-.609-.12-1.098-.359-1.468a2.198 2.198 0 0 0-.88-.847 3.417 3.417 0 0 0-1.207-.392 8.816 8.816 0 0 0-1.304-.098c-1.174 0-2.153.229-2.935.685-.783.435-1.207 1.272-1.272 2.511h-2.772c.043-1.043.261-1.924.652-2.641a4.8 4.8 0 0 1 1.565-1.729 6.422 6.422 0 0 1 2.218-.978c.848-.196 1.75-.293 2.707-.293a15.4 15.4 0 0 1 2.25.163 5.727 5.727 0 0 1 2.054.684 3.794 3.794 0 0 1 1.468 1.403c.369.608.554 1.402.554 2.38v8.675c0 .652.033 1.13.098 1.435.087.304.348.456.783.456.239 0 .521-.054.848-.163v2.153Zm-4.501-8.642c-.348.261-.804.456-1.369.587-.566.108-1.164.206-1.794.293-.609.065-1.228.152-1.859.261a6.436 6.436 0 0 0-1.696.457c-.5.217-.913.532-1.239.945-.304.392-.456.935-.456 1.631 0 .456.087.848.261 1.174.195.304.434.554.717.75.304.196.652.337 1.044.424.391.087.804.13 1.239.13.913 0 1.696-.119 2.348-.358.652-.261 1.185-.577 1.598-.946.413-.391.717-.805.913-1.239.195-.457.293-.881.293-1.272v-2.837Zm13.7 10.957a15.914 15.914 0 0 1-.978 2.087c-.304.565-.652 1.022-1.043 1.37-.37.369-.794.63-1.272.782-.457.174-.989.261-1.598.261-.326 0-.652-.021-.978-.065a4.615 4.615 0 0 1-.946-.228v-2.544c.239.109.511.196.815.261.326.087.598.13.815.13.566 0 1.033-.141 1.403-.423.391-.261.684-.642.88-1.142l1.141-2.837-6.685-16.762h3.131l4.924 13.794h.065l4.729-13.794h2.935l-7.338 19.11Zm11.382-7.566h-2.772c.043 1.044.261 1.935.652 2.674a5.081 5.081 0 0 0 1.565 1.761c.653.435 1.403.75 2.251.946.847.196 1.739.294 2.674.294.848 0 1.695-.087 2.543-.261.87-.153 1.642-.435 2.316-.848a4.784 4.784 0 0 0 1.663-1.631c.435-.674.652-1.522.652-2.543 0-.805-.163-1.479-.489-2.022a3.834 3.834 0 0 0-1.239-1.337 6.054 6.054 0 0 0-1.761-.881 19.798 19.798 0 0 0-2.022-.554 59.463 59.463 0 0 0-1.957-.424 14.196 14.196 0 0 1-1.761-.522 4.692 4.692 0 0 1-1.304-.783 1.639 1.639 0 0 1-.489-1.206c0-.435.108-.783.326-1.044.217-.283.5-.5.848-.652a3.875 3.875 0 0 1 1.141-.359 8.605 8.605 0 0 1 1.272-.098c.456 0 .902.055 1.337.163.456.087.869.24 1.239.457.37.217.674.511.913.88.239.348.381.794.424 1.338h2.772c-.065-1.022-.283-1.87-.652-2.544a4.194 4.194 0 0 0-1.5-1.631c-.609-.413-1.316-.695-2.12-.848a12.503 12.503 0 0 0-2.642-.26c-.739 0-1.489.097-2.25.293a6.446 6.446 0 0 0-2.022.848 4.722 4.722 0 0 0-1.467 1.467c-.37.609-.554 1.337-.554 2.185 0 1.087.271 1.935.815 2.544a5.689 5.689 0 0 0 2.022 1.435c.826.326 1.717.587 2.674.783.956.173 1.837.38 2.641.619.826.218 1.511.511 2.055.881.543.369.815.913.815 1.63 0 .522-.13.957-.391 1.305a2.523 2.523 0 0 1-1.011.75 4.783 4.783 0 0 1-1.305.358 10.01 10.01 0 0 1-1.369.098c-.566 0-1.12-.054-1.663-.163a5.07 5.07 0 0 1-1.435-.522 3.197 3.197 0 0 1-1.011-1.01c-.261-.435-.402-.957-.424-1.566Zm25.708-3.098c0-1.022.13-1.924.391-2.707.283-.804.663-1.478 1.141-2.021a4.839 4.839 0 0 1 1.664-1.24 5.122 5.122 0 0 1 2.054-.424c.718 0 1.392.142 2.022.424a4.762 4.762 0 0 1 1.696 1.24c.478.543.848 1.217 1.109 2.021.282.783.424 1.685.424 2.707 0 1.022-.142 1.935-.424 2.739-.261.783-.631 1.446-1.109 1.99a4.935 4.935 0 0 1-1.696 1.206 4.877 4.877 0 0 1-2.022.424 5.105 5.105 0 0 1-2.054-.424 5.018 5.018 0 0 1-1.664-1.206c-.478-.544-.858-1.207-1.141-1.99-.261-.804-.391-1.717-.391-2.739Zm-2.935 0c0 1.239.174 2.392.522 3.457.347 1.065.869 2 1.565 2.804a7.461 7.461 0 0 0 2.576 1.859c1.022.435 2.196.653 3.522.653 1.348 0 2.522-.218 3.522-.653 1.022-.456 1.881-1.076 2.576-1.859a8.055 8.055 0 0 0 1.566-2.804c.348-1.065.522-2.218.522-3.457 0-1.239-.174-2.391-.522-3.457-.348-1.087-.87-2.022-1.566-2.804a7.27 7.27 0 0 0-2.576-1.892c-1-.456-2.174-.684-3.522-.684-1.326 0-2.5.228-3.522.684a7.28 7.28 0 0 0-2.576 1.892c-.696.782-1.218 1.717-1.565 2.804-.348 1.066-.522 2.218-.522 3.457Zm20.78-6v14.414h2.772v-14.414h3.261v-2.446h-3.261v-2.348c0-.739.185-1.239.554-1.5.37-.261.892-.392 1.566-.392.239 0 .5.022.782.066.283.021.544.076.783.163v-2.414a4.818 4.818 0 0 0-.913-.195 6.636 6.636 0 0 0-.88-.065c-1.522 0-2.685.358-3.49 1.076-.783.695-1.174 1.728-1.174 3.098v2.511h-2.837v2.446h2.837Zm17.259-8.871v23.285h4.63v-8.838c0-1.717.283-2.946.848-3.685.565-.761 1.479-1.141 2.74-1.141 1.108 0 1.88.348 2.315 1.043.435.674.652 1.707.652 3.098v9.523h4.631v-10.371c0-1.043-.098-1.989-.294-2.837-.174-.869-.489-1.598-.945-2.185-.457-.608-1.087-1.076-1.892-1.402-.782-.348-1.793-.522-3.033-.522-.869 0-1.761.229-2.674.685-.913.435-1.663 1.142-2.25 2.12h-.098v-8.773h-4.63Zm35.147 23.285v-16.86h-4.631v8.837c0 1.718-.282 2.957-.848 3.718-.565.739-1.478 1.109-2.739 1.109-1.109 0-1.881-.337-2.315-1.011-.435-.696-.653-1.739-.653-3.131v-9.522h-4.63v10.37c0 1.044.086 2 .26 2.87.196.848.522 1.576.979 2.185.456.587 1.076 1.043 1.859 1.37.804.326 1.826.489 3.065.489.978 0 1.935-.218 2.87-.652.935-.435 1.696-1.142 2.283-2.12h.097v2.348h4.403Zm11.374-3.979c-.718 0-1.316-.152-1.794-.456a3.802 3.802 0 0 1-1.174-1.174 5.448 5.448 0 0 1-.619-1.598 10.347 10.347 0 0 1-.163-1.826c0-.631.065-1.229.195-1.794a4.713 4.713 0 0 1 .685-1.533 3.682 3.682 0 0 1 1.174-1.076c.478-.261 1.044-.391 1.696-.391.761 0 1.391.141 1.891.424.5.282.902.663 1.207 1.141.304.478.522 1.033.652 1.663.131.609.196 1.261.196 1.957a5.95 5.95 0 0 1-.261 1.761 4.374 4.374 0 0 1-.718 1.467 3.615 3.615 0 0 1-1.239 1.044c-.5.261-1.076.391-1.728.391Zm8.348 2.903v-15.784h-4.402v2.25h-.065c-.566-.978-1.272-1.674-2.12-2.087-.826-.413-1.794-.62-2.903-.62-1.174 0-2.217.229-3.13.685a6.65 6.65 0 0 0-2.25 1.859c-.609.761-1.077 1.652-1.403 2.674-.304 1-.456 2.044-.456 3.131 0 1.152.13 2.25.391 3.293a8.03 8.03 0 0 0 1.305 2.707 6.41 6.41 0 0 0 2.25 1.826c.913.435 2 .653 3.261.653a6.96 6.96 0 0 0 2.902-.62 4.668 4.668 0 0 0 2.153-1.989h.065v2.217c.021 1.196-.272 2.185-.881 2.968-.587.783-1.532 1.174-2.837 1.174-.826 0-1.554-.174-2.185-.522-.63-.326-1.054-.924-1.272-1.793h-4.598c.065.956.326 1.771.783 2.445a5.937 5.937 0 0 0 1.761 1.696c.717.435 1.5.75 2.348.946a10.48 10.48 0 0 0 2.543.326c1.935 0 3.479-.261 4.631-.783 1.153-.522 2.033-1.163 2.642-1.924.608-.739 1-1.543 1.174-2.413.195-.87.293-1.641.293-2.315Zm15.077-9.164h-7.533a5.98 5.98 0 0 1 .196-1.109c.13-.413.337-.804.619-1.174a3.567 3.567 0 0 1 1.174-.913c.5-.261 1.12-.391 1.859-.391 1.131 0 1.968.304 2.511.913.566.609.957 1.5 1.174 2.674Zm-7.533 2.935h12.164a11.907 11.907 0 0 0-.326-3.75 9.006 9.006 0 0 0-1.5-3.196 7.195 7.195 0 0 0-2.609-2.218c-1.065-.565-2.315-.848-3.75-.848-1.283 0-2.457.229-3.522.685a8.21 8.21 0 0 0-2.707 1.892 8.082 8.082 0 0 0-1.761 2.804c-.413 1.087-.62 2.261-.62 3.522 0 1.305.196 2.5.587 3.587.413 1.087.99 2.022 1.729 2.805.739.783 1.641 1.391 2.706 1.826 1.066.413 2.261.62 3.588.62 1.913 0 3.543-.435 4.891-1.305 1.348-.869 2.348-2.315 3.001-4.337h-4.077c-.152.522-.565 1.022-1.239 1.5-.674.457-1.478.685-2.413.685-1.305 0-2.305-.337-3.001-1.011-.695-.674-1.076-1.761-1.141-3.261Zm23.987-15.98v23.285h4.631v-8.838c0-1.717.282-2.946.847-3.685.566-.761 1.479-1.141 2.74-1.141 1.109 0 1.88.348 2.315 1.043.435.674.652 1.707.652 3.098v9.523h4.631v-10.371c0-1.043-.098-1.989-.293-2.837-.174-.869-.489-1.598-.946-2.185-.457-.608-1.087-1.076-1.891-1.402-.783-.348-1.794-.522-3.033-.522-.87 0-1.761.229-2.674.685-.914.435-1.664 1.142-2.251 2.12h-.097v-8.773h-4.631Zm23.44 14.871c0-.674.065-1.337.195-1.989a5.295 5.295 0 0 1 .653-1.729c.326-.5.75-.902 1.272-1.206.521-.326 1.174-.489 1.956-.489.783 0 1.435.163 1.957.489.543.304.967.706 1.272 1.206a4.9 4.9 0 0 1 .685 1.729c.13.652.195 1.315.195 1.989 0 .674-.065 1.337-.195 1.989a5.247 5.247 0 0 1-.685 1.729c-.305.5-.729.902-1.272 1.206-.522.305-1.174.457-1.957.457-.782 0-1.435-.152-1.956-.457a3.748 3.748 0 0 1-1.272-1.206 5.693 5.693 0 0 1-.653-1.729 10.147 10.147 0 0 1-.195-1.989Zm-4.631 0c0 1.348.207 2.566.62 3.653a8.091 8.091 0 0 0 1.761 2.804 7.816 7.816 0 0 0 2.739 1.761c1.065.413 2.261.62 3.587.62s2.522-.207 3.587-.62c1.087-.413 2.011-1 2.772-1.761a8.091 8.091 0 0 0 1.761-2.804c.413-1.087.62-2.305.62-3.653 0-1.348-.207-2.565-.62-3.652-.413-1.109-1-2.044-1.761-2.805-.761-.783-1.685-1.38-2.772-1.793-1.065-.435-2.261-.653-3.587-.653s-2.522.218-3.587.653a7.592 7.592 0 0 0-2.739 1.793c-.761.761-1.348 1.696-1.761 2.805-.413 1.087-.62 2.304-.62 3.652Zm20.588-8.446v16.86h4.631v-9.784c0-.826.12-1.489.359-1.989.239-.522.522-.913.848-1.174.348-.282.695-.467 1.043-.554.37-.109.663-.163.881-.163.739 0 1.293.13 1.663.391.391.239.663.565.815.978.174.413.272.87.294 1.37.021.478.032.968.032 1.468v9.457h4.631v-9.392c0-.522.033-1.033.098-1.533a4.25 4.25 0 0 1 .456-1.37c.24-.413.555-.739.946-.978.413-.261.946-.391 1.598-.391.652 0 1.163.108 1.533.326.391.217.685.511.88.88.196.37.316.805.359 1.305.044.5.065 1.032.065 1.598v9.555h4.631v-11.284c0-1.087-.152-2.011-.456-2.772-.305-.782-.729-1.413-1.272-1.891a5.006 5.006 0 0 0-1.957-1.044 9.007 9.007 0 0 0-2.478-.326c-1.174 0-2.196.283-3.066.848-.848.565-1.522 1.218-2.022 1.957-.456-1.044-1.13-1.772-2.022-2.185-.869-.413-1.837-.62-2.902-.62-1.109 0-2.098.239-2.968.718-.848.478-1.576 1.152-2.185 2.022h-.065v-2.283h-4.37Zm40.772 6.62h-7.533a5.98 5.98 0 0 1 .196-1.109c.13-.413.337-.804.619-1.174a3.567 3.567 0 0 1 1.174-.913c.5-.261 1.12-.391 1.859-.391 1.131 0 1.968.304 2.511.913.566.609.957 1.5 1.174 2.674Zm-7.533 2.935h12.164a11.907 11.907 0 0 0-.326-3.75 9.006 9.006 0 0 0-1.5-3.196 7.195 7.195 0 0 0-2.609-2.218c-1.065-.565-2.315-.848-3.75-.848-1.283 0-2.457.229-3.522.685a8.21 8.21 0 0 0-2.707 1.892 8.082 8.082 0 0 0-1.761 2.804c-.413 1.087-.62 2.261-.62 3.522 0 1.305.196 2.5.587 3.587.413 1.087.99 2.022 1.729 2.805.739.783 1.641 1.391 2.707 1.826 1.065.413 2.261.62 3.587.62 1.913 0 3.543-.435 4.891-1.305 1.348-.869 2.348-2.315 3.001-4.337h-4.077c-.152.522-.565 1.022-1.239 1.5-.674.457-1.478.685-2.413.685-1.305 0-2.305-.337-3-1.011-.696-.674-1.077-1.761-1.142-3.261Zm35.955-1.174c0 .696-.065 1.37-.196 2.022a5.653 5.653 0 0 1-.652 1.761c-.304.5-.717.902-1.239 1.206-.5.305-1.13.457-1.891.457-.718 0-1.337-.152-1.859-.457a4.599 4.599 0 0 1-1.272-1.239 5.797 5.797 0 0 1-.718-1.761 8.59 8.59 0 0 1-.228-1.956c0-.696.065-1.359.196-1.99a5.84 5.84 0 0 1 .685-1.728c.326-.5.75-.902 1.272-1.207.521-.304 1.163-.456 1.924-.456.761 0 1.391.152 1.891.456.5.305.902.707 1.207 1.207.326.478.554 1.043.684 1.696.131.63.196 1.293.196 1.989Zm.065 6.326v2.153h4.403v-23.285h-4.631v8.479h-.065a4.849 4.849 0 0 0-2.152-1.858 6.392 6.392 0 0 0-2.838-.653c-1.239 0-2.326.25-3.261.75a7 7 0 0 0-2.348 1.924c-.608.805-1.076 1.74-1.402 2.805a11.605 11.605 0 0 0-.457 3.261c0 1.174.153 2.305.457 3.392a9.737 9.737 0 0 0 1.402 2.902 7.073 7.073 0 0 0 2.381 1.989c.956.479 2.065.718 3.326.718 1.109 0 2.098-.196 2.968-.587.891-.413 1.609-1.076 2.152-1.99h.065Zm19.252-8.087h-7.534a5.98 5.98 0 0 1 .196-1.109 3.83 3.83 0 0 1 .62-1.174 3.546 3.546 0 0 1 1.174-.913c.5-.261 1.119-.391 1.859-.391 1.13 0 1.967.304 2.511.913.565.609.956 1.5 1.174 2.674Zm-7.534 2.935h12.164a11.878 11.878 0 0 0-.326-3.75 9.006 9.006 0 0 0-1.5-3.196 7.187 7.187 0 0 0-2.609-2.218c-1.065-.565-2.315-.848-3.75-.848-1.283 0-2.457.229-3.522.685a8.21 8.21 0 0 0-2.707 1.892 8.082 8.082 0 0 0-1.761 2.804c-.413 1.087-.619 2.261-.619 3.522 0 1.305.195 2.5.587 3.587.413 1.087.989 2.022 1.728 2.805.739.783 1.641 1.391 2.707 1.826 1.065.413 2.261.62 3.587.62 1.913 0 3.544-.435 4.892-1.305 1.348-.869 2.348-2.315 3-4.337h-4.076c-.153.522-.566 1.022-1.24 1.5-.674.457-1.478.685-2.413.685-1.304 0-2.304-.337-3-1.011-.696-.674-1.076-1.761-1.142-3.261Zm14.715-4.37c.065-1.087.337-1.989.815-2.707a5.558 5.558 0 0 1 1.827-1.728 7.674 7.674 0 0 1 2.478-.913c.935-.196 1.87-.294 2.805-.294.848 0 1.706.066 2.576.196.87.109 1.663.337 2.381.685a4.643 4.643 0 0 1 1.761 1.467c.456.609.684 1.424.684 2.446v8.773c0 .76.044 1.489.131 2.184.087.696.239 1.218.456 1.566h-4.696a10.499 10.499 0 0 1-.228-.783 11.648 11.648 0 0 1-.098-.848 6.03 6.03 0 0 1-2.609 1.598c-1 .305-2.021.457-3.065.457a8.266 8.266 0 0 1-2.25-.294 5.133 5.133 0 0 1-1.826-.913 4.416 4.416 0 0 1-1.24-1.565c-.282-.631-.424-1.381-.424-2.25 0-.957.163-1.74.49-2.348.347-.631.782-1.131 1.304-1.5a5.79 5.79 0 0 1 1.826-.816 17.957 17.957 0 0 1 2.087-.456 34.996 34.996 0 0 1 2.055-.261 12.218 12.218 0 0 0 1.793-.294c.522-.13.935-.315 1.24-.554.304-.261.445-.631.424-1.109 0-.5-.087-.891-.261-1.174a1.535 1.535 0 0 0-.652-.685 2.136 2.136 0 0 0-.946-.326 6.231 6.231 0 0 0-1.142-.098c-.913 0-1.63.196-2.152.587-.522.392-.826 1.044-.913 1.957h-4.631Zm10.697 3.424a2.269 2.269 0 0 1-.75.424 8.61 8.61 0 0 1-.946.228c-.326.066-.674.12-1.044.163a19.22 19.22 0 0 0-1.108.164 9.255 9.255 0 0 0-1.044.26c-.326.109-.62.261-.881.457a2.016 2.016 0 0 0-.587.685c-.152.282-.228.641-.228 1.076 0 .413.076.761.228 1.044.153.282.359.51.62.684.261.153.565.261.913.326.348.066.707.098 1.076.098.913 0 1.62-.152 2.12-.456.5-.305.87-.663 1.109-1.076.239-.435.38-.87.424-1.305a7.45 7.45 0 0 0 .098-1.043v-1.729Zm8.355-15.034v23.285h4.631v-23.285h-4.631Zm11.865 17.806h-4.403c.044 1.131.294 2.076.75 2.837a5.882 5.882 0 0 0 1.794 1.794 7.755 7.755 0 0 0 2.511.978c.935.196 1.891.294 2.87.294.956 0 1.891-.098 2.804-.294.935-.174 1.761-.489 2.479-.945a5.261 5.261 0 0 0 1.728-1.794c.456-.761.685-1.696.685-2.805 0-.782-.152-1.435-.457-1.956a3.946 3.946 0 0 0-1.206-1.337 6.174 6.174 0 0 0-1.729-.881 18.496 18.496 0 0 0-1.956-.554 77.304 77.304 0 0 0-1.925-.424 19.557 19.557 0 0 1-1.695-.424c-.479-.174-.87-.391-1.174-.652a1.269 1.269 0 0 1-.457-1.011c0-.348.087-.62.261-.816.174-.217.381-.38.62-.489.261-.108.543-.174.848-.195.304-.044.587-.066.847-.066.827 0 1.544.163 2.153.49.609.304.945.902 1.011 1.793h4.402c-.087-1.043-.359-1.902-.815-2.576a5.064 5.064 0 0 0-1.663-1.663c-.674-.413-1.446-.707-2.316-.881a13.107 13.107 0 0 0-2.641-.261c-.913 0-1.805.087-2.674.261a6.867 6.867 0 0 0-2.348.848 4.68 4.68 0 0 0-1.696 1.631c-.413.695-.62 1.587-.62 2.674 0 .739.153 1.369.457 1.891.304.5.707.924 1.207 1.272.5.326 1.065.598 1.695.815.653.196 1.316.37 1.99.522 1.652.348 2.935.696 3.848 1.044.935.347 1.402.869 1.402 1.565 0 .413-.098.761-.294 1.044-.195.26-.445.478-.75.652a3.97 3.97 0 0 1-.978.358 5.42 5.42 0 0 1-2.348-.065 3.655 3.655 0 0 1-1.109-.489 3.156 3.156 0 0 1-.815-.88c-.196-.37-.293-.805-.293-1.305Z" fill="#252525"/></svg>