<svg width="1412" height="554" viewBox="0 0 1412 554" fill="none" xmlns="http://www.w3.org/2000/svg">
<path d="M78.416 98.457V164H84.1992V136.369C84.2604 134.044 84.6276 131.902 85.3008 129.943C86.0352 127.924 87.0143 126.21 88.2383 124.803C89.5235 123.334 91.0534 122.202 92.8281 121.406C94.6641 120.549 96.7448 120.121 99.0703 120.121C101.396 120.121 103.324 120.488 104.854 121.223C106.445 121.957 107.699 122.967 108.617 124.252C109.535 125.537 110.178 127.067 110.545 128.842C110.912 130.555 111.096 132.422 111.096 134.441V164H116.879V133.523C116.879 130.708 116.604 128.169 116.053 125.904C115.502 123.64 114.553 121.743 113.207 120.213C111.861 118.622 110.055 117.398 107.791 116.541C105.588 115.684 102.834 115.256 99.5293 115.256C96.1634 115.256 93.0729 116.143 90.2578 117.918C87.4427 119.631 85.4844 121.926 84.3828 124.803H84.1992V98.457H78.416ZM145.071 120.121C147.825 120.121 150.242 120.702 152.323 121.865C154.403 123.028 156.117 124.558 157.463 126.455C158.871 128.352 159.911 130.525 160.584 132.973C161.319 135.359 161.686 137.807 161.686 140.316C161.686 142.825 161.319 145.304 160.584 147.752C159.911 150.139 158.871 152.281 157.463 154.178C156.117 156.075 154.403 157.605 152.323 158.768C150.242 159.93 147.825 160.512 145.071 160.512C142.317 160.512 139.899 159.93 137.819 158.768C135.738 157.605 133.994 156.075 132.586 154.178C131.24 152.281 130.2 150.139 129.465 147.752C128.792 145.304 128.455 142.825 128.455 140.316C128.455 137.807 128.792 135.359 129.465 132.973C130.2 130.525 131.24 128.352 132.586 126.455C133.994 124.558 135.738 123.028 137.819 121.865C139.899 120.702 142.317 120.121 145.071 120.121ZM145.071 115.256C141.46 115.256 138.247 115.929 135.432 117.275C132.678 118.622 130.353 120.427 128.455 122.691C126.558 124.956 125.12 127.618 124.141 130.678C123.162 133.676 122.672 136.889 122.672 140.316C122.672 143.743 123.162 146.987 124.141 150.047C125.12 153.046 126.558 155.677 128.455 157.941C130.353 160.206 132.678 162.011 135.432 163.357C138.247 164.643 141.46 165.285 145.071 165.285C148.681 165.285 151.864 164.643 154.618 163.357C157.433 162.011 159.789 160.206 161.686 157.941C163.583 155.677 165.021 153.046 166 150.047C166.98 146.987 167.469 143.743 167.469 140.316C167.469 136.889 166.98 133.676 166 130.678C165.021 127.618 163.583 124.956 161.686 122.691C159.789 120.427 157.433 118.622 154.618 117.275C151.864 115.929 148.681 115.256 145.071 115.256ZM173.405 98.457V164H179.188V98.457H173.405ZM187.594 98.457V107.728H193.377V98.457H187.594ZM187.594 116.633V164H193.377V116.633H187.594ZM243.367 164V98.457H237.584V125.629H237.4C236.789 123.915 235.901 122.416 234.738 121.131C233.637 119.846 232.352 118.775 230.883 117.918C229.414 117 227.823 116.327 226.109 115.898C224.457 115.47 222.744 115.256 220.969 115.256C217.358 115.256 214.206 115.929 211.514 117.275C208.882 118.622 206.679 120.458 204.904 122.783C203.13 125.047 201.814 127.71 200.957 130.769C200.1 133.768 199.672 136.95 199.672 140.316C199.672 143.682 200.1 146.895 200.957 149.955C201.814 152.954 203.13 155.616 204.904 157.941C206.679 160.206 208.882 162.011 211.514 163.357C214.206 164.643 217.358 165.285 220.969 165.285C222.682 165.285 224.396 165.04 226.109 164.551C227.884 164.061 229.537 163.388 231.067 162.531C232.596 161.613 233.943 160.512 235.106 159.227C236.33 157.941 237.248 156.534 237.859 155.004H238.043V164H243.367ZM205.455 140.316C205.455 137.868 205.731 135.451 206.281 133.064C206.893 130.616 207.811 128.444 209.035 126.547C210.32 124.65 211.942 123.12 213.9 121.957C215.859 120.733 218.215 120.121 220.969 120.121C224.029 120.121 226.599 120.733 228.68 121.957C230.822 123.12 232.535 124.65 233.82 126.547C235.167 128.444 236.115 130.616 236.666 133.064C237.278 135.451 237.584 137.868 237.584 140.316C237.584 142.764 237.278 145.212 236.666 147.66C236.115 150.047 235.167 152.189 233.82 154.086C232.535 155.983 230.822 157.544 228.68 158.768C226.599 159.93 224.029 160.512 220.969 160.512C218.215 160.512 215.859 159.93 213.9 158.768C211.942 157.544 210.32 155.983 209.035 154.086C207.811 152.189 206.893 150.047 206.281 147.66C205.731 145.212 205.455 142.764 205.455 140.316ZM251.098 131.137H256.882C257.004 127.281 258.228 124.497 260.553 122.783C262.879 121.008 265.878 120.121 269.55 120.121C271.263 120.121 272.854 120.274 274.323 120.58C275.853 120.825 277.169 121.314 278.27 122.049C279.433 122.783 280.32 123.793 280.932 125.078C281.606 126.302 281.942 127.893 281.942 129.852C281.942 131.137 281.759 132.177 281.391 132.973C281.085 133.768 280.626 134.411 280.014 134.9C279.402 135.329 278.637 135.635 277.719 135.818C276.801 136.002 275.731 136.155 274.507 136.277C271.385 136.645 268.295 137.042 265.235 137.471C262.236 137.838 259.513 138.511 257.065 139.49C254.678 140.469 252.751 141.908 251.282 143.805C249.813 145.641 249.079 148.211 249.079 151.516C249.079 153.902 249.477 155.983 250.272 157.758C251.129 159.471 252.261 160.91 253.669 162.072C255.137 163.174 256.82 163.969 258.717 164.459C260.676 165.01 262.757 165.285 264.96 165.285C267.285 165.285 269.274 165.071 270.926 164.643C272.64 164.214 274.139 163.602 275.425 162.807C276.771 162.011 277.964 161.032 279.005 159.869C280.106 158.645 281.177 157.268 282.217 155.738H282.401C282.401 156.962 282.462 158.094 282.585 159.135C282.768 160.114 283.105 160.971 283.594 161.705C284.084 162.439 284.757 163.021 285.614 163.449C286.532 163.816 287.725 164 289.194 164C289.99 164 290.632 163.969 291.122 163.908C291.673 163.847 292.285 163.755 292.958 163.633V158.768C292.407 159.012 291.795 159.135 291.122 159.135C288.857 159.135 287.725 157.972 287.725 155.646V130.494C287.725 127.312 287.205 124.741 286.165 122.783C285.124 120.764 283.778 119.203 282.126 118.102C280.473 117 278.607 116.266 276.526 115.898C274.445 115.47 272.365 115.256 270.284 115.256C267.53 115.256 265.021 115.562 262.757 116.174C260.492 116.786 258.503 117.734 256.79 119.019C255.137 120.305 253.822 121.957 252.842 123.977C251.863 125.996 251.282 128.383 251.098 131.137ZM281.942 138.113V145.641C281.942 147.966 281.483 150.047 280.565 151.883C279.708 153.719 278.515 155.279 276.985 156.564C275.516 157.85 273.772 158.829 271.753 159.502C269.733 160.175 267.622 160.512 265.419 160.512C264.072 160.512 262.757 160.298 261.471 159.869C260.186 159.441 259.054 158.829 258.075 158.033C257.096 157.176 256.3 156.197 255.688 155.096C255.137 153.933 254.862 152.617 254.862 151.148C254.862 148.823 255.535 147.048 256.882 145.824C258.289 144.539 260.064 143.56 262.206 142.887C264.348 142.214 266.704 141.724 269.274 141.418C271.906 141.051 274.445 140.653 276.893 140.225C277.689 140.102 278.607 139.888 279.647 139.582C280.688 139.276 281.391 138.786 281.759 138.113H281.942ZM291.173 116.633L310.083 163.816L308.063 169.141C307.574 170.242 307.115 171.252 306.686 172.17C306.258 173.088 305.738 173.853 305.126 174.465C304.514 175.138 303.779 175.658 302.923 176.025C302.127 176.393 301.087 176.576 299.802 176.576C299.128 176.576 298.455 176.515 297.782 176.393C297.17 176.331 296.528 176.24 295.854 176.117V180.982C296.344 181.166 296.895 181.258 297.507 181.258C298.18 181.319 299.098 181.38 300.261 181.441C302.097 181.441 303.596 181.258 304.759 180.891C305.983 180.585 307.023 180.034 307.88 179.238C308.798 178.504 309.624 177.464 310.358 176.117C311.093 174.832 311.888 173.18 312.745 171.16L333.308 116.633H327.524L312.929 157.023L297.323 116.633H291.173Z" fill="#252525"/>
<path d="M77.957 183.457V249H90.9922V224.123C90.9922 219.288 91.7878 215.831 93.3789 213.75C94.9701 211.608 97.5404 210.537 101.09 210.537C104.211 210.537 106.384 211.516 107.607 213.475C108.831 215.372 109.443 218.279 109.443 222.195V249H122.479V219.809C122.479 216.871 122.203 214.209 121.652 211.822C121.163 209.374 120.275 207.324 118.99 205.672C117.705 203.958 115.93 202.643 113.666 201.725C111.463 200.745 108.617 200.256 105.129 200.256C102.681 200.256 100.172 200.898 97.6016 202.184C95.0313 203.408 92.9199 205.396 91.2676 208.15H90.9922V183.457H77.957ZM141.184 225.316C141.184 223.419 141.368 221.553 141.735 219.717C142.102 217.881 142.714 216.259 143.571 214.852C144.489 213.444 145.682 212.312 147.151 211.455C148.62 210.537 150.456 210.078 152.659 210.078C154.862 210.078 156.698 210.537 158.167 211.455C159.697 212.312 160.89 213.444 161.747 214.852C162.665 216.259 163.307 217.881 163.675 219.717C164.042 221.553 164.225 223.419 164.225 225.316C164.225 227.214 164.042 229.08 163.675 230.916C163.307 232.691 162.665 234.312 161.747 235.781C160.89 237.189 159.697 238.321 158.167 239.178C156.698 240.034 154.862 240.463 152.659 240.463C150.456 240.463 148.62 240.034 147.151 239.178C145.682 238.321 144.489 237.189 143.571 235.781C142.714 234.312 142.102 232.691 141.735 230.916C141.368 229.08 141.184 227.214 141.184 225.316ZM128.149 225.316C128.149 229.111 128.731 232.538 129.893 235.598C131.056 238.658 132.708 241.289 134.85 243.492C136.992 245.634 139.563 247.286 142.561 248.449C145.56 249.612 148.926 250.193 152.659 250.193C156.392 250.193 159.758 249.612 162.757 248.449C165.817 247.286 168.417 245.634 170.559 243.492C172.701 241.289 174.354 238.658 175.516 235.598C176.679 232.538 177.261 229.111 177.261 225.316C177.261 221.522 176.679 218.095 175.516 215.035C174.354 211.914 172.701 209.283 170.559 207.141C168.417 204.937 165.817 203.255 162.757 202.092C159.758 200.868 156.392 200.256 152.659 200.256C148.926 200.256 145.56 200.868 142.561 202.092C139.563 203.255 136.992 204.937 134.85 207.141C132.708 209.283 131.056 211.914 129.893 215.035C128.731 218.095 128.149 221.522 128.149 225.316ZM183.349 201.541V249H196.384V221.461C196.384 219.135 196.721 217.269 197.394 215.861C198.067 214.393 198.863 213.291 199.781 212.557C200.76 211.761 201.739 211.241 202.718 210.996C203.759 210.69 204.585 210.537 205.197 210.537C207.278 210.537 208.838 210.904 209.879 211.639C210.98 212.312 211.745 213.23 212.174 214.393C212.663 215.555 212.939 216.84 213 218.248C213.061 219.594 213.092 220.971 213.092 222.379V249H226.127V222.562C226.127 221.094 226.218 219.656 226.402 218.248C226.647 216.779 227.075 215.494 227.687 214.393C228.36 213.23 229.248 212.312 230.349 211.639C231.512 210.904 233.011 210.537 234.847 210.537C236.683 210.537 238.121 210.843 239.162 211.455C240.263 212.067 241.09 212.893 241.64 213.934C242.191 214.974 242.528 216.198 242.65 217.605C242.773 219.013 242.834 220.512 242.834 222.103V249H255.869V217.238C255.869 214.178 255.441 211.577 254.584 209.436C253.727 207.232 252.534 205.458 251.004 204.111C249.474 202.765 247.638 201.786 245.496 201.174C243.354 200.562 241.028 200.256 238.519 200.256C235.215 200.256 232.338 201.051 229.89 202.643C227.504 204.234 225.606 206.07 224.199 208.15C222.914 205.213 221.017 203.163 218.508 202C216.06 200.837 213.336 200.256 210.338 200.256C207.217 200.256 204.432 200.929 201.984 202.275C199.597 203.622 197.547 205.519 195.834 207.967H195.65V201.541H183.349ZM295.365 220.176H274.159C274.221 219.258 274.404 218.217 274.71 217.055C275.077 215.892 275.659 214.79 276.454 213.75C277.311 212.71 278.413 211.853 279.759 211.18C281.167 210.445 282.911 210.078 284.991 210.078C288.174 210.078 290.53 210.935 292.06 212.648C293.651 214.362 294.753 216.871 295.365 220.176ZM274.159 228.437H308.4C308.645 224.766 308.339 221.247 307.482 217.881C306.625 214.515 305.217 211.516 303.259 208.885C301.362 206.253 298.914 204.172 295.915 202.643C292.917 201.051 289.398 200.256 285.359 200.256C281.748 200.256 278.443 200.898 275.445 202.184C272.507 203.469 269.967 205.243 267.825 207.508C265.684 209.711 264.031 212.342 262.868 215.402C261.706 218.462 261.124 221.767 261.124 225.316C261.124 228.988 261.675 232.354 262.777 235.414C263.939 238.474 265.561 241.105 267.642 243.309C269.723 245.512 272.262 247.225 275.261 248.449C278.26 249.612 281.626 250.193 285.359 250.193C290.744 250.193 295.334 248.969 299.128 246.521C302.922 244.074 305.738 240.004 307.574 234.312H296.099C295.671 235.781 294.508 237.189 292.611 238.535C290.713 239.82 288.449 240.463 285.818 240.463C282.146 240.463 279.331 239.514 277.372 237.617C275.414 235.72 274.343 232.66 274.159 228.437Z" fill="#252525"/>
<path d="M350.951 237.801C348.932 237.801 347.249 237.372 345.902 236.516C344.556 235.659 343.454 234.557 342.598 233.211C341.802 231.865 341.221 230.365 340.854 228.713C340.548 226.999 340.395 225.286 340.395 223.572C340.395 221.797 340.578 220.115 340.945 218.523C341.374 216.871 342.016 215.433 342.873 214.209C343.791 212.924 344.893 211.914 346.178 211.18C347.524 210.445 349.115 210.078 350.951 210.078C353.093 210.078 354.868 210.476 356.275 211.271C357.683 212.067 358.815 213.138 359.672 214.484C360.529 215.831 361.141 217.391 361.508 219.166C361.875 220.88 362.059 222.715 362.059 224.674C362.059 226.387 361.814 228.04 361.324 229.631C360.896 231.161 360.223 232.538 359.305 233.762C358.387 234.986 357.224 235.965 355.816 236.699C354.409 237.434 352.787 237.801 350.951 237.801ZM374.451 245.971V201.541H362.059V207.875H361.875C360.284 205.121 358.295 203.163 355.908 202C353.583 200.837 350.859 200.256 347.738 200.256C344.434 200.256 341.496 200.898 338.926 202.184C336.417 203.469 334.305 205.213 332.592 207.416C330.878 209.558 329.563 212.067 328.645 214.943C327.788 217.758 327.359 220.696 327.359 223.756C327.359 226.999 327.727 230.09 328.461 233.027C329.257 235.904 330.48 238.443 332.133 240.646C333.785 242.788 335.896 244.502 338.467 245.787C341.037 247.011 344.097 247.623 347.647 247.623C350.523 247.623 353.246 247.042 355.816 245.879C358.448 244.655 360.467 242.788 361.875 240.279H362.059V246.521C362.12 249.887 361.294 252.672 359.58 254.875C357.928 257.078 355.266 258.18 351.594 258.18C349.268 258.18 347.218 257.69 345.443 256.711C343.669 255.793 342.475 254.11 341.863 251.662H328.92C329.104 254.355 329.838 256.65 331.123 258.547C332.469 260.505 334.122 262.096 336.08 263.32C338.1 264.544 340.303 265.432 342.689 265.982C345.137 266.594 347.524 266.9 349.85 266.9C355.296 266.9 359.641 266.166 362.885 264.697C366.128 263.229 368.607 261.423 370.32 259.281C372.034 257.201 373.135 254.936 373.625 252.488C374.176 250.04 374.451 247.868 374.451 245.971ZM395.595 194.197V183.457H382.559V194.197H395.595ZM382.559 201.541V249H395.595V201.541H382.559ZM405.951 210.262V249H418.986V210.262H427.982V201.541H418.986V198.695C418.986 196.737 419.353 195.36 420.087 194.564C420.883 193.708 422.168 193.279 423.943 193.279C425.595 193.279 427.186 193.371 428.716 193.555V183.824C427.615 183.763 426.482 183.702 425.32 183.641C424.157 183.518 422.994 183.457 421.831 183.457C416.507 183.457 412.529 184.803 409.898 187.496C407.266 190.189 405.951 193.646 405.951 197.869V201.541H398.148V210.262H405.951ZM447.443 201.541V187.312H434.408V201.541H426.514V210.262H434.408V238.26C434.408 240.646 434.806 242.574 435.602 244.043C436.397 245.512 437.468 246.644 438.815 247.439C440.222 248.235 441.813 248.755 443.588 249C445.424 249.306 447.352 249.459 449.371 249.459C450.656 249.459 451.972 249.428 453.318 249.367C454.665 249.306 455.889 249.184 456.99 249V238.902C456.378 239.025 455.736 239.117 455.063 239.178C454.389 239.239 453.686 239.27 452.951 239.27C450.748 239.27 449.279 238.902 448.545 238.168C447.811 237.434 447.443 235.965 447.443 233.762V210.262H456.99V201.541H447.443ZM470.536 233.578H458.144C458.266 236.76 458.97 239.423 460.255 241.564C461.601 243.645 463.284 245.328 465.304 246.613C467.384 247.898 469.741 248.816 472.372 249.367C475.004 249.918 477.696 250.193 480.45 250.193C483.143 250.193 485.774 249.918 488.345 249.367C490.976 248.878 493.302 247.99 495.321 246.705C497.341 245.42 498.963 243.737 500.187 241.656C501.472 239.514 502.114 236.883 502.114 233.762C502.114 231.559 501.686 229.723 500.829 228.254C499.972 226.724 498.84 225.469 497.433 224.49C496.025 223.45 494.403 222.624 492.567 222.012C490.793 221.4 488.957 220.88 487.06 220.451C485.224 220.023 483.418 219.625 481.644 219.258C479.869 218.891 478.278 218.493 476.87 218.064C475.524 217.575 474.422 216.963 473.565 216.228C472.709 215.494 472.28 214.546 472.28 213.383C472.28 212.404 472.525 211.639 473.015 211.088C473.504 210.476 474.086 210.017 474.759 209.711C475.493 209.405 476.289 209.221 477.146 209.16C478.002 209.038 478.798 208.977 479.532 208.977C481.858 208.977 483.877 209.436 485.591 210.353C487.304 211.21 488.253 212.893 488.437 215.402H500.829C500.584 212.465 499.819 210.047 498.534 208.15C497.31 206.192 495.75 204.631 493.853 203.469C491.955 202.306 489.783 201.48 487.335 200.99C484.948 200.501 482.47 200.256 479.899 200.256C477.329 200.256 474.82 200.501 472.372 200.99C469.924 201.419 467.721 202.214 465.763 203.377C463.804 204.478 462.213 206.008 460.989 207.967C459.826 209.925 459.245 212.434 459.245 215.494C459.245 217.575 459.673 219.35 460.53 220.818C461.387 222.226 462.519 223.419 463.927 224.398C465.334 225.316 466.925 226.081 468.7 226.693C470.536 227.244 472.403 227.734 474.3 228.162C478.951 229.141 482.562 230.12 485.132 231.1C487.763 232.079 489.079 233.548 489.079 235.506C489.079 236.669 488.804 237.648 488.253 238.443C487.702 239.178 486.998 239.79 486.142 240.279C485.346 240.708 484.428 241.044 483.388 241.289C482.409 241.473 481.46 241.564 480.542 241.564C479.257 241.564 478.002 241.411 476.778 241.105C475.616 240.799 474.575 240.34 473.657 239.729C472.739 239.055 471.974 238.229 471.362 237.25C470.812 236.21 470.536 234.986 470.536 233.578Z" fill="#ED0000"/>
<rect x="73" y="415.18" width="166.909" height="48" rx="4" fill="#ED0000"/>
<path d="M118.516 436.091H120.331C120.305 435.298 120.15 434.619 119.867 434.054C119.599 433.475 119.222 432.998 118.738 432.622C118.267 432.245 117.716 431.969 117.084 431.795C116.452 431.62 115.766 431.532 115.026 431.532C114.368 431.532 113.722 431.62 113.09 431.795C112.471 431.956 111.913 432.211 111.416 432.561C110.932 432.897 110.542 433.334 110.246 433.872C109.95 434.397 109.802 435.022 109.802 435.748C109.802 436.407 109.93 436.958 110.185 437.402C110.454 437.832 110.804 438.189 111.234 438.471C111.678 438.74 112.176 438.962 112.727 439.137C113.278 439.298 113.836 439.446 114.401 439.581C114.979 439.702 115.544 439.823 116.096 439.944C116.647 440.065 117.138 440.226 117.568 440.428C118.012 440.616 118.361 440.865 118.617 441.174C118.886 441.483 119.02 441.887 119.02 442.384C119.02 442.909 118.913 443.339 118.698 443.675C118.482 444.011 118.2 444.28 117.85 444.482C117.501 444.67 117.104 444.805 116.66 444.886C116.23 444.966 115.8 445.007 115.369 445.007C114.831 445.007 114.307 444.939 113.796 444.805C113.285 444.67 112.835 444.462 112.445 444.18C112.068 443.897 111.759 443.541 111.517 443.11C111.288 442.667 111.174 442.142 111.174 441.537H109.358C109.358 442.411 109.513 443.171 109.822 443.816C110.145 444.449 110.575 444.973 111.113 445.39C111.665 445.793 112.297 446.096 113.009 446.298C113.736 446.499 114.502 446.6 115.309 446.6C115.968 446.6 116.627 446.519 117.286 446.358C117.958 446.21 118.563 445.968 119.101 445.632C119.639 445.282 120.076 444.838 120.412 444.301C120.762 443.749 120.937 443.09 120.937 442.324C120.937 441.611 120.802 441.019 120.533 440.549C120.278 440.078 119.928 439.688 119.484 439.379C119.054 439.07 118.563 438.828 118.012 438.653C117.46 438.464 116.896 438.303 116.317 438.169C115.753 438.034 115.195 437.913 114.643 437.806C114.092 437.685 113.594 437.537 113.151 437.362C112.72 437.187 112.371 436.965 112.102 436.696C111.846 436.414 111.718 436.051 111.718 435.607C111.718 435.136 111.806 434.746 111.981 434.437C112.169 434.114 112.411 433.859 112.707 433.67C113.016 433.482 113.366 433.348 113.756 433.267C114.146 433.186 114.542 433.146 114.946 433.146C115.941 433.146 116.754 433.381 117.386 433.852C118.032 434.309 118.408 435.056 118.516 436.091ZM122.983 431.875V446.277H124.697V440.387C124.697 439.917 124.758 439.486 124.879 439.096C125.013 438.693 125.208 438.343 125.464 438.048C125.719 437.752 126.035 437.523 126.412 437.362C126.802 437.2 127.259 437.12 127.783 437.12C128.442 437.12 128.96 437.308 129.337 437.685C129.713 438.061 129.901 438.572 129.901 439.218V446.277H131.616V439.419C131.616 438.854 131.555 438.343 131.434 437.886C131.327 437.416 131.132 437.012 130.849 436.676C130.567 436.34 130.197 436.078 129.74 435.889C129.283 435.701 128.711 435.607 128.025 435.607C127.716 435.607 127.393 435.641 127.057 435.708C126.734 435.775 126.418 435.883 126.109 436.03C125.813 436.165 125.544 436.346 125.302 436.575C125.06 436.79 124.872 437.059 124.738 437.382H124.697V431.875H122.983ZM135.442 441.073C135.442 440.441 135.522 439.883 135.684 439.399C135.858 438.901 136.094 438.485 136.39 438.148C136.685 437.812 137.028 437.557 137.418 437.382C137.822 437.207 138.245 437.12 138.689 437.12C139.133 437.12 139.55 437.207 139.94 437.382C140.343 437.557 140.693 437.812 140.989 438.148C141.284 438.485 141.513 438.901 141.674 439.399C141.849 439.883 141.937 440.441 141.937 441.073C141.937 441.705 141.849 442.27 141.674 442.768C141.513 443.252 141.284 443.662 140.989 443.998C140.693 444.321 140.343 444.57 139.94 444.744C139.55 444.919 139.133 445.007 138.689 445.007C138.245 445.007 137.822 444.919 137.418 444.744C137.028 444.57 136.685 444.321 136.39 443.998C136.094 443.662 135.858 443.252 135.684 442.768C135.522 442.27 135.442 441.705 135.442 441.073ZM133.626 441.073C133.626 441.84 133.734 442.552 133.949 443.211C134.164 443.87 134.487 444.449 134.917 444.946C135.347 445.43 135.879 445.813 136.511 446.096C137.143 446.365 137.869 446.499 138.689 446.499C139.523 446.499 140.249 446.365 140.868 446.096C141.5 445.813 142.031 445.43 142.461 444.946C142.891 444.449 143.214 443.87 143.429 443.211C143.644 442.552 143.752 441.84 143.752 441.073C143.752 440.307 143.644 439.594 143.429 438.935C143.214 438.263 142.891 437.685 142.461 437.2C142.031 436.703 141.5 436.313 140.868 436.03C140.249 435.748 139.523 435.607 138.689 435.607C137.869 435.607 137.143 435.748 136.511 436.03C135.879 436.313 135.347 436.703 134.917 437.2C134.487 437.685 134.164 438.263 133.949 438.935C133.734 439.594 133.626 440.307 133.626 441.073ZM145.834 435.849V450.251H147.549V444.886H147.589C147.777 445.195 148.006 445.457 148.275 445.672C148.557 445.874 148.853 446.035 149.162 446.156C149.472 446.277 149.781 446.365 150.09 446.419C150.413 446.472 150.702 446.499 150.957 446.499C151.751 446.499 152.443 446.358 153.035 446.076C153.64 445.793 154.138 445.41 154.528 444.926C154.931 444.428 155.227 443.85 155.415 443.191C155.617 442.532 155.718 441.833 155.718 441.093C155.718 440.354 155.617 439.655 155.415 438.996C155.214 438.337 154.911 437.758 154.508 437.261C154.118 436.75 153.62 436.346 153.015 436.051C152.423 435.755 151.724 435.607 150.917 435.607C150.191 435.607 149.525 435.741 148.92 436.01C148.315 436.266 147.871 436.683 147.589 437.261H147.549V435.849H145.834ZM153.902 440.972C153.902 441.483 153.849 441.981 153.741 442.465C153.633 442.949 153.459 443.379 153.217 443.756C152.975 444.132 152.652 444.435 152.248 444.664C151.858 444.892 151.368 445.007 150.776 445.007C150.184 445.007 149.68 444.899 149.263 444.684C148.846 444.455 148.503 444.159 148.234 443.796C147.979 443.433 147.791 443.016 147.67 442.546C147.549 442.062 147.488 441.564 147.488 441.053C147.488 440.569 147.542 440.092 147.649 439.621C147.77 439.15 147.959 438.733 148.214 438.37C148.47 437.994 148.799 437.691 149.203 437.463C149.606 437.234 150.097 437.12 150.675 437.12C151.226 437.12 151.704 437.227 152.107 437.442C152.524 437.658 152.86 437.947 153.116 438.31C153.385 438.673 153.58 439.09 153.701 439.56C153.835 440.018 153.902 440.488 153.902 440.972ZM163.607 431.875V446.277H165.422V434.719H165.462L172.986 446.277H175.084V431.875H173.268V443.554H173.228L165.644 431.875H163.607ZM179.152 441.073C179.152 440.441 179.233 439.883 179.394 439.399C179.569 438.901 179.804 438.485 180.1 438.148C180.396 437.812 180.739 437.557 181.129 437.382C181.532 437.207 181.956 437.12 182.399 437.12C182.843 437.12 183.26 437.207 183.65 437.382C184.053 437.557 184.403 437.812 184.699 438.148C184.995 438.485 185.223 438.901 185.385 439.399C185.56 439.883 185.647 440.441 185.647 441.073C185.647 441.705 185.56 442.27 185.385 442.768C185.223 443.252 184.995 443.662 184.699 443.998C184.403 444.321 184.053 444.57 183.65 444.744C183.26 444.919 182.843 445.007 182.399 445.007C181.956 445.007 181.532 444.919 181.129 444.744C180.739 444.57 180.396 444.321 180.1 443.998C179.804 443.662 179.569 443.252 179.394 442.768C179.233 442.27 179.152 441.705 179.152 441.073ZM177.337 441.073C177.337 441.84 177.444 442.552 177.659 443.211C177.874 443.87 178.197 444.449 178.627 444.946C179.058 445.43 179.589 445.813 180.221 446.096C180.853 446.365 181.579 446.499 182.399 446.499C183.233 446.499 183.959 446.365 184.578 446.096C185.21 445.813 185.741 445.43 186.171 444.946C186.602 444.449 186.924 443.87 187.14 443.211C187.355 442.552 187.462 441.84 187.462 441.073C187.462 440.307 187.355 439.594 187.14 438.935C186.924 438.263 186.602 437.685 186.171 437.2C185.741 436.703 185.21 436.313 184.578 436.03C183.959 435.748 183.233 435.607 182.399 435.607C181.579 435.607 180.853 435.748 180.221 436.03C179.589 436.313 179.058 436.703 178.627 437.2C178.197 437.685 177.874 438.263 177.659 438.935C177.444 439.594 177.337 440.307 177.337 441.073ZM199.811 446.277L203.14 435.849H201.365L199.025 444.381H198.984L196.806 435.849H194.93L192.832 444.381H192.792L190.432 435.849H188.536L191.884 446.277H193.74L195.838 437.987H195.878L197.996 446.277H199.811Z" fill="white"/>
<path d="M78.2152 306.658H73.9222C73.9646 307.76 74.2084 308.682 74.6536 309.424C75.12 310.145 75.703 310.728 76.4026 311.173C77.1234 311.618 77.9396 311.936 78.8512 312.127C79.7628 312.318 80.6956 312.413 81.6496 312.413C82.5824 312.413 83.494 312.318 84.3844 312.127C85.296 311.958 86.1016 311.65 86.8012 311.205C87.5008 310.76 88.0626 310.177 88.4866 309.456C88.9318 308.714 89.1544 307.802 89.1544 306.721C89.1544 305.958 89.006 305.322 88.7092 304.813C88.4124 304.283 88.0202 303.849 87.5326 303.509C87.045 303.149 86.4832 302.863 85.8472 302.651C85.2324 302.439 84.5964 302.259 83.9392 302.11C83.3032 301.962 82.6778 301.824 82.063 301.697C81.4482 301.57 80.897 301.432 80.4094 301.283C79.943 301.114 79.5614 300.902 79.2646 300.647C78.9678 300.393 78.8194 300.064 78.8194 299.662C78.8194 299.322 78.9042 299.057 79.0738 298.867C79.2434 298.655 79.4448 298.496 79.678 298.39C79.9324 298.284 80.208 298.22 80.5048 298.199C80.8016 298.156 81.0772 298.135 81.3316 298.135C82.1372 298.135 82.8368 298.294 83.4304 298.612C84.024 298.909 84.3526 299.492 84.4162 300.361H88.7092C88.6244 299.344 88.3594 298.506 87.9142 297.849C87.4902 297.171 86.9496 296.63 86.2924 296.227C85.6352 295.824 84.8826 295.538 84.0346 295.369C83.2078 295.199 82.3492 295.114 81.4588 295.114C80.5684 295.114 79.6992 295.199 78.8512 295.369C78.0032 295.517 77.24 295.793 76.5616 296.195C75.8832 296.577 75.332 297.107 74.908 297.785C74.5052 298.464 74.3038 299.333 74.3038 300.393C74.3038 301.114 74.4522 301.729 74.749 302.237C75.0458 302.725 75.438 303.138 75.9256 303.478C76.4132 303.796 76.9644 304.061 77.5792 304.273C78.2152 304.463 78.8618 304.633 79.519 304.781C81.1302 305.121 82.381 305.46 83.2714 305.799C84.183 306.138 84.6388 306.647 84.6388 307.325C84.6388 307.728 84.5434 308.067 84.3526 308.343C84.1618 308.597 83.918 308.809 83.6212 308.979C83.3456 309.127 83.0276 309.244 82.6672 309.329C82.328 309.392 81.9994 309.424 81.6814 309.424C81.2362 309.424 80.8016 309.371 80.3776 309.265C79.9748 309.159 79.6144 309 79.2964 308.788C78.9784 308.555 78.7134 308.269 78.5014 307.93C78.3106 307.569 78.2152 307.145 78.2152 306.658ZM91.6065 300.616C91.6701 299.556 91.9351 298.676 92.4015 297.976C92.8679 297.277 93.4615 296.715 94.1823 296.291C94.9031 295.867 95.7087 295.57 96.5991 295.4C97.5107 295.21 98.4223 295.114 99.3339 295.114C100.161 295.114 100.998 295.178 101.846 295.305C102.694 295.411 103.468 295.634 104.167 295.973C104.867 296.312 105.439 296.789 105.885 297.404C106.33 297.997 106.552 298.792 106.552 299.789V308.343C106.552 309.085 106.595 309.795 106.68 310.474C106.764 311.152 106.913 311.661 107.125 312H102.546C102.461 311.746 102.387 311.491 102.323 311.237C102.281 310.961 102.249 310.686 102.228 310.41C101.507 311.152 100.659 311.671 99.6837 311.968C98.7085 312.265 97.7121 312.413 96.6945 312.413C95.9101 312.413 95.1787 312.318 94.5003 312.127C93.8219 311.936 93.2283 311.64 92.7195 311.237C92.2107 310.834 91.8079 310.325 91.5111 309.71C91.2355 309.096 91.0977 308.364 91.0977 307.516C91.0977 306.583 91.2567 305.82 91.5747 305.227C91.9139 304.612 92.3379 304.124 92.8467 303.764C93.3767 303.403 93.9703 303.138 94.6275 302.969C95.3059 302.778 95.9843 302.63 96.6627 302.524C97.3411 302.418 98.0089 302.333 98.6661 302.269C99.3233 302.206 99.9063 302.11 100.415 301.983C100.924 301.856 101.327 301.676 101.623 301.442C101.92 301.188 102.058 300.828 102.037 300.361C102.037 299.874 101.952 299.492 101.782 299.216C101.634 298.92 101.422 298.697 101.146 298.549C100.892 298.379 100.585 298.273 100.224 298.231C99.8851 298.167 99.5141 298.135 99.1113 298.135C98.2209 298.135 97.5213 298.326 97.0125 298.708C96.5037 299.089 96.2069 299.725 96.1221 300.616H91.6065ZM102.037 303.955C101.846 304.124 101.602 304.262 101.305 304.368C101.03 304.453 100.722 304.527 100.383 304.591C100.065 304.654 99.7261 304.707 99.3657 304.75C99.0053 304.792 98.6449 304.845 98.2845 304.909C97.9453 304.972 97.6061 305.057 97.2669 305.163C96.9489 305.269 96.6627 305.417 96.4083 305.608C96.1751 305.778 95.9843 306 95.8359 306.276C95.6875 306.552 95.6133 306.901 95.6133 307.325C95.6133 307.728 95.6875 308.067 95.8359 308.343C95.9843 308.619 96.1857 308.841 96.4401 309.011C96.6945 309.159 96.9913 309.265 97.3305 309.329C97.6697 309.392 98.0195 309.424 98.3799 309.424C99.2703 309.424 99.9593 309.276 100.447 308.979C100.934 308.682 101.295 308.332 101.528 307.93C101.761 307.506 101.899 307.082 101.941 306.658C102.005 306.234 102.037 305.894 102.037 305.64V303.955ZM119.152 312L124.717 295.559H120.233L116.767 306.785H116.704L113.237 295.559H108.499L114.128 312H119.152ZM137.645 302.015H130.299C130.32 301.697 130.384 301.336 130.49 300.934C130.617 300.531 130.819 300.149 131.094 299.789C131.391 299.428 131.773 299.132 132.239 298.898C132.727 298.644 133.331 298.517 134.052 298.517C135.154 298.517 135.97 298.814 136.5 299.407C137.051 300.001 137.433 300.87 137.645 302.015ZM130.299 304.877H142.161C142.245 303.605 142.139 302.386 141.843 301.22C141.546 300.054 141.058 299.015 140.38 298.103C139.723 297.192 138.875 296.471 137.836 295.941C136.797 295.39 135.578 295.114 134.179 295.114C132.928 295.114 131.783 295.337 130.744 295.782C129.727 296.227 128.847 296.842 128.105 297.626C127.363 298.39 126.791 299.301 126.388 300.361C125.985 301.421 125.784 302.566 125.784 303.796C125.784 305.068 125.974 306.234 126.356 307.294C126.759 308.354 127.321 309.265 128.041 310.028C128.762 310.792 129.642 311.385 130.681 311.809C131.72 312.212 132.886 312.413 134.179 312.413C136.044 312.413 137.634 311.989 138.949 311.141C140.263 310.293 141.238 308.884 141.874 306.912H137.899C137.751 307.421 137.348 307.908 136.691 308.375C136.034 308.82 135.249 309.043 134.338 309.043C133.066 309.043 132.091 308.714 131.412 308.057C130.734 307.4 130.363 306.34 130.299 304.877ZM157.696 303.796C157.696 303.138 157.76 302.492 157.887 301.856C158.014 301.22 158.226 300.658 158.523 300.17C158.841 299.683 159.254 299.291 159.763 298.994C160.272 298.676 160.908 298.517 161.671 298.517C162.434 298.517 163.07 298.676 163.579 298.994C164.109 299.291 164.522 299.683 164.819 300.17C165.137 300.658 165.36 301.22 165.487 301.856C165.614 302.492 165.678 303.138 165.678 303.796C165.678 304.453 165.614 305.099 165.487 305.735C165.36 306.35 165.137 306.912 164.819 307.421C164.522 307.908 164.109 308.301 163.579 308.597C163.07 308.894 162.434 309.043 161.671 309.043C160.908 309.043 160.272 308.894 159.763 308.597C159.254 308.301 158.841 307.908 158.523 307.421C158.226 306.912 158.014 306.35 157.887 305.735C157.76 305.099 157.696 304.453 157.696 303.796ZM153.18 303.796C153.18 305.11 153.382 306.297 153.785 307.357C154.187 308.417 154.76 309.329 155.502 310.092C156.244 310.834 157.134 311.406 158.173 311.809C159.212 312.212 160.378 312.413 161.671 312.413C162.964 312.413 164.13 312.212 165.169 311.809C166.229 311.406 167.13 310.834 167.872 310.092C168.614 309.329 169.186 308.417 169.589 307.357C169.992 306.297 170.193 305.11 170.193 303.796C170.193 302.481 169.992 301.294 169.589 300.234C169.186 299.153 168.614 298.241 167.872 297.499C167.13 296.736 166.229 296.153 165.169 295.75C164.13 295.326 162.964 295.114 161.671 295.114C160.378 295.114 159.212 295.326 158.173 295.75C157.134 296.153 156.244 296.736 155.502 297.499C154.76 298.241 154.187 299.153 153.785 300.234C153.382 301.294 153.18 302.481 153.18 303.796ZM173.13 295.559V312H177.645V303.382C177.645 301.707 177.921 300.51 178.472 299.789C179.023 299.047 179.914 298.676 181.143 298.676C182.224 298.676 182.977 299.015 183.401 299.693C183.825 300.351 184.037 301.358 184.037 302.714V312H188.553V301.888C188.553 300.87 188.457 299.948 188.266 299.121C188.097 298.273 187.789 297.563 187.344 296.99C186.899 296.397 186.284 295.941 185.5 295.623C184.737 295.284 183.751 295.114 182.542 295.114C181.588 295.114 180.656 295.337 179.744 295.782C178.832 296.206 178.09 296.895 177.518 297.849H177.423V295.559H173.13ZM201.244 289.295V312H203.947V309.806H204.01C204.307 310.293 204.667 310.707 205.091 311.046C205.537 311.364 206.003 311.618 206.491 311.809C206.978 312 207.466 312.138 207.953 312.223C208.462 312.307 208.918 312.35 209.321 312.35C210.572 312.35 211.663 312.127 212.596 311.682C213.55 311.237 214.335 310.633 214.949 309.869C215.585 309.085 216.052 308.173 216.349 307.135C216.667 306.096 216.826 304.993 216.826 303.827C216.826 302.661 216.667 301.559 216.349 300.52C216.031 299.481 215.554 298.57 214.918 297.785C214.303 296.98 213.518 296.344 212.564 295.877C211.632 295.411 210.529 295.178 209.257 295.178C208.112 295.178 207.063 295.39 206.109 295.814C205.155 296.217 204.455 296.874 204.01 297.785H203.947V289.295H201.244ZM213.964 303.637C213.964 304.442 213.879 305.227 213.709 305.99C213.54 306.753 213.264 307.431 212.882 308.025C212.501 308.619 211.992 309.096 211.356 309.456C210.741 309.816 209.967 309.997 209.035 309.997C208.102 309.997 207.307 309.827 206.65 309.488C205.992 309.127 205.452 308.661 205.028 308.089C204.625 307.516 204.328 306.859 204.137 306.117C203.947 305.354 203.851 304.569 203.851 303.764C203.851 303.001 203.936 302.248 204.106 301.506C204.296 300.764 204.593 300.107 204.996 299.534C205.399 298.941 205.918 298.464 206.554 298.103C207.19 297.743 207.964 297.563 208.876 297.563C209.745 297.563 210.497 297.732 211.133 298.072C211.791 298.411 212.321 298.867 212.723 299.439C213.147 300.011 213.455 300.669 213.646 301.411C213.858 302.131 213.964 302.873 213.964 303.637ZM231.415 302.206H221.97C222.012 301.57 222.15 300.976 222.383 300.425C222.617 299.852 222.935 299.354 223.337 298.93C223.74 298.506 224.217 298.178 224.768 297.944C225.341 297.69 225.977 297.563 226.676 297.563C227.355 297.563 227.97 297.69 228.521 297.944C229.093 298.178 229.581 298.506 229.984 298.93C230.408 299.333 230.736 299.821 230.969 300.393C231.224 300.965 231.372 301.57 231.415 302.206ZM234.022 306.785H231.351C231.118 307.866 230.63 308.672 229.888 309.202C229.167 309.732 228.235 309.997 227.09 309.997C226.199 309.997 225.426 309.848 224.768 309.551C224.111 309.255 223.571 308.862 223.147 308.375C222.723 307.866 222.415 307.294 222.224 306.658C222.034 306 221.949 305.311 221.97 304.591H234.277C234.319 303.594 234.224 302.545 233.99 301.442C233.778 300.34 233.376 299.322 232.782 298.39C232.21 297.457 231.436 296.694 230.461 296.1C229.507 295.485 228.298 295.178 226.835 295.178C225.712 295.178 224.673 295.39 223.719 295.814C222.786 296.238 221.97 296.831 221.27 297.595C220.592 298.358 220.062 299.259 219.68 300.298C219.299 301.336 219.108 302.481 219.108 303.732C219.15 304.983 219.331 306.138 219.649 307.198C219.988 308.258 220.486 309.17 221.143 309.933C221.8 310.696 222.606 311.29 223.56 311.714C224.535 312.138 225.68 312.35 226.994 312.35C228.86 312.35 230.408 311.883 231.637 310.951C232.867 310.018 233.662 308.629 234.022 306.785ZM251.643 311.936C251.177 312.212 250.53 312.35 249.703 312.35C249.004 312.35 248.442 312.159 248.018 311.777C247.615 311.375 247.414 310.728 247.414 309.838C246.672 310.728 245.802 311.375 244.806 311.777C243.831 312.159 242.771 312.35 241.626 312.35C240.884 312.35 240.174 312.265 239.495 312.095C238.838 311.926 238.266 311.661 237.778 311.3C237.291 310.94 236.898 310.474 236.602 309.901C236.326 309.308 236.188 308.597 236.188 307.771C236.188 306.838 236.347 306.075 236.665 305.481C236.983 304.887 237.397 304.41 237.905 304.05C238.435 303.668 239.029 303.382 239.686 303.191C240.365 303.001 241.054 302.842 241.753 302.714C242.495 302.566 243.195 302.46 243.852 302.396C244.53 302.312 245.124 302.206 245.633 302.078C246.142 301.93 246.544 301.729 246.841 301.474C247.138 301.199 247.286 300.806 247.286 300.298C247.286 299.704 247.17 299.227 246.937 298.867C246.725 298.506 246.438 298.231 246.078 298.04C245.739 297.849 245.347 297.722 244.901 297.658C244.477 297.595 244.053 297.563 243.629 297.563C242.485 297.563 241.531 297.785 240.767 298.231C240.004 298.655 239.591 299.471 239.527 300.679H236.824C236.867 299.662 237.079 298.803 237.46 298.103C237.842 297.404 238.351 296.842 238.987 296.418C239.623 295.973 240.343 295.655 241.149 295.464C241.976 295.273 242.856 295.178 243.788 295.178C244.53 295.178 245.262 295.231 245.983 295.337C246.725 295.443 247.392 295.665 247.986 296.005C248.58 296.323 249.057 296.778 249.417 297.372C249.777 297.966 249.958 298.739 249.958 299.693V308.152C249.958 308.788 249.989 309.255 250.053 309.551C250.138 309.848 250.392 309.997 250.816 309.997C251.049 309.997 251.325 309.944 251.643 309.838V311.936ZM247.255 303.509C246.915 303.764 246.47 303.955 245.919 304.082C245.368 304.188 244.785 304.283 244.17 304.368C243.576 304.432 242.972 304.516 242.357 304.622C241.743 304.707 241.191 304.856 240.704 305.068C240.216 305.28 239.813 305.587 239.495 305.99C239.199 306.371 239.05 306.901 239.05 307.58C239.05 308.025 239.135 308.407 239.305 308.725C239.495 309.021 239.729 309.265 240.004 309.456C240.301 309.647 240.64 309.785 241.022 309.869C241.403 309.954 241.806 309.997 242.23 309.997C243.121 309.997 243.884 309.88 244.52 309.647C245.156 309.392 245.675 309.085 246.078 308.725C246.481 308.343 246.778 307.94 246.968 307.516C247.159 307.071 247.255 306.658 247.255 306.276V303.509ZM267.769 312V295.559H265.066V304.845C265.066 305.587 264.96 306.276 264.748 306.912C264.557 307.527 264.26 308.067 263.858 308.534C263.455 309 262.946 309.361 262.331 309.615C261.738 309.869 261.027 309.997 260.201 309.997C259.162 309.997 258.346 309.7 257.752 309.106C257.158 308.513 256.862 307.707 256.862 306.689V295.559H254.159V306.371C254.159 307.262 254.243 308.078 254.413 308.82C254.604 309.541 254.922 310.166 255.367 310.696C255.812 311.226 256.395 311.64 257.116 311.936C257.837 312.212 258.738 312.35 259.819 312.35C261.027 312.35 262.077 312.117 262.967 311.65C263.858 311.163 264.589 310.41 265.161 309.392H265.225V312H267.769ZM275.581 295.559V290.63H272.878V295.559H270.08V297.944H272.878V308.407C272.878 309.17 272.952 309.785 273.101 310.251C273.249 310.717 273.472 311.078 273.769 311.332C274.087 311.587 274.489 311.767 274.977 311.873C275.486 311.958 276.09 312 276.79 312H278.857V309.615H277.616C277.192 309.615 276.843 309.604 276.567 309.583C276.313 309.541 276.111 309.467 275.963 309.361C275.814 309.255 275.708 309.106 275.645 308.915C275.602 308.725 275.581 308.47 275.581 308.152V297.944H278.857V295.559H275.581ZM284.721 292.602V289.295H282.018V292.602H284.721ZM282.018 295.559V312H284.721V295.559H282.018ZM290.022 297.944V312H292.725V297.944H295.905V295.559H292.725V293.27C292.725 292.549 292.905 292.061 293.265 291.807C293.626 291.553 294.135 291.425 294.792 291.425C295.025 291.425 295.279 291.447 295.555 291.489C295.831 291.51 296.085 291.563 296.318 291.648V289.295C296.064 289.21 295.767 289.146 295.428 289.104C295.11 289.062 294.824 289.04 294.569 289.04C293.085 289.04 291.951 289.39 291.167 290.09C290.403 290.768 290.022 291.775 290.022 293.111V295.559H287.255V297.944H290.022ZM311.929 312V295.559H309.226V304.845C309.226 305.587 309.12 306.276 308.908 306.912C308.717 307.527 308.42 308.067 308.017 308.534C307.615 309 307.106 309.361 306.491 309.615C305.897 309.869 305.187 309.997 304.36 309.997C303.322 309.997 302.505 309.7 301.912 309.106C301.318 308.513 301.021 307.707 301.021 306.689V295.559H298.318V306.371C298.318 307.262 298.403 308.078 298.573 308.82C298.764 309.541 299.082 310.166 299.527 310.696C299.972 311.226 300.555 311.64 301.276 311.936C301.997 312.212 302.898 312.35 303.979 312.35C305.187 312.35 306.237 312.117 307.127 311.65C308.017 311.163 308.749 310.41 309.321 309.392H309.385V312H311.929ZM316.148 289.295V312H318.851V289.295H316.148ZM331.889 289.295V312H334.592V302.714C334.592 301.972 334.687 301.294 334.878 300.679C335.09 300.043 335.397 299.492 335.8 299.026C336.203 298.559 336.701 298.199 337.295 297.944C337.909 297.69 338.63 297.563 339.457 297.563C340.496 297.563 341.312 297.86 341.906 298.453C342.499 299.047 342.796 299.852 342.796 300.87V312H345.499V301.188C345.499 300.298 345.404 299.492 345.213 298.771C345.043 298.029 344.736 297.393 344.291 296.863C343.845 296.333 343.262 295.92 342.542 295.623C341.821 295.326 340.92 295.178 339.839 295.178C339.351 295.178 338.842 295.231 338.312 295.337C337.803 295.443 337.305 295.612 336.818 295.846C336.351 296.058 335.927 296.344 335.546 296.704C335.164 297.043 334.867 297.467 334.655 297.976H334.592V289.295H331.889ZM351.53 303.796C351.53 302.799 351.657 301.919 351.912 301.156C352.187 300.372 352.558 299.715 353.025 299.185C353.491 298.655 354.032 298.252 354.647 297.976C355.283 297.701 355.95 297.563 356.65 297.563C357.35 297.563 358.007 297.701 358.622 297.976C359.258 298.252 359.809 298.655 360.275 299.185C360.742 299.715 361.102 300.372 361.356 301.156C361.632 301.919 361.77 302.799 361.77 303.796C361.77 304.792 361.632 305.682 361.356 306.467C361.102 307.23 360.742 307.877 360.275 308.407C359.809 308.915 359.258 309.308 358.622 309.583C358.007 309.859 357.35 309.997 356.65 309.997C355.95 309.997 355.283 309.859 354.647 309.583C354.032 309.308 353.491 308.915 353.025 308.407C352.558 307.877 352.187 307.23 351.912 306.467C351.657 305.682 351.53 304.792 351.53 303.796ZM348.668 303.796C348.668 305.004 348.838 306.128 349.177 307.166C349.516 308.205 350.025 309.117 350.703 309.901C351.382 310.664 352.219 311.269 353.216 311.714C354.212 312.138 355.357 312.35 356.65 312.35C357.964 312.35 359.109 312.138 360.084 311.714C361.081 311.269 361.918 310.664 362.597 309.901C363.275 309.117 363.784 308.205 364.123 307.166C364.462 306.128 364.632 305.004 364.632 303.796C364.632 302.587 364.462 301.464 364.123 300.425C363.784 299.365 363.275 298.453 362.597 297.69C361.918 296.906 361.081 296.291 360.084 295.846C359.109 295.4 357.964 295.178 356.65 295.178C355.357 295.178 354.212 295.4 353.216 295.846C352.219 296.291 351.382 296.906 350.703 297.69C350.025 298.453 349.516 299.365 349.177 300.425C348.838 301.464 348.668 302.587 348.668 303.796ZM367.819 295.559V312H370.522V301.76C370.522 301.442 370.596 301.05 370.744 300.584C370.914 300.096 371.168 299.63 371.508 299.185C371.868 298.739 372.324 298.358 372.875 298.04C373.447 297.722 374.126 297.563 374.91 297.563C375.525 297.563 376.023 297.658 376.405 297.849C376.808 298.019 377.126 298.273 377.359 298.612C377.592 298.93 377.751 299.312 377.836 299.757C377.942 300.202 377.995 300.69 377.995 301.22V312H380.698V301.76C380.698 300.488 381.079 299.471 381.843 298.708C382.606 297.944 383.655 297.563 384.991 297.563C385.648 297.563 386.178 297.658 386.581 297.849C387.005 298.04 387.333 298.305 387.567 298.644C387.8 298.962 387.959 299.344 388.044 299.789C388.128 300.234 388.171 300.711 388.171 301.22V312H390.874V299.948C390.874 299.1 390.736 298.379 390.46 297.785C390.206 297.171 389.835 296.672 389.347 296.291C388.881 295.909 388.309 295.634 387.63 295.464C386.973 295.273 386.231 295.178 385.404 295.178C384.323 295.178 383.327 295.422 382.415 295.909C381.525 296.397 380.804 297.086 380.253 297.976C379.913 296.959 379.33 296.238 378.504 295.814C377.677 295.39 376.755 295.178 375.737 295.178C373.426 295.178 371.656 296.111 370.426 297.976H370.363V295.559H367.819ZM406.346 302.206H396.901C396.944 301.57 397.081 300.976 397.315 300.425C397.548 299.852 397.866 299.354 398.269 298.93C398.671 298.506 399.148 298.178 399.7 297.944C400.272 297.69 400.908 297.563 401.608 297.563C402.286 297.563 402.901 297.69 403.452 297.944C404.024 298.178 404.512 298.506 404.915 298.93C405.339 299.333 405.667 299.821 405.901 300.393C406.155 300.965 406.303 301.57 406.346 302.206ZM408.953 306.785H406.282C406.049 307.866 405.561 308.672 404.819 309.202C404.099 309.732 403.166 309.997 402.021 309.997C401.131 309.997 400.357 309.848 399.7 309.551C399.042 309.255 398.502 308.862 398.078 308.375C397.654 307.866 397.346 307.294 397.156 306.658C396.965 306 396.88 305.311 396.901 304.591H409.208C409.25 303.594 409.155 302.545 408.922 301.442C408.71 300.34 408.307 299.322 407.713 298.39C407.141 297.457 406.367 296.694 405.392 296.1C404.438 295.485 403.229 295.178 401.767 295.178C400.643 295.178 399.604 295.39 398.65 295.814C397.717 296.238 396.901 296.831 396.202 297.595C395.523 298.358 394.993 299.259 394.612 300.298C394.23 301.336 394.039 302.481 394.039 303.732C394.082 304.983 394.262 306.138 394.58 307.198C394.919 308.258 395.417 309.17 396.074 309.933C396.732 310.696 397.537 311.29 398.491 311.714C399.466 312.138 400.611 312.35 401.926 312.35C403.791 312.35 405.339 311.883 406.568 310.951C407.798 310.018 408.593 308.629 408.953 306.785ZM432.276 302.206H422.832C422.874 301.57 423.012 300.976 423.245 300.425C423.478 299.852 423.796 299.354 424.199 298.93C424.602 298.506 425.079 298.178 425.63 297.944C426.203 297.69 426.839 297.563 427.538 297.563C428.217 297.563 428.831 297.69 429.383 297.944C429.955 298.178 430.443 298.506 430.845 298.93C431.269 299.333 431.598 299.821 431.831 300.393C432.086 300.965 432.234 301.57 432.276 302.206ZM434.884 306.785H432.213C431.98 307.866 431.492 308.672 430.75 309.202C430.029 309.732 429.096 309.997 427.952 309.997C427.061 309.997 426.287 309.848 425.63 309.551C424.973 309.255 424.432 308.862 424.008 308.375C423.584 307.866 423.277 307.294 423.086 306.658C422.895 306 422.811 305.311 422.832 304.591H435.138C435.181 303.594 435.085 302.545 434.852 301.442C434.64 300.34 434.237 299.322 433.644 298.39C433.071 297.457 432.298 296.694 431.322 296.1C430.368 295.485 429.16 295.178 427.697 295.178C426.574 295.178 425.535 295.39 424.581 295.814C423.648 296.238 422.832 296.831 422.132 297.595C421.454 298.358 420.924 299.259 420.542 300.298C420.161 301.336 419.97 302.481 419.97 303.732C420.012 304.983 420.192 306.138 420.51 307.198C420.85 308.258 421.348 309.17 422.005 309.933C422.662 310.696 423.468 311.29 424.422 311.714C425.397 312.138 426.542 312.35 427.856 312.35C429.722 312.35 431.269 311.883 432.499 310.951C433.729 310.018 434.524 308.629 434.884 306.785ZM439.594 306.817H436.891C436.933 307.834 437.145 308.703 437.527 309.424C437.908 310.124 438.417 310.696 439.053 311.141C439.689 311.565 440.421 311.873 441.247 312.064C442.074 312.254 442.943 312.35 443.855 312.35C444.682 312.35 445.509 312.265 446.335 312.095C447.183 311.947 447.936 311.671 448.593 311.269C449.272 310.866 449.812 310.336 450.215 309.679C450.639 309.021 450.851 308.195 450.851 307.198C450.851 306.414 450.692 305.757 450.374 305.227C450.077 304.697 449.674 304.262 449.166 303.923C448.678 303.562 448.106 303.276 447.448 303.064C446.812 302.852 446.155 302.672 445.477 302.524C444.841 302.375 444.205 302.237 443.569 302.11C442.933 301.962 442.36 301.792 441.852 301.601C441.343 301.389 440.919 301.135 440.58 300.838C440.262 300.52 440.103 300.128 440.103 299.662C440.103 299.238 440.209 298.898 440.421 298.644C440.633 298.368 440.908 298.156 441.247 298.008C441.587 297.838 441.958 297.722 442.36 297.658C442.784 297.595 443.198 297.563 443.601 297.563C444.046 297.563 444.48 297.616 444.904 297.722C445.35 297.807 445.752 297.955 446.113 298.167C446.473 298.379 446.77 298.665 447.003 299.026C447.236 299.365 447.374 299.799 447.417 300.329H450.12C450.056 299.333 449.844 298.506 449.484 297.849C449.123 297.171 448.636 296.641 448.021 296.259C447.427 295.856 446.738 295.581 445.954 295.432C445.169 295.263 444.311 295.178 443.378 295.178C442.657 295.178 441.926 295.273 441.184 295.464C440.463 295.634 439.806 295.909 439.212 296.291C438.64 296.651 438.163 297.128 437.781 297.722C437.421 298.315 437.241 299.026 437.241 299.852C437.241 300.912 437.506 301.739 438.036 302.333C438.566 302.926 439.223 303.393 440.007 303.732C440.813 304.05 441.682 304.304 442.615 304.495C443.548 304.665 444.406 304.866 445.191 305.099C445.996 305.311 446.664 305.598 447.194 305.958C447.724 306.318 447.989 306.848 447.989 307.548C447.989 308.057 447.862 308.481 447.607 308.82C447.353 309.138 447.024 309.382 446.622 309.551C446.24 309.721 445.816 309.838 445.35 309.901C444.883 309.965 444.438 309.997 444.014 309.997C443.463 309.997 442.922 309.944 442.392 309.838C441.883 309.732 441.417 309.562 440.993 309.329C440.59 309.074 440.262 308.746 440.007 308.343C439.753 307.919 439.615 307.41 439.594 306.817ZM455.494 306.817H452.791C452.833 307.834 453.045 308.703 453.427 309.424C453.808 310.124 454.317 310.696 454.953 311.141C455.589 311.565 456.321 311.873 457.147 312.064C457.974 312.254 458.843 312.35 459.755 312.35C460.582 312.35 461.409 312.265 462.235 312.095C463.083 311.947 463.836 311.671 464.493 311.269C465.172 310.866 465.712 310.336 466.115 309.679C466.539 309.021 466.751 308.195 466.751 307.198C466.751 306.414 466.592 305.757 466.274 305.227C465.977 304.697 465.574 304.262 465.066 303.923C464.578 303.562 464.006 303.276 463.348 303.064C462.712 302.852 462.055 302.672 461.377 302.524C460.741 302.375 460.105 302.237 459.469 302.11C458.833 301.962 458.26 301.792 457.752 301.601C457.243 301.389 456.819 301.135 456.48 300.838C456.162 300.52 456.003 300.128 456.003 299.662C456.003 299.238 456.109 298.898 456.321 298.644C456.533 298.368 456.808 298.156 457.147 298.008C457.487 297.838 457.858 297.722 458.26 297.658C458.684 297.595 459.098 297.563 459.501 297.563C459.946 297.563 460.38 297.616 460.804 297.722C461.25 297.807 461.652 297.955 462.013 298.167C462.373 298.379 462.67 298.665 462.903 299.026C463.136 299.365 463.274 299.799 463.317 300.329H466.02C465.956 299.333 465.744 298.506 465.384 297.849C465.023 297.171 464.536 296.641 463.921 296.259C463.327 295.856 462.638 295.581 461.854 295.432C461.069 295.263 460.211 295.178 459.278 295.178C458.557 295.178 457.826 295.273 457.084 295.464C456.363 295.634 455.706 295.909 455.112 296.291C454.54 296.651 454.063 297.128 453.681 297.722C453.321 298.315 453.141 299.026 453.141 299.852C453.141 300.912 453.406 301.739 453.936 302.333C454.466 302.926 455.123 303.393 455.907 303.732C456.713 304.05 457.582 304.304 458.515 304.495C459.448 304.665 460.306 304.866 461.091 305.099C461.896 305.311 462.564 305.598 463.094 305.958C463.624 306.318 463.889 306.848 463.889 307.548C463.889 308.057 463.762 308.481 463.507 308.82C463.253 309.138 462.924 309.382 462.522 309.551C462.14 309.721 461.716 309.838 461.25 309.901C460.783 309.965 460.338 309.997 459.914 309.997C459.363 309.997 458.822 309.944 458.292 309.838C457.783 309.732 457.317 309.562 456.893 309.329C456.49 309.074 456.162 308.746 455.907 308.343C455.653 307.919 455.515 307.41 455.494 306.817ZM481.156 302.206H471.712C471.754 301.57 471.892 300.976 472.125 300.425C472.358 299.852 472.676 299.354 473.079 298.93C473.482 298.506 473.959 298.178 474.51 297.944C475.083 297.69 475.719 297.563 476.418 297.563C477.097 297.563 477.711 297.69 478.263 297.944C478.835 298.178 479.323 298.506 479.725 298.93C480.149 299.333 480.478 299.821 480.711 300.393C480.966 300.965 481.114 301.57 481.156 302.206ZM483.764 306.785H481.093C480.86 307.866 480.372 308.672 479.63 309.202C478.909 309.732 477.976 309.997 476.832 309.997C475.941 309.997 475.167 309.848 474.51 309.551C473.853 309.255 473.312 308.862 472.888 308.375C472.464 307.866 472.157 307.294 471.966 306.658C471.775 306 471.691 305.311 471.712 304.591H484.018C484.061 303.594 483.965 302.545 483.732 301.442C483.52 300.34 483.117 299.322 482.524 298.39C481.951 297.457 481.178 296.694 480.202 296.1C479.248 295.485 478.04 295.178 476.577 295.178C475.454 295.178 474.415 295.39 473.461 295.814C472.528 296.238 471.712 296.831 471.012 297.595C470.334 298.358 469.804 299.259 469.422 300.298C469.041 301.336 468.85 302.481 468.85 303.732C468.892 304.983 469.072 306.138 469.39 307.198C469.73 308.258 470.228 309.17 470.885 309.933C471.542 310.696 472.348 311.29 473.302 311.714C474.277 312.138 475.422 312.35 476.736 312.35C478.602 312.35 480.149 311.883 481.379 310.951C482.609 310.018 483.404 308.629 483.764 306.785ZM486.82 295.559V312H489.523V302.714C489.523 301.972 489.619 301.294 489.81 300.679C490.022 300.043 490.329 299.492 490.732 299.026C491.135 298.559 491.633 298.199 492.226 297.944C492.841 297.69 493.562 297.563 494.389 297.563C495.428 297.563 496.244 297.86 496.837 298.453C497.431 299.047 497.728 299.852 497.728 300.87V312H500.431V301.188C500.431 300.298 500.335 299.492 500.145 298.771C499.975 298.029 499.668 297.393 499.222 296.863C498.777 296.333 498.194 295.92 497.473 295.623C496.753 295.326 495.852 295.178 494.77 295.178C492.332 295.178 490.552 296.174 489.428 298.167H489.364V295.559H486.82ZM508.243 295.559V290.63H505.54V295.559H502.741V297.944H505.54V308.407C505.54 309.17 505.614 309.785 505.762 310.251C505.911 310.717 506.133 311.078 506.43 311.332C506.748 311.587 507.151 311.767 507.639 311.873C508.147 311.958 508.752 312 509.451 312H511.518V309.615H510.278C509.854 309.615 509.504 309.604 509.229 309.583C508.974 309.541 508.773 309.467 508.624 309.361C508.476 309.255 508.37 309.106 508.306 308.915C508.264 308.725 508.243 308.47 508.243 308.152V297.944H511.518V295.559H508.243ZM517.383 292.602V289.295H514.68V292.602H517.383ZM514.68 295.559V312H517.383V295.559H514.68ZM536.135 311.936C535.669 312.212 535.022 312.35 534.195 312.35C533.496 312.35 532.934 312.159 532.51 311.777C532.107 311.375 531.906 310.728 531.906 309.838C531.164 310.728 530.294 311.375 529.298 311.777C528.323 312.159 527.263 312.35 526.118 312.35C525.376 312.35 524.666 312.265 523.987 312.095C523.33 311.926 522.758 311.661 522.27 311.3C521.783 310.94 521.39 310.474 521.094 309.901C520.818 309.308 520.68 308.597 520.68 307.771C520.68 306.838 520.839 306.075 521.157 305.481C521.475 304.887 521.889 304.41 522.397 304.05C522.927 303.668 523.521 303.382 524.178 303.191C524.857 303.001 525.546 302.842 526.245 302.714C526.987 302.566 527.687 302.46 528.344 302.396C529.022 302.312 529.616 302.206 530.125 302.078C530.634 301.93 531.036 301.729 531.333 301.474C531.63 301.199 531.778 300.806 531.778 300.298C531.778 299.704 531.662 299.227 531.429 298.867C531.217 298.506 530.93 298.231 530.57 298.04C530.231 297.849 529.839 297.722 529.393 297.658C528.969 297.595 528.545 297.563 528.121 297.563C526.977 297.563 526.023 297.785 525.259 298.231C524.496 298.655 524.083 299.471 524.019 300.679H521.316C521.359 299.662 521.571 298.803 521.952 298.103C522.334 297.404 522.843 296.842 523.479 296.418C524.115 295.973 524.835 295.655 525.641 295.464C526.468 295.273 527.348 295.178 528.28 295.178C529.022 295.178 529.754 295.231 530.475 295.337C531.217 295.443 531.884 295.665 532.478 296.005C533.072 296.323 533.549 296.778 533.909 297.372C534.269 297.966 534.45 298.739 534.45 299.693V308.152C534.45 308.788 534.481 309.255 534.545 309.551C534.63 309.848 534.884 309.997 535.308 309.997C535.541 309.997 535.817 309.944 536.135 309.838V311.936ZM531.747 303.509C531.407 303.764 530.962 303.955 530.411 304.082C529.86 304.188 529.277 304.283 528.662 304.368C528.068 304.432 527.464 304.516 526.849 304.622C526.235 304.707 525.683 304.856 525.196 305.068C524.708 305.28 524.305 305.587 523.987 305.99C523.691 306.371 523.542 306.901 523.542 307.58C523.542 308.025 523.627 308.407 523.797 308.725C523.987 309.021 524.221 309.265 524.496 309.456C524.793 309.647 525.132 309.785 525.514 309.869C525.895 309.954 526.298 309.997 526.722 309.997C527.613 309.997 528.376 309.88 529.012 309.647C529.648 309.392 530.167 309.085 530.57 308.725C530.973 308.343 531.27 307.94 531.46 307.516C531.651 307.071 531.747 306.658 531.747 306.276V303.509ZM538.81 289.295V312H541.513V289.295H538.81ZM547.354 306.817H544.651C544.693 307.834 544.905 308.703 545.287 309.424C545.668 310.124 546.177 310.696 546.813 311.141C547.449 311.565 548.18 311.873 549.007 312.064C549.834 312.254 550.703 312.35 551.615 312.35C552.442 312.35 553.268 312.265 554.095 312.095C554.943 311.947 555.696 311.671 556.353 311.269C557.031 310.866 557.572 310.336 557.975 309.679C558.399 309.021 558.611 308.195 558.611 307.198C558.611 306.414 558.452 305.757 558.134 305.227C557.837 304.697 557.434 304.262 556.925 303.923C556.438 303.562 555.865 303.276 555.208 303.064C554.572 302.852 553.915 302.672 553.237 302.524C552.601 302.375 551.965 302.237 551.329 302.11C550.693 301.962 550.12 301.792 549.611 301.601C549.103 301.389 548.679 301.135 548.339 300.838C548.021 300.52 547.862 300.128 547.862 299.662C547.862 299.238 547.968 298.898 548.18 298.644C548.392 298.368 548.668 298.156 549.007 298.008C549.346 297.838 549.717 297.722 550.12 297.658C550.544 297.595 550.958 297.563 551.36 297.563C551.806 297.563 552.24 297.616 552.664 297.722C553.109 297.807 553.512 297.955 553.873 298.167C554.233 298.379 554.53 298.665 554.763 299.026C554.996 299.365 555.134 299.799 555.176 300.329H557.879C557.816 299.333 557.604 298.506 557.243 297.849C556.883 297.171 556.395 296.641 555.781 296.259C555.187 295.856 554.498 295.581 553.714 295.432C552.929 295.263 552.071 295.178 551.138 295.178C550.417 295.178 549.686 295.273 548.944 295.464C548.223 295.634 547.566 295.909 546.972 296.291C546.4 296.651 545.923 297.128 545.541 297.722C545.181 298.315 545 299.026 545 299.852C545 300.912 545.265 301.739 545.795 302.333C546.325 302.926 546.983 303.393 547.767 303.732C548.573 304.05 549.442 304.304 550.375 304.495C551.307 304.665 552.166 304.866 552.95 305.099C553.756 305.311 554.424 305.598 554.954 305.958C555.484 306.318 555.749 306.848 555.749 307.548C555.749 308.057 555.622 308.481 555.367 308.82C555.113 309.138 554.784 309.382 554.381 309.551C554 309.721 553.576 309.838 553.109 309.901C552.643 309.965 552.198 309.997 551.774 309.997C551.223 309.997 550.682 309.944 550.152 309.838C549.643 309.732 549.177 309.562 548.753 309.329C548.35 309.074 548.021 308.746 547.767 308.343C547.513 307.919 547.375 307.41 547.354 306.817ZM76.1482 335.944V350H78.8512V335.944H82.0312V333.559H78.8512V331.27C78.8512 330.549 79.0314 330.061 79.3918 329.807C79.7522 329.553 80.261 329.425 80.9182 329.425C81.1514 329.425 81.4058 329.447 81.6814 329.489C81.957 329.51 82.2114 329.563 82.4446 329.648V327.295C82.1902 327.21 81.8934 327.146 81.5542 327.104C81.2362 327.062 80.95 327.04 80.6956 327.04C79.2116 327.04 78.0774 327.39 77.293 328.09C76.5298 328.768 76.1482 329.775 76.1482 331.111V333.559H73.3816V335.944H76.1482ZM86.4164 341.796C86.4164 340.799 86.5436 339.919 86.798 339.156C87.0736 338.372 87.4446 337.715 87.911 337.185C88.3774 336.655 88.918 336.252 89.5328 335.976C90.1688 335.701 90.8366 335.563 91.5362 335.563C92.2358 335.563 92.893 335.701 93.5078 335.976C94.1438 336.252 94.695 336.655 95.1614 337.185C95.6278 337.715 95.9882 338.372 96.2426 339.156C96.5182 339.919 96.656 340.799 96.656 341.796C96.656 342.792 96.5182 343.682 96.2426 344.467C95.9882 345.23 95.6278 345.877 95.1614 346.407C94.695 346.915 94.1438 347.308 93.5078 347.583C92.893 347.859 92.2358 347.997 91.5362 347.997C90.8366 347.997 90.1688 347.859 89.5328 347.583C88.918 347.308 88.3774 346.915 87.911 346.407C87.4446 345.877 87.0736 345.23 86.798 344.467C86.5436 343.682 86.4164 342.792 86.4164 341.796ZM83.5544 341.796C83.5544 343.004 83.724 344.128 84.0632 345.166C84.4024 346.205 84.9112 347.117 85.5896 347.901C86.268 348.664 87.1054 349.269 88.1018 349.714C89.0982 350.138 90.243 350.35 91.5362 350.35C92.8506 350.35 93.9954 350.138 94.9706 349.714C95.967 349.269 96.8044 348.664 97.4828 347.901C98.1612 347.117 98.67 346.205 99.0092 345.166C99.3484 344.128 99.518 343.004 99.518 341.796C99.518 340.587 99.3484 339.464 99.0092 338.425C98.67 337.365 98.1612 336.453 97.4828 335.69C96.8044 334.906 95.967 334.291 94.9706 333.846C93.9954 333.4 92.8506 333.178 91.5362 333.178C90.243 333.178 89.0982 333.4 88.1018 333.846C87.1054 334.291 86.268 334.906 85.5896 335.69C84.9112 336.453 84.4024 337.365 84.0632 338.425C83.724 339.464 83.5544 340.587 83.5544 341.796ZM102.61 333.559V350H105.313V342.686C105.313 341.626 105.419 340.693 105.631 339.888C105.843 339.061 106.182 338.361 106.648 337.789C107.115 337.216 107.729 336.782 108.493 336.485C109.256 336.188 110.178 336.04 111.259 336.04V333.178C109.796 333.135 108.588 333.432 107.634 334.068C106.68 334.704 105.874 335.69 105.217 337.026H105.154V333.559H102.61ZM133.561 340.206H124.117C124.159 339.57 124.297 338.976 124.53 338.425C124.763 337.852 125.081 337.354 125.484 336.93C125.887 336.506 126.364 336.178 126.915 335.944C127.488 335.69 128.124 335.563 128.823 335.563C129.502 335.563 130.116 335.69 130.668 335.944C131.24 336.178 131.728 336.506 132.13 336.93C132.554 337.333 132.883 337.821 133.116 338.393C133.371 338.965 133.519 339.57 133.561 340.206ZM136.169 344.785H133.498C133.265 345.866 132.777 346.672 132.035 347.202C131.314 347.732 130.381 347.997 129.237 347.997C128.346 347.997 127.572 347.848 126.915 347.551C126.258 347.255 125.717 346.862 125.293 346.375C124.869 345.866 124.562 345.294 124.371 344.658C124.18 344 124.096 343.311 124.117 342.591H136.423C136.466 341.594 136.37 340.545 136.137 339.442C135.925 338.34 135.522 337.322 134.929 336.39C134.356 335.457 133.583 334.694 132.607 334.1C131.653 333.485 130.445 333.178 128.982 333.178C127.859 333.178 126.82 333.39 125.866 333.814C124.933 334.238 124.117 334.831 123.417 335.595C122.739 336.358 122.209 337.259 121.827 338.298C121.446 339.336 121.255 340.481 121.255 341.732C121.297 342.983 121.477 344.138 121.795 345.198C122.135 346.258 122.633 347.17 123.29 347.933C123.947 348.696 124.753 349.29 125.707 349.714C126.682 350.138 127.827 350.35 129.141 350.35C131.007 350.35 132.554 349.883 133.784 348.951C135.014 348.018 135.809 346.629 136.169 344.785ZM146.635 350L152.645 333.559H149.815L145.331 347.265H145.267L140.656 333.559H137.635L143.741 350H146.635ZM166.541 340.206H157.097C157.139 339.57 157.277 338.976 157.51 338.425C157.743 337.852 158.061 337.354 158.464 336.93C158.867 336.506 159.344 336.178 159.895 335.944C160.468 335.69 161.104 335.563 161.803 335.563C162.482 335.563 163.096 335.69 163.648 335.944C164.22 336.178 164.708 336.506 165.11 336.93C165.534 337.333 165.863 337.821 166.096 338.393C166.351 338.965 166.499 339.57 166.541 340.206ZM169.149 344.785H166.478C166.245 345.866 165.757 346.672 165.015 347.202C164.294 347.732 163.361 347.997 162.217 347.997C161.326 347.997 160.552 347.848 159.895 347.551C159.238 347.255 158.697 346.862 158.273 346.375C157.849 345.866 157.542 345.294 157.351 344.658C157.16 344 157.076 343.311 157.097 342.591H169.403C169.446 341.594 169.35 340.545 169.117 339.442C168.905 338.34 168.502 337.322 167.909 336.39C167.336 335.457 166.563 334.694 165.587 334.1C164.633 333.485 163.425 333.178 161.962 333.178C160.839 333.178 159.8 333.39 158.846 333.814C157.913 334.238 157.097 334.831 156.397 335.595C155.719 336.358 155.189 337.259 154.807 338.298C154.426 339.336 154.235 340.481 154.235 341.732C154.277 342.983 154.457 344.138 154.775 345.198C155.115 346.258 155.613 347.17 156.27 347.933C156.927 348.696 157.733 349.29 158.687 349.714C159.662 350.138 160.807 350.35 162.121 350.35C163.987 350.35 165.534 349.883 166.764 348.951C167.994 348.018 168.789 346.629 169.149 344.785ZM172.11 333.559V350H174.813V342.686C174.813 341.626 174.919 340.693 175.131 339.888C175.343 339.061 175.682 338.361 176.149 337.789C176.615 337.216 177.23 336.782 177.993 336.485C178.756 336.188 179.678 336.04 180.76 336.04V333.178C179.297 333.135 178.088 333.432 177.134 334.068C176.18 334.704 175.375 335.69 174.718 337.026H174.654V333.559H172.11ZM189.25 352.194C188.932 353 188.614 353.678 188.296 354.229C188 354.781 187.66 355.226 187.279 355.565C186.918 355.925 186.505 356.18 186.039 356.328C185.593 356.498 185.074 356.583 184.48 356.583C184.162 356.583 183.844 356.561 183.526 356.519C183.208 356.477 182.901 356.402 182.604 356.296V353.816C182.837 353.922 183.102 354.007 183.399 354.07C183.717 354.155 183.982 354.198 184.194 354.198C184.745 354.198 185.201 354.06 185.562 353.784C185.943 353.53 186.229 353.159 186.42 352.671L187.533 349.905L181.014 333.559H184.067L188.869 347.011H188.932L193.543 333.559H196.405L189.25 352.194ZM200.667 341.796C200.667 340.799 200.794 339.919 201.048 339.156C201.324 338.372 201.695 337.715 202.161 337.185C202.628 336.655 203.168 336.252 203.783 335.976C204.419 335.701 205.087 335.563 205.786 335.563C206.486 335.563 207.143 335.701 207.758 335.976C208.394 336.252 208.945 336.655 209.412 337.185C209.878 337.715 210.238 338.372 210.493 339.156C210.768 339.919 210.906 340.799 210.906 341.796C210.906 342.792 210.768 343.682 210.493 344.467C210.238 345.23 209.878 345.877 209.412 346.407C208.945 346.915 208.394 347.308 207.758 347.583C207.143 347.859 206.486 347.997 205.786 347.997C205.087 347.997 204.419 347.859 203.783 347.583C203.168 347.308 202.628 346.915 202.161 346.407C201.695 345.877 201.324 345.23 201.048 344.467C200.794 343.682 200.667 342.792 200.667 341.796ZM197.805 341.796C197.805 343.004 197.974 344.128 198.313 345.166C198.653 346.205 199.161 347.117 199.84 347.901C200.518 348.664 201.356 349.269 202.352 349.714C203.348 350.138 204.493 350.35 205.786 350.35C207.101 350.35 208.246 350.138 209.221 349.714C210.217 349.269 211.055 348.664 211.733 347.901C212.411 347.117 212.92 346.205 213.259 345.166C213.599 344.128 213.768 343.004 213.768 341.796C213.768 340.587 213.599 339.464 213.259 338.425C212.92 337.365 212.411 336.453 211.733 335.69C211.055 334.906 210.217 334.291 209.221 333.846C208.246 333.4 207.101 333.178 205.786 333.178C204.493 333.178 203.348 333.4 202.352 333.846C201.356 334.291 200.518 334.906 199.84 335.69C199.161 336.453 198.653 337.365 198.313 338.425C197.974 339.464 197.805 340.587 197.805 341.796ZM216.955 333.559V350H219.658V340.714C219.658 339.972 219.754 339.294 219.944 338.679C220.156 338.043 220.464 337.492 220.867 337.026C221.269 336.559 221.768 336.199 222.361 335.944C222.976 335.69 223.697 335.563 224.524 335.563C225.562 335.563 226.379 335.86 226.972 336.453C227.566 337.047 227.863 337.852 227.863 338.87V350H230.566V339.188C230.566 338.298 230.47 337.492 230.279 336.771C230.11 336.029 229.802 335.393 229.357 334.863C228.912 334.333 228.329 333.92 227.608 333.623C226.887 333.326 225.986 333.178 224.905 333.178C222.467 333.178 220.686 334.174 219.563 336.167H219.499V333.559H216.955ZM246.041 340.206H236.597C236.639 339.57 236.777 338.976 237.01 338.425C237.243 337.852 237.561 337.354 237.964 336.93C238.367 336.506 238.844 336.178 239.395 335.944C239.968 335.69 240.604 335.563 241.303 335.563C241.982 335.563 242.596 335.69 243.148 335.944C243.72 336.178 244.208 336.506 244.61 336.93C245.034 337.333 245.363 337.821 245.596 338.393C245.851 338.965 245.999 339.57 246.041 340.206ZM248.649 344.785H245.978C245.745 345.866 245.257 346.672 244.515 347.202C243.794 347.732 242.861 347.997 241.717 347.997C240.826 347.997 240.052 347.848 239.395 347.551C238.738 347.255 238.197 346.862 237.773 346.375C237.349 345.866 237.042 345.294 236.851 344.658C236.66 344 236.576 343.311 236.597 342.591H248.903C248.946 341.594 248.85 340.545 248.617 339.442C248.405 338.34 248.002 337.322 247.409 336.39C246.836 335.457 246.063 334.694 245.087 334.1C244.133 333.485 242.925 333.178 241.462 333.178C240.339 333.178 239.3 333.39 238.346 333.814C237.413 334.238 236.597 334.831 235.897 335.595C235.219 336.358 234.689 337.259 234.307 338.298C233.926 339.336 233.735 340.481 233.735 341.732C233.777 342.983 233.957 344.138 234.275 345.198C234.615 346.258 235.113 347.17 235.77 347.933C236.427 348.696 237.233 349.29 238.187 349.714C239.162 350.138 240.307 350.35 241.621 350.35C243.487 350.35 245.034 349.883 246.264 348.951C247.494 348.018 248.289 346.629 248.649 344.785ZM262.528 341.796C262.528 340.799 262.655 339.919 262.909 339.156C263.185 338.372 263.556 337.715 264.022 337.185C264.489 336.655 265.029 336.252 265.644 335.976C266.28 335.701 266.948 335.563 267.647 335.563C268.347 335.563 269.004 335.701 269.619 335.976C270.255 336.252 270.806 336.655 271.273 337.185C271.739 337.715 272.099 338.372 272.354 339.156C272.629 339.919 272.767 340.799 272.767 341.796C272.767 342.792 272.629 343.682 272.354 344.467C272.099 345.23 271.739 345.877 271.273 346.407C270.806 346.915 270.255 347.308 269.619 347.583C269.004 347.859 268.347 347.997 267.647 347.997C266.948 347.997 266.28 347.859 265.644 347.583C265.029 347.308 264.489 346.915 264.022 346.407C263.556 345.877 263.185 345.23 262.909 344.467C262.655 343.682 262.528 342.792 262.528 341.796ZM259.666 341.796C259.666 343.004 259.835 344.128 260.174 345.166C260.514 346.205 261.022 347.117 261.701 347.901C262.379 348.664 263.217 349.269 264.213 349.714C265.209 350.138 266.354 350.35 267.647 350.35C268.962 350.35 270.107 350.138 271.082 349.714C272.078 349.269 272.916 348.664 273.594 347.901C274.272 347.117 274.781 346.205 275.12 345.166C275.46 344.128 275.629 343.004 275.629 341.796C275.629 340.587 275.46 339.464 275.12 338.425C274.781 337.365 274.272 336.453 273.594 335.69C272.916 334.906 272.078 334.291 271.082 333.846C270.107 333.4 268.962 333.178 267.647 333.178C266.354 333.178 265.209 333.4 264.213 333.846C263.217 334.291 262.379 334.906 261.701 335.69C261.022 336.453 260.514 337.365 260.174 338.425C259.835 339.464 259.666 340.587 259.666 341.796ZM278.816 333.559V350H281.519V340.714C281.519 339.972 281.614 339.294 281.805 338.679C282.017 338.043 282.325 337.492 282.727 337.026C283.13 336.559 283.628 336.199 284.222 335.944C284.837 335.69 285.558 335.563 286.384 335.563C287.423 335.563 288.239 335.86 288.833 336.453C289.427 337.047 289.723 337.852 289.723 338.87V350H292.426V339.188C292.426 338.298 292.331 337.492 292.14 336.771C291.971 336.029 291.663 335.393 291.218 334.863C290.773 334.333 290.19 333.92 289.469 333.623C288.748 333.326 287.847 333.178 286.766 333.178C284.328 333.178 282.547 334.174 281.424 336.167H281.36V333.559H278.816ZM311.792 352.194C311.474 353 311.156 353.678 310.838 354.229C310.541 354.781 310.202 355.226 309.821 355.565C309.46 355.925 309.047 356.18 308.58 356.328C308.135 356.498 307.616 356.583 307.022 356.583C306.704 356.583 306.386 356.561 306.068 356.519C305.75 356.477 305.443 356.402 305.146 356.296V353.816C305.379 353.922 305.644 354.007 305.941 354.07C306.259 354.155 306.524 354.198 306.736 354.198C307.287 354.198 307.743 354.06 308.103 353.784C308.485 353.53 308.771 353.159 308.962 352.671L310.075 349.905L303.556 333.559H306.609L311.411 347.011H311.474L316.085 333.559H318.947L311.792 352.194ZM323.208 341.796C323.208 340.799 323.336 339.919 323.59 339.156C323.866 338.372 324.237 337.715 324.703 337.185C325.169 336.655 325.71 336.252 326.325 335.976C326.961 335.701 327.629 335.563 328.328 335.563C329.028 335.563 329.685 335.701 330.3 335.976C330.936 336.252 331.487 336.655 331.953 337.185C332.42 337.715 332.78 338.372 333.035 339.156C333.31 339.919 333.448 340.799 333.448 341.796C333.448 342.792 333.31 343.682 333.035 344.467C332.78 345.23 332.42 345.877 331.953 346.407C331.487 346.915 330.936 347.308 330.3 347.583C329.685 347.859 329.028 347.997 328.328 347.997C327.629 347.997 326.961 347.859 326.325 347.583C325.71 347.308 325.169 346.915 324.703 346.407C324.237 345.877 323.866 345.23 323.59 344.467C323.336 343.682 323.208 342.792 323.208 341.796ZM320.346 341.796C320.346 343.004 320.516 344.128 320.855 345.166C321.194 346.205 321.703 347.117 322.382 347.901C323.06 348.664 323.897 349.269 324.894 349.714C325.89 350.138 327.035 350.35 328.328 350.35C329.643 350.35 330.787 350.138 331.763 349.714C332.759 349.269 333.596 348.664 334.275 347.901C334.953 347.117 335.462 346.205 335.801 345.166C336.14 344.128 336.31 343.004 336.31 341.796C336.31 340.587 336.14 339.464 335.801 338.425C335.462 337.365 334.953 336.453 334.275 335.69C333.596 334.906 332.759 334.291 331.763 333.846C330.787 333.4 329.643 333.178 328.328 333.178C327.035 333.178 325.89 333.4 324.894 333.846C323.897 334.291 323.06 334.906 322.382 335.69C321.703 336.453 321.194 337.365 320.855 338.425C320.516 339.464 320.346 340.587 320.346 341.796ZM353.107 350V333.559H350.404V342.845C350.404 343.587 350.298 344.276 350.086 344.912C349.896 345.527 349.599 346.067 349.196 346.534C348.793 347 348.284 347.361 347.67 347.615C347.076 347.869 346.366 347.997 345.539 347.997C344.5 347.997 343.684 347.7 343.09 347.106C342.497 346.513 342.2 345.707 342.2 344.689V333.559H339.497V344.371C339.497 345.262 339.582 346.078 339.751 346.82C339.942 347.541 340.26 348.166 340.705 348.696C341.151 349.226 341.734 349.64 342.454 349.936C343.175 350.212 344.076 350.35 345.157 350.35C346.366 350.35 347.415 350.117 348.306 349.65C349.196 349.163 349.927 348.41 350.5 347.392H350.563V350H353.107ZM357.072 333.559V350H359.775V342.686C359.775 341.626 359.881 340.693 360.093 339.888C360.305 339.061 360.644 338.361 361.11 337.789C361.577 337.216 362.191 336.782 362.955 336.485C363.718 336.188 364.64 336.04 365.721 336.04V333.178C364.258 333.135 363.05 333.432 362.096 334.068C361.142 334.704 360.336 335.69 359.679 337.026H359.616V333.559H357.072ZM376.766 327.295V350H379.469V327.295H376.766ZM386.519 330.602V327.295H383.816V330.602H386.519ZM383.816 333.559V350H386.519V333.559H383.816ZM392.36 344.817H389.657C389.699 345.834 389.911 346.703 390.293 347.424C390.674 348.124 391.183 348.696 391.819 349.141C392.455 349.565 393.186 349.873 394.013 350.064C394.84 350.254 395.709 350.35 396.621 350.35C397.448 350.35 398.274 350.265 399.101 350.095C399.949 349.947 400.702 349.671 401.359 349.269C402.037 348.866 402.578 348.336 402.981 347.679C403.405 347.021 403.617 346.195 403.617 345.198C403.617 344.414 403.458 343.757 403.14 343.227C402.843 342.697 402.44 342.262 401.931 341.923C401.444 341.562 400.871 341.276 400.214 341.064C399.578 340.852 398.921 340.672 398.243 340.524C397.607 340.375 396.971 340.237 396.335 340.11C395.699 339.962 395.126 339.792 394.617 339.601C394.109 339.389 393.685 339.135 393.345 338.838C393.027 338.52 392.868 338.128 392.868 337.662C392.868 337.238 392.974 336.898 393.186 336.644C393.398 336.368 393.674 336.156 394.013 336.008C394.352 335.838 394.723 335.722 395.126 335.658C395.55 335.595 395.964 335.563 396.366 335.563C396.812 335.563 397.246 335.616 397.67 335.722C398.115 335.807 398.518 335.955 398.879 336.167C399.239 336.379 399.536 336.665 399.769 337.026C400.002 337.365 400.14 337.799 400.182 338.329H402.885C402.822 337.333 402.61 336.506 402.249 335.849C401.889 335.171 401.401 334.641 400.787 334.259C400.193 333.856 399.504 333.581 398.72 333.432C397.935 333.263 397.077 333.178 396.144 333.178C395.423 333.178 394.692 333.273 393.95 333.464C393.229 333.634 392.572 333.909 391.978 334.291C391.406 334.651 390.929 335.128 390.547 335.722C390.187 336.315 390.006 337.026 390.006 337.852C390.006 338.912 390.271 339.739 390.801 340.333C391.331 340.926 391.989 341.393 392.773 341.732C393.579 342.05 394.448 342.304 395.381 342.495C396.313 342.665 397.172 342.866 397.956 343.099C398.762 343.311 399.43 343.598 399.96 343.958C400.49 344.318 400.755 344.848 400.755 345.548C400.755 346.057 400.628 346.481 400.373 346.82C400.119 347.138 399.79 347.382 399.387 347.551C399.006 347.721 398.582 347.838 398.115 347.901C397.649 347.965 397.204 347.997 396.78 347.997C396.229 347.997 395.688 347.944 395.158 347.838C394.649 347.732 394.183 347.562 393.759 347.329C393.356 347.074 393.027 346.746 392.773 346.343C392.519 345.919 392.381 345.41 392.36 344.817ZM410.358 333.559V328.63H407.655V333.559H404.857V335.944H407.655V346.407C407.655 347.17 407.73 347.785 407.878 348.251C408.026 348.717 408.249 349.078 408.546 349.332C408.864 349.587 409.267 349.767 409.754 349.873C410.263 349.958 410.867 350 411.567 350H413.634V347.615H412.394C411.97 347.615 411.62 347.604 411.344 347.583C411.09 347.541 410.888 347.467 410.74 347.361C410.592 347.255 410.486 347.106 410.422 346.915C410.38 346.725 410.358 346.47 410.358 346.152V335.944H413.634V333.559H410.358Z" fill="#252525"/>
</svg>
