<svg width="261" height="261" viewBox="0 0 261 261" fill="none" xmlns="http://www.w3.org/2000/svg">
<path d="M73.9042 73.0328H78.3475C77.8303 68.8481 76.2081 65.7214 73.481 63.6525C70.8009 61.5837 67.5096 60.5492 63.607 60.5492C60.8329 60.5492 58.3644 61.0665 56.2015 62.1009C54.0856 63.1353 52.2989 64.5224 50.8413 66.2621C49.3837 68.0018 48.2787 70.0471 47.5264 72.3981C46.7741 74.702 46.398 77.1705 46.398 79.8036C46.398 82.4367 46.7741 84.9287 47.5264 87.2796C48.2787 89.5836 49.3837 91.6054 50.8413 93.3451C52.2989 95.0848 54.0856 96.4719 56.2015 97.5063C58.3644 98.4937 60.8329 98.9874 63.607 98.9874C67.7447 98.9874 71.1301 97.7649 73.7631 95.3199C76.3962 92.8279 78.0184 89.372 78.6296 84.9522H74.1863C74.0452 86.4568 73.6691 87.8439 73.0578 89.1134C72.4466 90.3829 71.6708 91.4878 70.7304 92.4282C69.79 93.3216 68.7086 94.0269 67.4861 94.5441C66.2636 95.0613 64.9705 95.3199 63.607 95.3199C61.4911 95.3199 59.6339 94.8732 58.0352 93.9799C56.4366 93.0865 55.0965 91.911 54.0151 90.4534C52.9807 88.9958 52.1813 87.3502 51.6171 85.5164C51.0999 83.6356 50.8413 81.7314 50.8413 79.8036C50.8413 77.8758 51.0999 75.995 51.6171 74.1613C52.1813 72.2805 52.9807 70.6113 54.0151 69.1538C55.0965 67.6962 56.4366 66.5207 58.0352 65.6273C59.6339 64.734 61.4911 64.2873 63.607 64.2873C66.5692 64.2873 68.8731 65.0631 70.5188 66.6147C72.1645 68.1663 73.2929 70.3057 73.9042 73.0328ZM78.5982 61.6072L93.1271 97.8589L91.5755 101.95C91.1993 102.796 90.8467 103.572 90.5176 104.277C90.1884 104.982 89.7888 105.57 89.3186 106.04C88.8484 106.557 88.2841 106.957 87.6259 107.239C87.0146 107.521 86.2153 107.662 85.2279 107.662C84.7107 107.662 84.1935 107.615 83.6763 107.521C83.2061 107.474 82.7124 107.404 82.1952 107.31V111.048C82.5713 111.189 82.9945 111.259 83.4647 111.259C83.9819 111.306 84.6872 111.353 85.5805 111.4C86.9911 111.4 88.1431 111.259 89.0365 110.977C89.9768 110.742 90.7762 110.319 91.4344 109.708C92.1397 109.144 92.7745 108.344 93.3387 107.31C93.9029 106.322 94.5142 105.053 95.1725 103.501L110.971 61.6072H106.528L95.3135 92.6398L83.3236 61.6072H78.5982ZM113.22 47.6425V98H117.311V91.0882H117.452C118.486 93.6272 120.155 95.5785 122.459 96.9421C124.81 98.3056 127.467 98.9874 130.429 98.9874C133.203 98.9874 135.601 98.4937 137.623 97.5063C139.692 96.4719 141.408 95.0848 142.772 93.3451C144.135 91.5584 145.146 89.513 145.804 87.2091C146.463 84.8581 146.792 82.3896 146.792 79.8036C146.792 77.2175 146.463 74.7725 145.804 72.4686C145.146 70.1176 144.135 68.0723 142.772 66.3326C141.408 64.5459 139.692 63.1353 137.623 62.1009C135.601 61.0665 133.203 60.5492 130.429 60.5492C129.113 60.5492 127.796 60.7138 126.479 61.0429C125.163 61.3721 123.94 61.8893 122.812 62.5946C121.684 63.2528 120.673 64.0757 119.779 65.0631C118.933 66.0505 118.275 67.2025 117.804 68.519H117.663V47.6425H113.22ZM142.348 79.8036C142.348 81.6844 142.113 83.5651 141.643 85.4459C141.22 87.2796 140.515 88.9253 139.527 90.3829C138.587 91.8405 137.364 93.0395 135.86 93.9799C134.355 94.8732 132.545 95.3199 130.429 95.3199C128.078 95.3199 126.08 94.8732 124.434 93.9799C122.836 93.0395 121.519 91.8405 120.485 90.3829C119.497 88.9253 118.768 87.2796 118.298 85.4459C117.875 83.5651 117.663 81.6844 117.663 79.8036C117.663 77.9228 117.875 76.0656 118.298 74.2318C118.768 72.3511 119.497 70.6819 120.485 69.2243C121.519 67.7667 122.836 66.5912 124.434 65.6978C126.08 64.7575 128.078 64.2873 130.429 64.2873C132.545 64.2873 134.355 64.7575 135.86 65.6978C137.364 66.5912 138.587 67.7667 139.527 69.2243C140.515 70.6819 141.22 72.3511 141.643 74.2318C142.113 76.0656 142.348 77.9228 142.348 79.8036ZM177.769 77.2646H154.213C154.401 75.6189 154.777 74.0202 155.341 72.4686C155.952 70.8699 156.752 69.4829 157.739 68.3074C158.727 67.0849 159.926 66.121 161.336 65.4157C162.747 64.6634 164.369 64.2873 166.203 64.2873C167.989 64.2873 169.588 64.6634 170.999 65.4157C172.409 66.121 173.608 67.0849 174.596 68.3074C175.583 69.4829 176.335 70.8464 176.852 72.3981C177.417 73.9497 177.722 75.5719 177.769 77.2646ZM154.213 81.0026H182.213C182.307 78.4635 182.072 75.9715 181.507 73.5265C180.943 71.0345 180.003 68.8481 178.686 66.9674C177.417 65.0396 175.747 63.4879 173.679 62.3125C171.61 61.137 169.118 60.5492 166.203 60.5492C163.334 60.5492 160.842 61.1135 158.727 62.2419C156.658 63.3234 154.965 64.781 153.648 66.6147C152.332 68.4014 151.345 70.4468 150.686 72.7507C150.075 75.0547 149.769 77.4056 149.769 79.8036C149.769 82.3896 150.075 84.8581 150.686 87.2091C151.345 89.513 152.332 91.5584 153.648 93.3451C154.965 95.0848 156.658 96.4719 158.727 97.5063C160.842 98.4937 163.334 98.9874 166.203 98.9874C170.81 98.9874 174.36 97.8589 176.852 95.602C179.391 93.3451 181.131 90.1478 182.072 86.0101H177.628C176.923 88.8313 175.653 91.0882 173.82 92.7809C171.986 94.4736 169.447 95.3199 166.203 95.3199C164.087 95.3199 162.276 94.8732 160.772 93.9799C159.267 93.0865 158.021 91.958 157.034 90.5945C156.046 89.2309 155.318 87.7028 154.847 86.0101C154.424 84.2704 154.213 82.6012 154.213 81.0026ZM186.06 61.6072V98H190.504V78.6046C190.504 76.6768 190.833 74.9136 191.491 73.3149C192.149 71.6693 193.066 70.2587 194.242 69.0832C195.464 67.9077 196.898 67.0144 198.544 66.4031C200.19 65.7449 202.023 65.4627 204.045 65.5568V61.1135C200.754 60.9724 197.909 61.7012 195.511 63.2999C193.16 64.8985 191.42 67.1789 190.292 70.1412H190.151V61.6072H186.06ZM73.6926 199.663C73.6926 201.167 73.5515 202.625 73.2694 204.035C72.9873 205.446 72.5171 206.715 71.8588 207.844C71.2006 208.925 70.3072 209.795 69.1788 210.453C68.0973 211.112 66.7338 211.441 65.0881 211.441C63.5365 211.441 62.1964 211.112 61.068 210.453C59.9865 209.748 59.0696 208.855 58.3173 207.773C57.612 206.645 57.0948 205.375 56.7657 203.965C56.4366 202.554 56.272 201.144 56.272 199.733C56.272 198.228 56.4131 196.794 56.6952 195.431C57.0243 194.02 57.518 192.774 58.1763 191.693C58.8816 190.611 59.7984 189.741 60.9269 189.083C62.0554 188.425 63.4424 188.096 65.0881 188.096C66.7338 188.096 68.0973 188.425 69.1788 189.083C70.2602 189.741 71.1301 190.611 71.7883 191.693C72.4936 192.727 72.9873 193.95 73.2694 195.36C73.5515 196.724 73.6926 198.158 73.6926 199.663ZM73.8337 213.345V218H83.355V167.642H73.34V185.98H73.1989C72.0704 184.193 70.5188 182.853 68.544 181.96C66.6162 181.019 64.5709 180.549 62.408 180.549C59.7279 180.549 57.3769 181.09 55.3551 182.171C53.3333 183.206 51.6406 184.593 50.2771 186.333C48.9605 188.072 47.9496 190.094 47.2443 192.398C46.5861 194.655 46.2569 197.006 46.2569 199.451C46.2569 201.99 46.5861 204.435 47.2443 206.786C47.9496 209.137 48.9605 211.229 50.2771 213.063C51.6406 214.85 53.3568 216.284 55.4257 217.365C57.4945 218.4 59.8925 218.917 62.6196 218.917C65.0176 218.917 67.1569 218.494 69.0377 217.647C70.9655 216.754 72.5171 215.32 73.6926 213.345H73.8337ZM113.353 195.854H97.0607C97.1078 195.149 97.2488 194.349 97.4839 193.456C97.766 192.563 98.2127 191.716 98.824 190.917C99.4822 190.118 100.329 189.459 101.363 188.942C102.444 188.378 103.784 188.096 105.383 188.096C107.828 188.096 109.638 188.754 110.814 190.071C112.036 191.387 112.883 193.315 113.353 195.854ZM97.0607 202.202H123.368C123.556 199.38 123.321 196.677 122.663 194.091C122.004 191.505 120.923 189.201 119.418 187.179C117.961 185.157 116.08 183.558 113.776 182.383C111.472 181.16 108.769 180.549 105.665 180.549C102.891 180.549 100.352 181.043 98.0481 182.03C95.7912 183.018 93.8399 184.381 92.1943 186.121C90.5486 187.814 89.2791 189.836 88.3857 192.186C87.4923 194.537 87.0457 197.076 87.0457 199.804C87.0457 202.625 87.4688 205.211 88.3152 207.562C89.2085 209.913 90.4546 211.935 92.0532 213.627C93.6519 215.32 95.6032 216.636 97.9071 217.577C100.211 218.47 102.797 218.917 105.665 218.917C109.803 218.917 113.329 217.976 116.245 216.096C119.16 214.215 121.323 211.088 122.733 206.715H113.917C113.588 207.844 112.695 208.925 111.237 209.96C109.779 210.947 108.04 211.441 106.018 211.441C103.197 211.441 101.034 210.712 99.5293 209.254C98.0246 207.797 97.2018 205.446 97.0607 202.202ZM126.769 192.751C126.91 190.4 127.498 188.448 128.532 186.897C129.566 185.345 130.883 184.099 132.482 183.159C134.08 182.218 135.867 181.56 137.842 181.184C139.864 180.761 141.885 180.549 143.907 180.549C145.741 180.549 147.598 180.69 149.479 180.972C151.36 181.208 153.076 181.701 154.628 182.454C156.179 183.206 157.449 184.264 158.436 185.627C159.424 186.944 159.917 188.707 159.917 190.917V209.889C159.917 211.535 160.011 213.11 160.199 214.615C160.387 216.119 160.717 217.248 161.187 218H151.031C150.843 217.436 150.678 216.872 150.537 216.307C150.443 215.696 150.372 215.085 150.325 214.474C148.727 216.119 146.846 217.271 144.683 217.929C142.52 218.588 140.31 218.917 138.053 218.917C136.314 218.917 134.691 218.705 133.187 218.282C131.682 217.859 130.366 217.201 129.237 216.307C128.109 215.414 127.215 214.285 126.557 212.922C125.946 211.558 125.64 209.936 125.64 208.055C125.64 205.987 125.993 204.294 126.698 202.977C127.451 201.614 128.391 200.532 129.519 199.733C130.695 198.934 132.011 198.346 133.469 197.97C134.974 197.547 136.478 197.218 137.983 196.982C139.487 196.747 140.969 196.559 142.426 196.418C143.884 196.277 145.177 196.066 146.305 195.783C147.434 195.501 148.327 195.102 148.985 194.584C149.644 194.02 149.949 193.221 149.902 192.186C149.902 191.105 149.714 190.259 149.338 189.647C149.009 188.989 148.539 188.495 147.927 188.166C147.363 187.79 146.681 187.555 145.882 187.461C145.13 187.32 144.307 187.249 143.414 187.249C141.439 187.249 139.887 187.673 138.759 188.519C137.63 189.365 136.972 190.776 136.784 192.751H126.769ZM149.902 200.156C149.479 200.532 148.938 200.838 148.28 201.073C147.669 201.261 146.987 201.426 146.235 201.567C145.529 201.708 144.777 201.825 143.978 201.919C143.178 202.013 142.379 202.131 141.58 202.272C140.827 202.413 140.075 202.601 139.323 202.836C138.618 203.071 137.983 203.401 137.419 203.824C136.901 204.2 136.478 204.694 136.149 205.305C135.82 205.916 135.655 206.692 135.655 207.632C135.655 208.526 135.82 209.278 136.149 209.889C136.478 210.5 136.925 210.994 137.489 211.37C138.053 211.699 138.712 211.935 139.464 212.076C140.216 212.217 140.992 212.287 141.791 212.287C143.766 212.287 145.294 211.958 146.376 211.3C147.457 210.642 148.257 209.866 148.774 208.972C149.291 208.032 149.597 207.092 149.691 206.151C149.832 205.211 149.902 204.458 149.902 203.894V200.156ZM165.857 167.642V218H175.872V167.642H165.857ZM189.4 206.151H179.879C179.973 208.596 180.514 210.642 181.501 212.287C182.536 213.886 183.829 215.179 185.38 216.166C186.979 217.154 188.789 217.859 190.811 218.282C192.833 218.705 194.902 218.917 197.018 218.917C199.086 218.917 201.108 218.705 203.083 218.282C205.105 217.906 206.892 217.224 208.443 216.237C209.995 215.249 211.241 213.956 212.181 212.358C213.169 210.712 213.662 208.69 213.662 206.292C213.662 204.6 213.333 203.189 212.675 202.061C212.017 200.885 211.147 199.921 210.065 199.169C208.984 198.37 207.738 197.735 206.327 197.265C204.964 196.794 203.553 196.395 202.096 196.066C200.685 195.736 199.298 195.431 197.934 195.149C196.571 194.867 195.348 194.561 194.267 194.232C193.233 193.856 192.386 193.385 191.728 192.821C191.07 192.257 190.741 191.528 190.741 190.635C190.741 189.883 190.929 189.295 191.305 188.872C191.681 188.401 192.128 188.049 192.645 187.814C193.209 187.579 193.82 187.438 194.479 187.391C195.137 187.296 195.748 187.249 196.312 187.249C198.099 187.249 199.651 187.602 200.967 188.307C202.284 188.966 203.013 190.259 203.154 192.186H212.675C212.487 189.93 211.899 188.072 210.912 186.615C209.971 185.11 208.772 183.911 207.315 183.018C205.857 182.124 204.188 181.49 202.307 181.113C200.473 180.737 198.569 180.549 196.594 180.549C194.62 180.549 192.692 180.737 190.811 181.113C188.93 181.443 187.238 182.054 185.733 182.947C184.228 183.794 183.006 184.969 182.065 186.474C181.172 187.978 180.725 189.906 180.725 192.257C180.725 193.856 181.055 195.219 181.713 196.348C182.371 197.429 183.241 198.346 184.322 199.098C185.404 199.804 186.626 200.391 187.99 200.862C189.4 201.285 190.835 201.661 192.292 201.99C195.866 202.742 198.64 203.495 200.615 204.247C202.636 204.999 203.647 206.128 203.647 207.632C203.647 208.526 203.436 209.278 203.013 209.889C202.589 210.453 202.049 210.924 201.39 211.3C200.779 211.629 200.074 211.888 199.275 212.076C198.522 212.217 197.793 212.287 197.088 212.287C196.101 212.287 195.137 212.17 194.196 211.935C193.303 211.699 192.504 211.347 191.798 210.877C191.093 210.359 190.505 209.725 190.035 208.972C189.612 208.173 189.4 207.233 189.4 206.151Z" fill="#252525"/>
<path d="M89.491 158L100.987 121.537H90.69L83.9898 146.222H83.8487L77.6422 121.537H67.9092L61.8438 146.292H61.7027L55.0025 121.537H44.4232L55.9899 158H66.3576L72.5641 133.527H72.7052L79.1938 158H89.491ZM127.679 135.854H111.387C111.434 135.149 111.575 134.349 111.81 133.456C112.092 132.563 112.539 131.716 113.15 130.917C113.808 130.118 114.655 129.459 115.689 128.942C116.771 128.378 118.111 128.096 119.709 128.096C122.154 128.096 123.965 128.754 125.14 130.071C126.362 131.387 127.209 133.315 127.679 135.854ZM111.387 142.202H137.694C137.882 139.38 137.647 136.677 136.989 134.091C136.331 131.505 135.249 129.201 133.745 127.179C132.287 125.157 130.406 123.558 128.102 122.383C125.798 121.16 123.095 120.549 119.991 120.549C117.217 120.549 114.678 121.043 112.374 122.03C110.117 123.018 108.166 124.381 106.52 126.121C104.875 127.814 103.605 129.836 102.712 132.186C101.818 134.537 101.372 137.076 101.372 139.804C101.372 142.625 101.795 145.211 102.641 147.562C103.535 149.913 104.781 151.935 106.379 153.627C107.978 155.32 109.929 156.636 112.233 157.577C114.537 158.47 117.123 158.917 119.991 158.917C124.129 158.917 127.656 157.976 130.571 156.096C133.486 154.215 135.649 151.088 137.059 146.715H128.243C127.914 147.844 127.021 148.925 125.563 149.96C124.106 150.947 122.366 151.441 120.344 151.441C117.523 151.441 115.36 150.712 113.855 149.254C112.351 147.797 111.528 145.446 111.387 142.202ZM166.062 135.854H149.77C149.817 135.149 149.958 134.349 150.193 133.456C150.475 132.563 150.922 131.716 151.533 130.917C152.191 130.118 153.038 129.459 154.072 128.942C155.154 128.378 156.494 128.096 158.092 128.096C160.537 128.096 162.348 128.754 163.523 130.071C164.746 131.387 165.592 133.315 166.062 135.854ZM149.77 142.202H176.077C176.265 139.38 176.03 136.677 175.372 134.091C174.714 131.505 173.632 129.201 172.128 127.179C170.67 125.157 168.789 123.558 166.485 122.383C164.181 121.16 161.478 120.549 158.374 120.549C155.6 120.549 153.061 121.043 150.757 122.03C148.5 123.018 146.549 124.381 144.903 126.121C143.258 127.814 141.988 129.836 141.095 132.186C140.202 134.537 139.755 137.076 139.755 139.804C139.755 142.625 140.178 145.211 141.024 147.562C141.918 149.913 143.164 151.935 144.762 153.627C146.361 155.32 148.312 156.636 150.616 157.577C152.92 158.47 155.506 158.917 158.374 158.917C162.512 158.917 166.039 157.976 168.954 156.096C171.869 154.215 174.032 151.088 175.442 146.715H166.626C166.297 147.844 165.404 148.925 163.946 149.96C162.489 150.947 160.749 151.441 158.727 151.441C155.906 151.441 153.743 150.712 152.238 149.254C150.734 147.797 149.911 145.446 149.77 142.202ZM180.818 107.642V158H190.833V145.446L194.712 141.708L204.727 158H216.858L201.553 134.937L215.307 121.537H203.458L190.833 134.655V107.642H180.818Z" fill="#ED0000"/>
</svg>
